<svg width="305" height="306" viewBox="0 0 305 306" fill="none" xmlns="http://www.w3.org/2000/svg">
<path d="M291.885 173.709C291.159 168.396 288.915 163.077 286.051 158.075C283.187 153.073 279.698 148.388 276.492 144.35C275.556 143.17 269.358 135.767 263.481 128.56C257.603 121.353 252.046 114.344 252.4 113.948L245.672 121.502L238.943 129.054C235.43 125.596 231.566 121.289 226.966 116.888C222.367 112.487 217.035 107.997 210.588 104.175C209.404 103.478 208.229 102.803 207.062 102.15C205.895 101.497 204.736 100.87 203.585 100.268C187.638 91.9055 169.386 89.0122 151.634 92.0333L136.524 93.7505L121.39 95.4707C119.786 95.6496 118.181 95.8214 116.574 95.9861C114.968 96.1508 113.362 96.3084 111.755 96.4589C97.4204 97.8192 86.172 104.169 77.5588 113.396C68.9456 122.622 62.9859 134.73 59.2588 147.607C56.2243 158.276 53.8811 169.129 52.2438 180.099C50.5572 191.079 49.4348 202.141 48.6265 213.161C48.6265 213.161 47.7115 220.176 49.9502 227.34C52.1889 234.505 57.5905 241.837 70.2205 242.478H226.097L217.728 207.54C213.54 190.073 209.355 172.608 209.355 172.608C216.907 176.625 224.529 181.246 232.23 185.635C239.932 190.024 247.746 194.175 255.661 197.264C260.708 199.232 266.22 200.269 271.456 199.762C276.693 199.256 281.662 197.21 285.624 193.01C288.451 190.012 290.238 186.849 291.202 183.604C292.135 180.392 292.368 177.018 291.885 173.709Z" fill="#104FC1" stroke="black" stroke-width="0.915" stroke-miterlimit="10" stroke-linecap="round"/>
<path d="M127.548 104.7L132.428 104.349L137.308 104.002L136.429 109.424L135.551 114.847L131.549 109.772L127.548 104.7Z" fill="#F8FAFC" stroke="black" stroke-width="0.915" stroke-miterlimit="10" stroke-linecap="round"/>
<path d="M184.829 181.801L174.234 198.1L163.635 214.399C162.618 210.766 161.595 207.134 160.564 203.505L157.489 192.613L171.159 187.206L184.829 181.801Z" fill="black" stroke="black" stroke-width="0.915" stroke-miterlimit="10" stroke-linecap="round"/>
<path d="M66.8808 82.2674C66.0816 82.9341 65.2478 83.5582 64.3829 84.1371C63.498 84.7322 62.7153 85.4666 62.0649 86.3117C60.8449 87.9953 61.0675 89.9992 61.6348 92.0244C62.2021 94.0496 63.1171 96.09 63.2788 97.8468C63.4516 99.8965 62.9745 101.949 61.9154 103.712C60.8565 105.474 59.4812 107.025 57.8589 108.287C56.6389 109.26 55.1139 109.842 53.5889 110.465C52.0639 111.087 50.6304 111.77 49.5782 112.889C48.5259 114.009 47.9739 115.65 47.6902 117.321C47.4066 118.992 47.3608 120.737 47.2083 122.201C47.1778 122.506 47.0406 124.168 46.885 126.139C46.7295 128.109 46.5526 130.384 46.4397 131.906C46.4028 132.373 46.1903 132.809 45.8452 133.126C45.5001 133.443 45.0478 133.617 44.5792 133.614H44.5304C44.0418 133.609 43.575 133.411 43.2321 133.063C42.8891 132.715 42.698 132.245 42.7004 131.757C42.7004 129.622 42.7157 127.471 42.5967 125.336C42.4993 123.2 42.2063 121.076 41.7214 118.992C41.3946 117.64 40.8672 116.343 40.1567 115.146C39.4423 113.953 38.5554 112.872 37.5246 111.938C36.3869 110.898 35.051 110.056 33.7914 109.135C32.5317 108.214 31.3514 107.219 30.5096 105.874C29.7547 104.632 29.3539 103.207 29.3506 101.754C29.3386 100.301 29.609 98.8606 30.1466 97.5113C30.659 96.2029 31.3422 95.0713 31.7204 93.8849C31.9447 93.2596 32.0376 92.5949 31.9936 91.9321C31.9495 91.2693 31.7693 90.6228 31.4642 90.0327C30.3632 87.7605 28.6369 85.9732 26.816 84.2377C24.9952 82.5023 23.0798 80.8553 21.6005 78.8362C20.5062 77.3841 19.7335 75.7157 19.3338 73.9419C18.9341 72.1681 18.9167 70.3296 19.2825 68.5485C19.9566 65.1142 21.9147 61.8385 24.6688 59.246C26.9789 57.099 29.7122 55.4586 32.6934 54.4301C35.6665 53.371 38.8347 52.9724 41.9776 53.2619C45.9426 53.6523 48.776 55.1895 51.2343 57.3032C53.6926 59.4168 55.7758 62.1161 58.2493 64.8245C59.6706 66.3922 61.644 67.3194 63.5319 68.3289C65.4199 69.3385 67.2285 70.4334 68.3174 72.3275C68.9594 73.4764 69.3141 74.7634 69.3513 76.079C69.4046 77.4149 69.1543 78.7455 68.6193 79.9708C68.417 80.4266 68.1611 80.8566 67.8568 81.2518C67.5641 81.6202 67.2373 81.9602 66.8808 82.2674Z" fill="#61A672" stroke="black" stroke-width="0.915" stroke-miterlimit="10" stroke-linecap="round"/>
<path d="M171.562 242.478H121.731L128.612 178.913L135.496 115.345C135.5 115.323 135.51 115.303 135.526 115.288C135.542 115.273 135.563 115.264 135.585 115.263C135.606 115.261 135.628 115.266 135.646 115.279C135.665 115.291 135.678 115.308 135.685 115.329L153.625 178.903L171.562 242.478Z" fill="#F8FAFC" stroke="black" stroke-width="0.915" stroke-miterlimit="10" stroke-linecap="round"/>
<path d="M169.479 62.1252L171.733 57.6173L173.987 53.1063" stroke="black" stroke-width="1.525" stroke-miterlimit="10" stroke-linecap="round"/>
<path d="M174.292 66.868L178.742 63.4001L183.192 59.9323" stroke="black" stroke-width="1.525" stroke-miterlimit="10" stroke-linecap="round"/>
<path d="M176.244 73.2577L181.106 73.9439L185.971 74.6271" stroke="black" stroke-width="1.525" stroke-miterlimit="10" stroke-linecap="round"/>
<path d="M52.9668 87.2448C53.8718 86.3325 54.5962 85.2573 55.1018 84.0759C55.6198 82.8705 55.8865 81.5722 55.8856 80.2603C55.8778 78.8909 55.5872 77.5379 55.0319 76.2862C54.4766 75.0344 53.6687 73.9109 52.6587 72.9861C50.5282 71.0473 47.7512 69.9729 44.8705 69.9729C41.9899 69.9729 39.2129 71.0473 37.0824 72.9861C36.0719 73.9104 35.2635 75.0338 34.7082 76.2857C34.1528 77.5376 33.8625 78.8908 33.8555 80.2603C33.8567 82.2835 34.4865 84.2563 35.658 85.9059C36.8362 87.5584 38.4524 88.8492 40.3245 89.633L40.4099 93.3174L40.4953 97.0018C40.5006 97.2363 40.5561 97.467 40.6581 97.6783C40.76 97.8896 40.9061 98.0765 41.0865 98.2265C41.2669 98.3766 41.4773 98.4862 41.7037 98.5479C41.93 98.6097 42.1669 98.6223 42.3985 98.5847L48.2881 97.6301L54.1807 96.6754C54.4166 96.6365 54.6411 96.5466 54.8387 96.412C55.0363 96.2774 55.2021 96.1012 55.3247 95.896C55.4472 95.6907 55.5235 95.4611 55.5482 95.2233C55.5729 94.9855 55.5455 94.7452 55.4678 94.5191L54.2112 90.8835L52.9668 87.2448Z" fill="#F8FAFC" stroke="black" stroke-width="0.915" stroke-miterlimit="10" stroke-linecap="round"/>
<path d="M45.6348 91.524L46.0679 94.7205L46.501 97.9199" stroke="black" stroke-width="0.915" stroke-miterlimit="10" stroke-linecap="round"/>
<path d="M49.6045 90.9019L50.0193 93.9702L50.4371 97.0385" stroke="black" stroke-width="0.915" stroke-miterlimit="10" stroke-linecap="round"/>
<path d="M43.4295 80.0498C43.5068 80.74 43.3706 81.4373 43.0391 82.0476C42.9231 82.3021 42.742 82.5215 42.514 82.6836C42.2861 82.8457 42.0194 82.9448 41.7408 82.9708C41.4623 82.9968 41.1819 82.9488 40.9279 82.8317C40.6738 82.7145 40.4552 82.5325 40.2941 82.3038C39.8668 81.7588 39.6054 81.1023 39.541 80.4128C39.4766 79.7232 39.6121 79.0297 39.9312 78.415C40.0472 78.1605 40.2283 77.9411 40.4563 77.779C40.6843 77.6169 40.951 77.5179 41.2295 77.4919C41.508 77.4659 41.7884 77.5139 42.0425 77.631C42.2965 77.7481 42.5151 77.9302 42.6762 78.1588C43.115 78.6972 43.378 79.3572 43.4295 80.0498Z" fill="black" stroke="black" stroke-width="0.915" stroke-miterlimit="10" stroke-linecap="round"/>
<path d="M51.5452 78.8879C51.6663 79.5707 51.5758 80.2741 51.2859 80.904C51.189 81.1705 51.0225 81.4063 50.8038 81.5868C50.585 81.7673 50.3219 81.8859 50.0419 81.9304C49.7618 81.9749 49.4749 81.9437 49.2109 81.8399C48.947 81.7361 48.7157 81.5635 48.5409 81.3401C48.0806 80.8229 47.7785 80.1844 47.6704 79.5004C47.5622 78.8165 47.6527 78.1159 47.9309 77.4819C48.0282 77.2156 48.1949 76.9801 48.4138 76.8C48.6327 76.6198 48.8959 76.5015 49.1759 76.4573C49.456 76.4131 49.7428 76.4446 50.0065 76.5487C50.2703 76.6527 50.5014 76.8254 50.6759 77.0488C51.1477 77.558 51.4512 78.2002 51.5452 78.8879Z" fill="black" stroke="black" stroke-width="0.915" stroke-miterlimit="10" stroke-linecap="round"/>
<path d="M45.192 83.472L44.887 84.8201L44.582 86.1712C44.5367 86.3635 44.5548 86.5653 44.6337 86.7464C44.7125 86.9275 44.8479 87.0782 45.0195 87.176C45.1911 87.2739 45.3898 87.3135 45.5858 87.2891C45.7818 87.2647 45.9647 87.1774 46.107 87.0405C46.224 86.9298 46.3681 86.8519 46.5249 86.8148C46.6824 86.7796 46.8463 86.7859 47.0007 86.8331L47.2325 86.9063L47.4643 86.9764C47.6432 87.029 47.834 87.0257 48.0111 86.9668C48.1881 86.908 48.3429 86.7964 48.4547 86.6471C48.5666 86.4977 48.6301 86.3178 48.6368 86.1313C48.6434 85.9449 48.593 85.7609 48.4921 85.6039L47.6808 84.3839L46.8695 83.1639C46.769 83.019 46.6288 82.9063 46.4658 82.8392C46.3027 82.7721 46.1238 82.7536 45.9504 82.7858C45.7771 82.818 45.6167 82.8996 45.4887 83.0208C45.3606 83.142 45.2703 83.2976 45.2286 83.4689L45.192 83.472Z" fill="black" stroke="black" stroke-width="0.915" stroke-miterlimit="10" stroke-linecap="round"/>
<path d="M110.715 96.5749L114.68 118.291L118.645 140.004L127.106 127.426L135.566 114.847L131.565 109.772L127.563 104.7C123.796 104.077 120.272 102.433 117.376 99.9452C116.11 98.8608 114.963 97.6451 113.954 96.3187L112.334 96.4468L110.715 96.5749Z" fill="#104FC1" stroke="black" stroke-width="0.915" stroke-miterlimit="10" stroke-linecap="round"/>
<path d="M137.309 104.002L136.43 109.424L135.552 114.847L149.829 122.189L164.109 129.53L157.85 110.62L151.592 91.7101C150.638 93.5568 149.464 95.2814 148.096 96.8463C145.742 99.5882 142.17 102.66 137.309 104.002Z" fill="#104FC1" stroke="black" stroke-width="0.915" stroke-miterlimit="10" stroke-linecap="round"/>
<path d="M240.23 173.63L231.089 161.637L221.948 149.645" stroke="black" stroke-width="0.915" stroke-miterlimit="10" stroke-linecap="round"/>
<path d="M193.706 113.661C193.812 113.283 194.006 112.936 194.273 112.648C194.541 112.361 194.872 112.141 195.24 112.005L201.687 109.662L208.135 107.317C208.135 107.317 210.066 106.643 211.881 107.012C213.695 107.381 215.394 108.79 214.931 112.956C214.86 113.591 214.787 114.225 214.72 114.86C214.653 115.494 214.595 116.131 214.543 116.769C214.388 118.715 214.138 121.609 213.811 124.879C213.485 128.148 213.073 131.787 212.591 135.221C212.241 137.719 211.741 140.192 211.094 142.63C210.449 145.069 209.681 147.475 208.794 149.837C208.436 150.726 208.212 151.663 208.129 152.618C208.089 153.485 208.294 154.217 208.922 154.61C209.405 155.127 210.065 155.444 210.77 155.498C211.896 155.547 213.415 154.808 215.004 151.655C215.622 152.317 216.464 152.727 217.368 152.805C218.78 152.863 220.662 151.89 222.525 147.751C222.525 147.751 223.37 148.461 224.755 147.653C226.139 146.845 228.07 144.512 230.245 138.424L241.316 126.181L252.391 113.941C252.391 113.941 246.465 105.706 238.361 98.6122C230.257 91.5179 220 85.5124 211.316 89.9776L202.618 94.0799L193.919 98.1638C193.273 98.4688 192.629 98.7738 191.982 99.0636C191.336 99.3533 190.683 99.6461 190.024 99.9206C189.395 100.185 188.792 100.506 188.222 100.881C187.488 101.366 186.816 101.939 186.224 102.589L186.209 102.608L186.19 102.623C185.603 103.278 185.112 104.013 184.733 104.807C184.354 105.601 184.081 106.442 183.921 107.308C183.616 108.921 183.378 110.4 183.183 111.724C182.988 113.048 182.842 114.222 182.729 115.219C182.616 116.217 182.53 117.08 182.469 117.964C182.408 118.849 182.369 119.727 182.363 120.676C182.357 121.624 182.332 122.628 182.363 123.604C182.382 124.581 182.496 125.553 182.704 126.507C182.918 127.518 183.453 128.432 184.229 129.112C184.615 129.443 185.092 129.65 185.597 129.704C186.102 129.758 186.612 129.658 187.06 129.417C188.045 128.938 188.694 128.069 189.195 127.09C189.64 126.104 190.035 125.096 190.378 124.071C191.028 122.372 191.613 120.648 192.162 118.91C192.711 117.171 193.212 115.412 193.706 113.661Z" fill="#BC7F7F" stroke="black" stroke-width="0.915" stroke-miterlimit="10" stroke-linecap="round"/>
<path d="M237.457 114.073L233.703 126.639L229.951 139.208" stroke="black" stroke-width="0.915" stroke-miterlimit="10" stroke-linecap="round"/>
<path d="M229.402 124.467L225.965 136.109L222.524 147.751" stroke="black" stroke-width="0.915" stroke-miterlimit="10" stroke-linecap="round"/>
<path d="M222.193 127.935C222.193 127.935 220.832 133.425 219.253 139.153C217.673 144.881 215.876 150.801 215.004 151.658" stroke="black" stroke-width="0.915" stroke-miterlimit="10" stroke-linecap="round"/>
<path d="M127.548 173.279L134.554 183.433L141.563 193.586L134.554 199.887L127.548 206.189V189.734V173.279Z" fill="#104FC1" stroke="black" stroke-width="0.915" stroke-miterlimit="10" stroke-linecap="round"/>
<path d="M110.714 222.18C110.714 222.18 106.429 226.779 101.351 231.617C96.2727 236.454 90.3923 241.526 87.2295 242.478" stroke="black" stroke-width="0.915" stroke-miterlimit="10" stroke-linecap="round"/>
<path d="M157.466 158.883C158.437 157.949 159.461 157.072 160.534 156.257C161.598 155.431 162.669 154.641 163.633 153.848C165.932 151.957 168.235 150.069 170.541 148.184C172.847 146.299 175.146 144.408 177.44 142.511C179.939 140.443 182.427 138.363 184.903 136.271C187.38 134.178 189.835 132.06 192.269 129.915C193.529 128.804 194.807 127.56 196.234 126.663C197.662 125.767 199.214 125.214 201.041 125.486C202.539 125.731 203.948 126.362 205.128 127.316C206.32 128.252 207.313 129.417 208.05 130.741C209.407 133.181 210.215 136.127 210.523 139.132C210.833 142.051 210.65 145.002 209.984 147.861C209.858 148.364 209.7 148.849 209.532 149.331C209.364 149.813 209.191 150.295 209.035 150.786C208.783 151.479 208.439 152.136 208.013 152.738C206.951 154.278 205.567 155.569 203.957 156.523C203.085 157.031 202.098 157.306 201.09 157.322C199.565 157.346 197.631 156.733 195.874 154.315C195.438 153.705 195.008 153.116 194.551 152.536L194.307 152.231L193.215 150.853C192.855 150.395 192.406 150.015 191.894 149.737C191.382 149.459 190.819 149.289 190.239 149.237C189.66 149.185 189.075 149.251 188.522 149.433C187.969 149.615 187.459 149.908 187.023 150.295L182.143 154.583L177.263 158.871C176.512 159.534 176.016 160.439 175.862 161.429C175.709 162.419 175.906 163.432 176.421 164.291L177.48 166.051L178.538 167.814C179.125 168.905 179.501 170.097 179.645 171.327C179.847 173.304 179.34 175.704 176.577 177.397C175.554 178.064 174.453 178.604 173.298 179.004C171.401 179.671 169.383 179.917 167.381 179.727C164.17 179.422 160.671 177.559 158.054 174.926C155.437 172.294 153.696 168.881 153.992 165.45C154.106 164.182 154.494 162.954 155.129 161.851C155.767 160.759 156.553 159.76 157.466 158.883Z" fill="#F8FAFC" stroke="black" stroke-width="0.915" stroke-miterlimit="10" stroke-linecap="round"/>
<path d="M193.334 139.272C193.332 139.713 193.178 140.139 192.898 140.479C192.617 140.819 192.227 141.051 191.795 141.136C191.362 141.221 190.914 141.153 190.526 140.945C190.137 140.736 189.833 140.399 189.665 139.992C189.497 139.584 189.476 139.131 189.604 138.71C189.733 138.288 190.003 137.924 190.37 137.679C190.737 137.435 191.177 137.325 191.616 137.368C192.054 137.412 192.464 137.606 192.776 137.918C192.954 138.095 193.094 138.307 193.19 138.539C193.286 138.771 193.335 139.02 193.334 139.272Z" fill="black" stroke="black" stroke-width="0.915" stroke-miterlimit="10" stroke-linecap="round"/>
<path d="M170.837 159.219C170.837 159.662 170.684 160.092 170.404 160.435C170.123 160.778 169.732 161.013 169.298 161.1C168.863 161.187 168.412 161.121 168.02 160.913C167.629 160.704 167.322 160.366 167.152 159.957C166.982 159.548 166.96 159.092 167.088 158.668C167.216 158.243 167.488 157.877 167.856 157.63C168.225 157.384 168.667 157.273 169.108 157.316C169.549 157.359 169.962 157.554 170.275 157.868C170.453 158.045 170.594 158.256 170.691 158.487C170.787 158.719 170.837 158.968 170.837 159.219Z" fill="black" stroke="black" stroke-width="0.915" stroke-miterlimit="10" stroke-linecap="round"/>
<path d="M199.4 125.458L196.796 128.579L194.188 131.696C193.759 132.163 193.474 132.745 193.367 133.37C193.267 133.93 193.365 134.507 193.645 135.002C193.85 135.321 194.123 135.592 194.445 135.794C194.766 135.996 195.129 136.124 195.506 136.17C195.941 136.231 196.383 136.203 196.807 136.087C197.231 135.971 197.626 135.77 197.97 135.496C198.409 135.106 198.854 134.676 199.306 134.215C199.757 133.754 200.221 133.257 200.691 132.736C201.478 131.861 202.218 130.944 202.908 129.991C203.597 129.051 204.18 128.039 204.646 126.971C204.192 126.623 203.696 126.332 203.17 126.105C201.99 125.568 200.692 125.346 199.4 125.458Z" fill="black" stroke="black" stroke-width="0.915" stroke-miterlimit="10" stroke-linecap="round"/>
<path d="M154.422 163.416L157.831 161.961L161.241 160.509C161.585 160.36 161.949 160.265 162.321 160.228C162.692 160.19 163.066 160.221 163.425 160.32C163.75 160.406 164.059 160.544 164.34 160.728C164.61 160.909 164.845 161.137 165.033 161.403C165.324 161.829 165.489 162.329 165.508 162.845C165.532 163.334 165.449 163.822 165.265 164.275C165.08 164.728 164.799 165.135 164.441 165.468C164.124 165.762 163.76 166 163.364 166.173L159.045 168.085L154.727 169.994C154.441 169.365 154.236 168.702 154.117 168.021C153.8 166.487 153.905 164.895 154.422 163.416Z" fill="black" stroke="black" stroke-width="0.915" stroke-miterlimit="10" stroke-linecap="round"/>
<path d="M193.126 125.041L190.826 128.072L188.526 131.101C188.396 131.274 188.232 131.42 188.045 131.53C187.858 131.64 187.65 131.712 187.435 131.741C187.22 131.771 187.002 131.758 186.792 131.703C186.581 131.648 186.384 131.552 186.211 131.421C186.039 131.289 185.894 131.124 185.785 130.936C185.676 130.748 185.606 130.541 185.578 130.325C185.549 130.11 185.564 129.891 185.62 129.681C185.677 129.472 185.774 129.275 185.906 129.103L188.185 126.074L190.481 123.043C190.749 122.696 191.143 122.47 191.578 122.413C192.012 122.355 192.451 122.472 192.799 122.738C193.146 123.005 193.373 123.398 193.431 123.832C193.488 124.266 193.37 124.705 193.104 125.053L193.126 125.041Z" fill="black" stroke="black" stroke-width="0.915" stroke-miterlimit="10" stroke-linecap="round"/>
<path d="M164.679 149.752L161.385 151.655L158.091 153.555C157.903 153.663 157.695 153.734 157.48 153.762C157.264 153.79 157.046 153.775 156.836 153.719C156.626 153.662 156.43 153.564 156.258 153.432C156.086 153.299 155.942 153.133 155.834 152.945C155.726 152.757 155.656 152.549 155.628 152.334C155.6 152.118 155.615 151.9 155.672 151.69C155.728 151.48 155.826 151.284 155.958 151.112C156.091 150.94 156.256 150.796 156.444 150.688L159.738 148.785L163.035 146.885C163.223 146.776 163.431 146.706 163.646 146.678C163.862 146.651 164.08 146.665 164.29 146.722C164.499 146.779 164.696 146.876 164.868 147.009C165.04 147.141 165.184 147.306 165.292 147.495C165.401 147.683 165.471 147.89 165.499 148.106C165.527 148.321 165.512 148.54 165.456 148.75C165.399 148.959 165.302 149.156 165.169 149.328C165.036 149.5 164.871 149.644 164.682 149.752H164.679Z" fill="black" stroke="black" stroke-width="0.915" stroke-miterlimit="10" stroke-linecap="round"/>
<path d="M163.882 153.64L162.708 154.564L161.537 155.489L160.72 153.997L159.905 152.506L161.107 151.813L162.309 151.121L163.096 152.381L163.882 153.64Z" fill="black" stroke="black" stroke-width="0.915" stroke-miterlimit="10" stroke-linecap="round"/>
<path d="M193.513 128.801L192.409 129.78L191.305 130.759L190.563 130.122L189.822 129.484L190.661 128.377L191.5 127.273L192.506 128.036L193.513 128.801Z" fill="black" stroke="black" stroke-width="0.915" stroke-miterlimit="10" stroke-linecap="round"/>
<path d="M152.64 144.6C154.235 145.657 155.945 146.53 157.736 147.202C160.658 148.288 164.327 148.946 167.316 147.235C167.924 146.868 168.398 146.317 168.671 145.662C168.819 145.343 168.896 144.996 168.896 144.644C168.896 144.293 168.819 143.946 168.671 143.627C168.402 143.1 167.835 142.688 167.213 142.34C166.591 141.992 165.91 141.703 165.416 141.425C163.971 140.592 162.485 139.751 161.052 138.839C159.615 137.945 158.255 136.935 156.983 135.819C156.391 135.288 155.747 134.817 155.062 134.413C154.374 134.013 153.641 133.698 152.878 133.474C151.107 132.974 149.243 132.902 147.44 133.263C145.277 133.675 142.791 134.715 140.056 136.801C139.025 137.588 137.992 138.371 136.957 139.15C135.92 139.925 134.877 140.693 133.821 141.443L124.339 148.184L114.856 154.924L125.965 170.967L137.048 187.017L143.185 188.962L148.013 190.487C150.621 191.323 152.844 192.04 154.943 192.385C156.994 192.77 159.108 192.652 161.104 192.04L161.409 191.942C161.543 191.893 161.741 191.823 162.08 191.695C169.683 188.889 173.871 187.12 176.628 185.9C179.385 184.68 180.718 183.924 182.606 183.155C182.634 183.155 182.762 183.091 182.957 182.997C183.211 182.874 183.458 182.739 183.698 182.591C184.144 182.333 184.567 182.036 184.961 181.703C185.332 181.395 185.592 180.974 185.702 180.505C185.77 180.112 185.726 179.709 185.577 179.34C185.505 179.153 185.412 178.976 185.299 178.812C184.918 178.338 184.375 178.021 183.774 177.921C183.157 177.811 182.531 177.762 181.905 177.775C181.599 177.772 181.294 177.785 180.99 177.815C180.685 177.845 180.343 177.894 179.94 177.961C178.074 178.266 176.863 178.629 175.829 178.876C174.85 179.155 173.829 179.25 172.816 179.157C172.602 179.135 172.392 179.108 172.142 179.059C171.891 179.01 171.608 178.943 171.245 178.849C168.363 178.089 165.596 176.805 162.705 175.405C159.813 174.005 156.827 172.486 153.488 171.26C151.757 170.638 150.085 169.862 148.492 168.942C147.199 168.201 146.092 167.472 144.628 166.725C144.019 166.412 143.543 165.892 143.286 165.259C143.028 164.625 143.007 163.92 143.224 163.272L146.07 154.845L148.913 146.418C149.038 146.05 149.235 145.71 149.493 145.418C149.751 145.127 150.063 144.889 150.413 144.719C150.763 144.548 151.143 144.449 151.532 144.427C151.92 144.404 152.309 144.459 152.676 144.588L152.64 144.6Z" fill="#BC7F7F" stroke="black" stroke-width="0.915" stroke-miterlimit="10" stroke-linecap="round"/>
<path d="M147.59 184.708C147.59 184.708 151.174 186.342 155.129 187.904C159.085 189.466 163.422 190.954 164.929 190.649" stroke="black" stroke-width="0.915" stroke-miterlimit="10" stroke-linecap="round"/>
<path d="M152.067 179.62C152.067 179.62 156.069 181.941 160.735 184.055C165.402 186.169 170.7 188.069 173.317 187.224" stroke="black" stroke-width="0.915" stroke-miterlimit="10" stroke-linecap="round"/>
<path d="M217.334 210.944L214.76 209.468L212.183 207.991C202.897 220.528 189.235 229.113 173.911 232.041C174.258 232.57 174.635 233.079 175.04 233.566C176.113 234.862 177.294 236.064 178.572 237.158C185.136 236.323 191.51 234.372 197.417 231.391C204.911 227.539 212.585 221.237 217.334 210.944Z" fill="#FFA170" stroke="black" stroke-width="0.915" stroke-miterlimit="10" stroke-linecap="round"/>
<path d="M265.122 221.488C262.956 223.958 258.656 228.978 254.123 234.889C249.591 240.8 244.83 247.599 241.74 253.628C242.707 253.619 243.672 253.526 244.622 253.351C245.667 253.158 246.693 252.874 247.688 252.5L257.844 238.391L267.998 224.284C267.807 223.985 267.591 223.702 267.351 223.44C266.687 222.704 265.938 222.049 265.122 221.488Z" fill="#FFA170" stroke="black" stroke-width="0.915" stroke-miterlimit="10" stroke-linecap="round"/>
<path d="M265.122 221.488C265.195 221.402 264.094 220.911 262.932 220.429C261.77 219.947 260.547 219.469 260.379 219.408C258.62 218.774 256.808 218.295 254.966 217.974C253.122 217.663 251.252 217.54 249.384 217.608C247.295 217.678 245.209 217.873 243.126 218.038C241.043 218.228 238.952 218.306 236.861 218.27H236.504H236.153C233.894 218.145 231.658 217.747 229.495 217.084C227.331 216.42 225.248 215.515 223.285 214.387L220.312 212.682L217.335 210.974C212.583 221.268 204.912 227.569 197.418 231.409C191.51 234.391 185.137 236.341 178.572 237.177C180.843 239.127 183.362 240.768 186.063 242.057C191.433 244.584 197.313 245.843 203.247 245.735C205.159 245.697 207.066 245.533 208.956 245.244C211.863 244.778 214.814 244.655 217.75 244.878C220.685 245.095 223.555 245.847 226.219 247.099C227.396 247.703 228.518 248.407 229.574 249.203C230.625 249.998 231.728 250.722 232.874 251.372C234.235 252.104 235.676 252.675 237.169 253.074C238.661 253.47 240.2 253.666 241.744 253.656C244.834 247.626 249.595 240.828 254.127 234.917C258.659 229.006 262.957 223.958 265.122 221.488Z" fill="#61A672" stroke="black" stroke-width="0.915" stroke-miterlimit="10" stroke-linecap="round"/>
<path d="M244.931 232.422C244.815 234.478 242.848 236.231 239.764 237.409C236.681 238.586 232.481 239.184 227.89 238.934C223.3 238.684 219.192 237.61 216.261 236.094C213.33 234.578 211.573 232.614 211.686 230.558C211.799 228.503 213.769 226.755 216.856 225.562C219.942 224.37 224.142 223.787 228.732 224.037C233.322 224.288 237.431 225.361 240.362 226.877C243.293 228.393 245.047 230.369 244.931 232.422Z" fill="#FFD70D" stroke="black" stroke-width="0.915" stroke-miterlimit="10" stroke-linecap="round"/>
<path d="M191.998 211.102C192.028 211.407 191.775 211.737 191.342 211.99C190.249 212.548 188.985 212.669 187.807 212.328C187.334 212.164 187.029 211.901 186.999 211.581C186.968 211.261 187.218 210.947 187.651 210.694C188.744 210.136 190.008 210.015 191.186 210.355C191.659 210.52 191.967 210.782 191.998 211.102Z" fill="#FFD70D" stroke="black" stroke-width="0.915" stroke-miterlimit="10" stroke-linecap="round"/>
<path d="M168.793 240.959C165.01 239.967 161.002 240.297 157.432 241.895C156.71 242.245 156.068 242.74 155.547 243.35C155.009 243.947 154.708 244.721 154.699 245.525C154.702 245.758 154.737 245.99 154.803 246.214C154.877 246.46 155 246.688 155.166 246.885C155.776 247.605 156.691 247.779 157.664 247.708C158.587 247.608 159.493 247.389 160.36 247.056C160.704 246.934 161.054 246.832 161.409 246.751C161.837 246.654 162.271 246.589 162.709 246.555C163.306 246.51 163.907 246.522 164.502 246.592C164.949 246.647 165.391 246.734 165.826 246.851C166.756 247.154 167.748 247.222 168.711 247.05C169.552 246.904 170.316 246.473 170.876 245.83C171.764 244.771 171.791 243.716 171.313 242.841C170.743 241.916 169.842 241.243 168.793 240.959Z" fill="#FFD70D" stroke="black" stroke-width="0.915" stroke-miterlimit="10" stroke-linecap="round"/>
<path d="M127.548 222.174H70.2137H12.8828V183.982V145.787H70.2137H127.548V183.982V222.174Z" fill="#C9CEFC" stroke="black" stroke-width="0.915" stroke-miterlimit="10" stroke-linecap="round"/>
<path d="M186.13 223.211C185.44 223.464 184.742 223.708 184.043 223.946C183.345 224.184 182.643 224.419 181.939 224.651C180.618 225.081 178.126 225.871 176.199 227.091C174.271 228.311 172.914 229.89 173.85 231.94L173.875 231.992L173.899 232.044C174.601 233.462 176.159 233.84 177.834 233.801C179.508 233.761 181.298 233.3 182.46 233.035C187.426 231.895 192.183 229.982 196.554 227.365C200.932 224.761 204.88 221.495 208.257 217.681C209.624 216.176 210.867 214.564 211.975 212.859C213.281 210.724 213.997 208.617 212.183 207.979C210.935 207.549 209.584 207.979 208.334 208.727C207.175 209.464 206.084 210.303 205.073 211.234C203.658 212.454 202.252 213.71 200.803 214.918C199.374 216.137 197.881 217.277 196.329 218.334C194.753 219.378 193.096 220.296 191.376 221.079C189.661 221.875 187.88 222.57 186.13 223.211Z" fill="black" stroke="black" stroke-width="0.915" stroke-miterlimit="10" stroke-linecap="round"/>
<path d="M195.505 227.975C195.505 225.16 195.907 222.662 196.636 220.765C197.365 218.868 198.43 217.577 199.772 217.181C199.97 217.12 200.175 217.08 200.382 217.062C200.621 217.036 200.862 217.036 201.102 217.062C201.282 217.064 201.462 217.086 201.638 217.126C201.783 217.159 201.924 217.206 202.059 217.266C202.767 217.619 203.313 218.229 203.584 218.971C203.943 219.895 204.101 220.885 204.045 221.875C204.045 221.875 202.599 223.034 200.809 224.376C199.018 225.718 196.89 227.249 195.505 227.975Z" fill="#FFD70D" stroke="black" stroke-width="0.915" stroke-miterlimit="10" stroke-linecap="round"/>
<path d="M193.694 228.737C193.694 228.737 192.992 228.127 191.971 227.31C190.949 226.493 189.616 225.48 188.347 224.644C187.078 223.809 185.425 222.735 183.788 222.061C182.15 221.387 180.494 221.1 179.094 221.756C178.787 221.909 178.5 222.098 178.24 222.32C177.759 222.711 177.403 223.234 177.215 223.824C177.018 224.617 177.127 225.456 177.52 226.172C177.923 226.941 178.399 227.669 178.941 228.347C179.831 229.509 180.847 230.569 181.97 231.507C182.885 232.285 183.562 232.727 183.574 232.751C184.443 232.547 185.38 232.294 186.368 231.977C187.356 231.659 188.393 231.281 189.47 230.83C190.266 230.491 191.019 230.144 191.721 229.79C192.422 229.436 193.084 229.091 193.694 228.737Z" fill="#FFD70D" stroke="black" stroke-width="0.915" stroke-miterlimit="10" stroke-linecap="round"/>
<path d="M43.002 222.174L47.333 208.952L51.6609 195.727H70.1988H88.7398L93.083 208.952L97.4292 222.174" stroke="black" stroke-width="0.915" stroke-miterlimit="10" stroke-linecap="round"/>
<path d="M88.2975 190.307H52.1336C51.6685 190.307 51.2224 190.123 50.8935 189.794C50.5647 189.465 50.3799 189.019 50.3799 188.554C50.3795 188.323 50.4246 188.095 50.5125 187.882C50.6005 187.668 50.7296 187.475 50.8925 187.312C51.0554 187.148 51.2488 187.019 51.4618 186.931C51.6748 186.842 51.9031 186.797 52.1336 186.797H88.2975C88.5281 186.797 88.7563 186.842 88.9693 186.931C89.1823 187.019 89.3758 187.148 89.5387 187.312C89.7015 187.475 89.8307 187.668 89.9186 187.882C90.0066 188.095 90.0516 188.323 90.0512 188.554C90.0512 189.019 89.8665 189.465 89.5376 189.794C89.2087 190.123 88.7626 190.307 88.2975 190.307Z" stroke="black" stroke-width="0.915" stroke-miterlimit="10" stroke-linecap="round"/>
<path d="M76.7839 242.478H70.2142H63.6445V232.327V222.174H70.2142H76.7839V232.327V242.478Z" fill="#C9CEFC" stroke="black" stroke-width="0.915" stroke-miterlimit="10" stroke-linecap="round"/>
<path d="M41.9561 242.478H70.2143H98.4756" fill="#C9CEFC"/>
<path d="M41.9561 242.478H70.2143H98.4756" stroke="black" stroke-width="0.915" stroke-miterlimit="10" stroke-linecap="round"/>
<path d="M155.477 74.7857L146.977 73.95L138.47 73.1021C138.38 75.4016 138.594 77.7029 139.108 79.9463C140.193 84.7984 142.834 89.1629 146.629 92.375C147.698 93.2841 148.846 94.0956 150.06 94.7997C151.19 93.2824 152.162 91.6534 152.961 89.9381C154.483 86.6594 155.377 83.1244 155.596 79.5162C155.69 77.9388 155.65 76.3563 155.477 74.7857Z" fill="black" stroke="black" stroke-width="0.915" stroke-miterlimit="10" stroke-linecap="round"/>
<path d="M144.247 90.0296C143.65 89.3524 143.095 88.6394 142.585 87.8946C141.852 86.8237 141.21 85.6933 140.666 84.5152C140.41 83.9571 140.135 83.2952 139.87 82.5571C139.578 81.7362 139.334 80.8991 139.138 80.05C139.004 79.4766 138.882 78.8575 138.778 78.1956C138.674 77.5338 138.586 76.8262 138.531 76.0789C138.491 75.5391 138.47 75.0236 138.461 74.5265C138.452 74.0293 138.461 73.5566 138.461 73.1082L123.955 71.6686L109.449 70.2321C109.258 70.7567 109.08 71.2904 108.916 71.8333C108.754 72.3762 108.611 72.9283 108.473 73.4895C106.823 80.5228 107.924 87.5012 111.041 93.0949C114.159 98.6886 119.292 102.901 125.697 104.404C130.196 105.45 134.91 105.066 139.181 103.306C143.516 101.518 147.279 98.5763 150.06 94.7998C149.301 94.3531 148.566 93.8675 147.858 93.345C147.227 92.8753 146.696 92.43 146.26 92.0487C145.772 91.6217 145.345 91.2161 145.021 90.8684C144.698 90.5207 144.424 90.2309 144.247 90.0296Z" fill="#BC7F7F" stroke="black" stroke-width="0.915" stroke-miterlimit="10" stroke-linecap="round"/>
<path d="M137.363 88.3001C137.089 89.0347 136.568 89.6513 135.89 90.0449C135.212 90.4384 134.418 90.5845 133.644 90.4582C132.87 90.332 132.164 89.9411 131.645 89.3524C131.127 88.7637 130.83 88.0135 130.803 87.2297C130.776 86.4459 131.022 85.6772 131.498 85.0544C131.975 84.4316 132.653 83.9935 133.417 83.8146C134.18 83.6358 134.982 83.7273 135.686 84.0736C136.389 84.4199 136.951 84.9995 137.275 85.7137C137.459 86.1178 137.561 86.5543 137.577 86.998C137.592 87.4418 137.519 87.8843 137.363 88.3001Z" fill="#C71E07" stroke="black" stroke-width="0.915" stroke-miterlimit="10" stroke-linecap="round"/>
<path d="M119.539 93.0094C119.36 93.7706 118.923 94.4462 118.302 94.9213C117.681 95.3964 116.915 95.6414 116.133 95.6147C115.352 95.5881 114.604 95.2913 114.017 94.775C113.43 94.2586 113.04 93.5547 112.914 92.7832C112.787 92.0116 112.932 91.2201 113.324 90.5436C113.716 89.8671 114.33 89.3473 115.062 89.0729C115.795 88.7985 116.599 88.7864 117.339 89.0387C118.079 89.291 118.709 89.7921 119.121 90.4566C119.355 90.8337 119.512 91.2533 119.584 91.6914C119.656 92.1294 119.64 92.5773 119.539 93.0094Z" fill="#C71E07" stroke="black" stroke-width="0.915" stroke-miterlimit="10" stroke-linecap="round"/>
<path d="M116.303 85.0397C116.262 85.2124 116.187 85.3751 116.083 85.5181C115.978 85.6612 115.845 85.7817 115.693 85.8724C115.543 85.9652 115.377 86.0276 115.203 86.0558C115.029 86.0841 114.852 86.0777 114.68 86.0371C114.508 85.9965 114.345 85.9216 114.202 85.8168C114.059 85.712 113.938 85.5795 113.848 85.4271C113.731 85.24 113.663 85.027 113.648 84.8071C113.634 84.5873 113.674 84.3672 113.765 84.1665C113.856 83.9659 113.995 83.7908 114.17 83.6568C114.345 83.5228 114.551 83.4341 114.768 83.3985C114.986 83.3628 115.208 83.3815 115.417 83.4526C115.626 83.5238 115.813 83.6454 115.964 83.8065C116.114 83.9677 116.222 84.1634 116.279 84.3764C116.335 84.5894 116.338 84.8131 116.288 85.0275L116.303 85.0397Z" fill="#1C1917"/>
<path d="M130.114 82.6028C130.031 82.9487 129.815 83.2478 129.513 83.4352C129.211 83.6226 128.847 83.683 128.5 83.6032C128.153 83.5181 127.853 83.2988 127.667 82.9932C127.551 82.8063 127.482 82.5934 127.468 82.3736C127.453 82.1538 127.493 81.9337 127.584 81.733C127.675 81.5323 127.814 81.3571 127.989 81.223C128.163 81.0888 128.368 80.9999 128.586 80.964C128.803 80.9282 129.026 80.9465 129.235 81.0174C129.443 81.0883 129.631 81.2095 129.782 81.3704C129.932 81.5313 130.041 81.7268 130.097 81.9397C130.154 82.1526 130.158 82.3761 130.107 82.5906L130.114 82.6028Z" fill="#1C1917"/>
<path d="M115.593 77.2683L123.071 76.0666L130.55 74.8679" stroke="black" stroke-width="0.915" stroke-miterlimit="10" stroke-linecap="round"/>
<path d="M119.414 76.6553L120.174 82.9596L120.93 89.267L121.811 89.0901L122.69 88.9102" stroke="black" stroke-width="0.915" stroke-miterlimit="10" stroke-linecap="round"/>
<path d="M137.662 53.4509C131.766 52.0662 125.819 53.2221 120.796 56.2416C115.529 59.4687 111.53 64.405 109.465 70.2259L132.471 72.5042L155.477 74.7856C154.958 69.7821 153 65.0362 149.841 61.1216C146.742 57.2869 142.459 54.589 137.662 53.4509Z" fill="#FFA170" stroke="black" stroke-width="0.915" stroke-miterlimit="10" stroke-linecap="round"/>
<path d="M118.2 71.0921C118.087 73.5527 117.237 75.9225 115.76 77.8936C114.352 79.777 112.366 81.1472 110.105 81.7945C109.261 82.0309 108.389 82.154 107.513 82.1605C104.713 82.1786 102.017 81.1066 99.9943 79.1715C98.5638 77.7992 97.5905 76.0198 97.2066 74.075C97.0378 73.2136 96.9886 72.333 97.0602 71.4581C97.1299 70.5844 97.3261 69.7255 97.6427 68.9083C98.3585 67.1293 99.5524 65.5829 101.092 64.44C102.651 63.2932 104.539 62.6375 106.509 62.9303C107.688 63.1192 108.799 63.604 109.739 64.3394C110.359 64.8165 110.917 65.3699 111.398 65.9864C111.17 66.3931 110.945 66.815 110.721 67.2521C110.495 67.6974 110.276 68.1671 110.062 68.6643C109.949 68.9327 109.84 69.198 109.739 69.4573C109.638 69.7165 109.544 69.9727 109.452 70.2259L113.826 70.659L118.2 71.0921Z" fill="black" stroke="black" stroke-width="0.915" stroke-miterlimit="10" stroke-linecap="round"/>
<path d="M113.448 62.8693L133.593 65.3154L153.739 67.7584" stroke="black" stroke-width="0.915" stroke-miterlimit="10" stroke-linecap="round"/>
<path d="M119.541 63.6074L118.669 67.3284L117.797 71.0525" stroke="black" stroke-width="0.915" stroke-miterlimit="10" stroke-linecap="round"/>
<path d="M127.49 64.6292L126.663 68.1458L125.84 71.6624" stroke="black" stroke-width="0.915" stroke-miterlimit="10" stroke-linecap="round"/>
<path d="M137.189 65.901L136.378 69.3567L135.566 72.8123" stroke="black" stroke-width="0.915" stroke-miterlimit="10" stroke-linecap="round"/>
<path d="M147.093 67.0935L146.327 70.3631L145.559 73.6297" stroke="black" stroke-width="0.915" stroke-miterlimit="10" stroke-linecap="round"/>
<path d="M133.815 53.0483C136.481 54.0046 138.936 55.4669 141.047 57.3549C142.412 58.5794 143.617 59.971 144.634 61.4968C145.429 62.6881 146.108 63.9537 146.659 65.2758C147.183 66.5154 147.592 67.8009 147.879 69.1157C148.095 70.1069 148.242 71.1117 148.321 72.123L151.698 72.1566L155.077 72.1871C154.992 71.7631 154.876 71.2507 154.717 70.6621C154.558 70.0734 154.363 69.4207 154.107 68.7162C153.303 66.46 152.191 64.326 150.801 62.3752C150.071 61.3405 149.254 60.3692 148.361 59.4716C147.388 58.5068 146.333 57.6291 145.207 56.8486C144.582 56.4107 143.932 56.0085 143.261 55.6439C141.56 54.7262 139.743 54.041 137.86 53.6065C136.532 53.2959 135.178 53.109 133.815 53.0483Z" fill="#C9CEFC" stroke="black" stroke-width="0.915" stroke-miterlimit="10" stroke-linecap="round"/>
<path d="M131.824 94.1379C132.28 95.4135 132.27 96.8093 131.796 98.0785C131.598 98.6544 131.271 99.1776 130.841 99.6083C130.41 100.039 129.887 100.366 129.311 100.564C128.735 100.763 128.121 100.828 127.517 100.753C126.912 100.679 126.333 100.469 125.822 100.137C124.677 99.4164 123.813 98.3261 123.372 97.047C122.932 95.7679 122.942 94.3767 123.4 93.1039C123.598 92.5279 123.925 92.0046 124.356 91.5739C124.786 91.1431 125.31 90.8162 125.886 90.6181C126.462 90.4199 127.075 90.3556 127.68 90.4301C128.284 90.5047 128.864 90.7161 129.375 91.0482C130.531 91.7558 131.399 92.8506 131.824 94.1379Z" fill="black" stroke="black" stroke-width="0.915" stroke-miterlimit="10" stroke-linecap="round"/>
<path d="M131.823 94.138C131.787 94.0282 131.744 93.9214 131.701 93.8177C131.659 93.714 131.613 93.6103 131.564 93.5127C131.43 93.4732 131.294 93.4427 131.156 93.4212C131.014 93.3992 130.871 93.388 130.729 93.3877C130.289 93.3923 129.856 93.4911 129.458 93.6774C129.061 93.8636 128.708 94.133 128.423 94.4674C127.796 95.1921 127.456 96.1204 127.465 97.0782C127.461 97.8102 127.658 98.5294 128.032 99.1583C128.377 99.7379 128.885 100.203 129.493 100.494C130.037 100.263 130.525 99.9209 130.928 99.489C131.33 99.0571 131.638 98.5454 131.83 97.9871C132.271 96.7417 132.269 95.382 131.823 94.138Z" fill="#C71E07" stroke="black" stroke-width="0.915" stroke-miterlimit="10" stroke-linecap="round"/>
<path d="M156.118 94.9522H146.705C145.659 94.9513 144.656 94.5352 143.917 93.7951C143.177 93.0551 142.762 92.0517 142.762 91.0055V76.2526C142.762 75.2064 143.177 74.203 143.917 73.4629C144.656 72.7229 145.659 72.3067 146.705 72.3059H156.118C156.636 72.3059 157.149 72.408 157.628 72.6063C158.107 72.8047 158.542 73.0954 158.908 73.4619C159.275 73.8284 159.566 74.2634 159.764 74.7423C159.962 75.2211 160.064 75.7343 160.064 76.2526V91.0055C160.064 92.0522 159.649 93.0561 158.908 93.7962C158.168 94.5364 157.164 94.9522 156.118 94.9522Z" fill="#C9CEFC" stroke="black" stroke-width="0.915" stroke-miterlimit="10" stroke-linecap="round"/>
<path d="M153.184 89.8831H149.643C149.265 89.8835 148.892 89.8095 148.543 89.6655C148.195 89.5214 147.878 89.3101 147.611 89.0435C147.344 88.777 147.133 88.4604 146.988 88.112C146.844 87.7636 146.77 87.3902 146.77 87.013V80.2451C146.77 79.8679 146.844 79.4944 146.988 79.146C147.133 78.7976 147.344 78.4811 147.611 78.2145C147.878 77.948 148.195 77.7367 148.543 77.5926C148.892 77.4485 149.265 77.3746 149.643 77.375H153.184C153.561 77.3742 153.934 77.4479 154.283 77.5918C154.632 77.7358 154.948 77.9472 155.215 78.2138C155.482 78.4805 155.693 78.7972 155.837 79.1458C155.981 79.4944 156.055 79.8679 156.054 80.2451V87.013C156.055 87.3901 155.981 87.7637 155.837 88.1123C155.693 88.4609 155.482 88.7776 155.215 89.0442C154.948 89.3109 154.632 89.5223 154.283 89.6662C153.934 89.8102 153.561 89.8839 153.184 89.8831Z" fill="#C9CEFC" stroke="black" stroke-width="0.915" stroke-miterlimit="10" stroke-linecap="round"/>
<path d="M110.696 222.198H117.626H124.555C124.555 222.198 124.281 224.187 123.79 227.716C123.299 231.245 122.591 236.323 121.731 242.502H87.2295C88.0103 242.118 88.9497 241.621 89.9989 240.992C91.1761 240.29 92.3154 239.525 93.4118 238.702C94.0218 238.238 94.6105 237.762 95.2998 237.162C95.9891 236.561 96.7912 235.835 97.8496 234.874C98.4962 234.288 99.1916 233.654 99.948 232.959C100.704 232.263 101.522 231.498 102.409 230.647C103.019 230.076 103.529 229.57 103.934 229.167C104.34 228.765 104.645 228.466 104.797 228.317C106.39 226.737 107.847 225.212 108.939 224.083C110.031 222.955 110.696 222.198 110.696 222.198Z" fill="black" stroke="black" stroke-width="0.915" stroke-miterlimit="10" stroke-linecap="round"/>
</svg>
