<svg width="305" height="305" viewBox="0 0 305 305" fill="none" xmlns="http://www.w3.org/2000/svg">
<path d="M189.594 120.307C188.09 120.002 186.281 119.655 184.207 119.334C182.133 119.014 179.794 118.724 177.235 118.502C173.313 118.169 169.875 118.099 167.002 118.142C164.129 118.185 161.817 118.337 160.158 118.447C150.962 119.057 140.199 120.972 131.345 122.836C122.491 124.699 115.552 126.496 114.006 126.917C112.495 146.744 110.986 166.569 109.479 186.392C107.973 206.215 106.464 226.04 104.953 245.867L157.251 246.062L209.553 246.257C206.226 225.279 202.9 204.295 199.573 183.305C196.247 162.315 192.92 141.316 189.594 120.307Z" fill="#104FC1" stroke="black" stroke-width="0.915" stroke-miterlimit="10" stroke-linecap="round"/>
<path d="M189.594 120.307C190.503 126.373 191.436 132.468 192.394 138.592C193.351 144.716 194.338 150.87 195.352 157.054C196.023 161.159 196.702 165.248 197.39 169.321C198.077 173.394 198.77 177.451 199.47 181.493C203.819 183.534 207.595 185.318 210.755 186.812C213.914 188.307 216.425 189.512 218.264 190.393C222.198 192.278 224.998 193.632 227.46 194.532C229.754 195.414 232.182 195.896 234.639 195.956C237.378 196.03 240.111 195.681 242.743 194.922C244.117 194.535 245.45 194.015 246.723 193.37C249.359 191.996 251.733 190.169 253.738 187.975C255.51 186.005 257.046 183.835 258.313 181.509C261.646 175.537 264.883 169.517 268.025 163.449C271.166 157.382 274.18 151.248 277.068 145.049C278.257 142.49 279.422 139.971 280.728 137.537C282.02 135.068 283.531 132.721 285.242 130.522C287.681 127.368 289.916 124.061 291.933 120.621C293.998 117.19 295.959 113.689 298.015 110.306C298.489 109.558 298.873 108.758 299.162 107.921C299.561 106.843 299.59 105.663 299.244 104.566C299.099 104.154 298.893 103.765 298.634 103.413C298.427 103.142 298.195 102.889 297.942 102.66C298.488 101.979 298.979 101.256 299.412 100.497C300.043 99.3812 300.608 98.0148 300.495 96.8375C300.465 96.5255 300.397 96.2183 300.294 95.9225C300.251 95.7977 300.201 95.6755 300.144 95.5565C299.885 95.0679 299.511 94.6494 299.055 94.3365C298.753 94.1238 298.425 93.9506 298.079 93.821C298.695 92.9515 299.092 91.9459 299.235 90.89C299.369 90.0082 299.176 89.108 298.692 88.3585C298.579 88.1925 298.449 88.0382 298.305 87.8979C298.079 87.6712 297.808 87.4945 297.509 87.3794C296.713 87.0744 295.712 87.2696 294.685 87.8796C293.478 88.6485 292.456 89.673 291.689 90.8808C291.644 90.4711 291.541 90.0697 291.384 89.6883C291.125 89.0402 290.657 88.4971 290.055 88.145C289.935 88.0762 289.811 88.016 289.683 87.965C289.487 87.8885 289.282 87.8392 289.073 87.8186C288.438 87.7861 287.811 87.9724 287.297 88.3463C286.838 88.6643 286.417 89.0348 286.044 89.4504C285.239 90.28 283.65 92.1313 281.515 94.7482C279.38 97.3651 276.635 100.76 273.557 104.685C273.091 105.295 271.935 106.802 270.76 108.092C269.586 109.382 268.397 110.453 267.866 110.2C267.719 110.126 267.586 110.028 267.472 109.91C267.418 109.855 267.368 109.795 267.323 109.733C267.184 109.514 267.097 109.267 267.067 109.01C267.035 108.752 267.053 108.49 267.122 108.238L268.494 102.992L269.867 97.7494C270.031 97.1304 270.126 96.4952 270.15 95.8554C270.178 94.9007 270.007 93.8332 269.235 93.2751C269.1 93.1845 268.956 93.1078 268.805 93.0463C268.611 92.968 268.405 92.9207 268.195 92.906C267.204 92.845 266.195 93.6716 265.054 95.2576C263.913 96.8436 262.635 99.186 261.11 102.157C259.643 105.015 258.545 107.159 257.728 108.842C257.082 110.118 256.523 111.437 256.056 112.789C255.52 114.483 255.09 116.208 254.769 117.956C254.355 120.226 254.123 122.526 254.074 124.833L245.686 137.082L237.296 149.334C234.959 147.964 232.602 146.553 230.223 145.104C227.844 143.654 225.445 142.159 223.028 140.62C218.291 137.607 215.043 135.176 211.938 132.913C208.676 130.466 205.265 128.225 201.724 126.203C199.226 124.794 196.902 123.61 194.846 122.634C192.79 121.658 191.015 120.893 189.594 120.307Z" fill="#BC7F7F" stroke="black" stroke-width="0.915" stroke-miterlimit="10" stroke-linecap="round"/>
<path d="M291.69 90.89L285.971 99.2104L280.249 107.534" stroke="black" stroke-width="0.915" stroke-miterlimit="10" stroke-linecap="round"/>
<path d="M298.055 93.8392L291.687 102.556L285.318 111.273" stroke="black" stroke-width="0.915" stroke-miterlimit="10" stroke-linecap="round"/>
<path d="M297.917 102.684L293.979 108.138L290.045 113.588" stroke="black" stroke-width="0.915" stroke-miterlimit="10" stroke-linecap="round"/>
<path d="M185.983 109.251C185.805 109.251 185.63 109.207 185.474 109.123C185.312 109.037 185.176 108.909 185.08 108.754C183.682 106.545 182.555 104.175 181.725 101.696C180.923 99.2782 180.432 96.7682 180.264 94.2265C180.142 92.3965 179.959 89.8071 180.383 87.059C180.807 84.311 181.795 81.4196 184.019 79.0223C184.622 78.3562 185.291 77.7533 186.016 77.2228C187.227 76.3328 188.601 75.6912 190.061 75.3348C190.574 75.2012 191.096 75.0993 191.622 75.0298C192.405 74.9334 193.197 74.9334 193.98 75.0298C194.826 73.2749 195.871 71.6231 197.094 70.1071C197.955 69.0432 198.871 68.0251 199.839 67.0571C201.578 65.2798 203.499 63.6902 205.57 62.3144C207.69 60.9146 209.948 59.7342 212.307 58.7916C212.439 58.7313 212.581 58.6982 212.726 58.6946C212.87 58.6909 213.014 58.7166 213.149 58.7702C213.283 58.8238 213.405 58.9041 213.507 59.0063C213.61 59.1085 213.69 59.2305 213.744 59.3647C213.798 59.499 213.824 59.6428 213.82 59.7874C213.817 59.932 213.784 60.0743 213.724 60.2059C213.663 60.3374 213.577 60.4553 213.47 60.5525C213.363 60.6496 213.237 60.724 213.1 60.7711C210.879 61.6603 208.754 62.7721 206.756 64.0895C204.801 65.384 202.989 66.8818 201.349 68.5577C200.491 69.4152 199.677 70.315 198.909 71.2539C197.818 72.5818 196.875 74.0249 196.097 75.5575L196.374 75.6734L196.655 75.8045C198.253 76.6023 199.581 77.8529 200.473 79.4005C201.351 80.8482 201.725 82.5462 201.535 84.2286C201.434 85.0811 201.165 85.9051 200.745 86.6534C200.368 87.297 199.827 87.8287 199.177 88.1936C198.4 88.6139 197.517 88.7973 196.637 88.7213C195.74 88.6561 194.881 88.3389 194.157 87.8063C193.05 86.9797 192.553 85.7658 192.342 84.5611C192.189 83.5138 192.162 82.4519 192.263 81.3982C192.315 80.6521 192.417 79.9103 192.568 79.1778C192.715 78.4724 192.905 77.7767 193.138 77.0947C192.635 77.0807 192.132 77.1134 191.635 77.1923C191.198 77.2594 190.832 77.3478 190.57 77.4119C189.372 77.7062 188.245 78.236 187.255 78.9704C186.653 79.4144 186.098 79.9171 185.596 80.471C183.686 82.5328 182.832 85.107 182.485 87.5775C182.137 90.048 182.295 92.424 182.405 94.0801C182.563 96.4466 183.021 98.7834 183.769 101.034C184.542 103.344 185.591 105.553 186.892 107.613C186.981 107.753 187.036 107.912 187.052 108.077C187.069 108.242 187.047 108.409 186.987 108.564C186.928 108.719 186.833 108.858 186.711 108.97C186.588 109.081 186.441 109.163 186.282 109.208C186.185 109.237 186.084 109.251 185.983 109.251ZM195.249 77.5308C195.018 78.1674 194.83 78.8185 194.685 79.4798C194.531 80.1625 194.429 80.8558 194.38 81.5538C194.305 82.3369 194.305 83.1253 194.38 83.9084C194.489 84.7807 194.77 85.6286 195.41 86.1074C195.782 86.3725 196.216 86.5384 196.67 86.5893C197.189 86.6774 197.723 86.5741 198.171 86.2987C198.62 86.0233 198.954 85.5945 199.11 85.0918C199.248 84.7208 199.341 84.3349 199.388 83.9419C199.515 82.7049 199.223 81.461 198.558 80.41C197.876 79.2614 196.879 78.3321 195.685 77.7321L195.453 77.6254C195.401 77.5827 195.325 77.5491 195.249 77.5217V77.5308Z" fill="#FFA170" stroke="black" stroke-width="0.915" stroke-miterlimit="10" stroke-linecap="round"/>
<path d="M219.495 105.475C219.494 106.538 219.125 107.567 218.451 108.388C217.776 109.209 216.837 109.771 215.795 109.977C214.753 110.184 213.671 110.023 212.734 109.521C211.798 109.02 211.064 108.209 210.657 107.228C210.251 106.246 210.198 105.153 210.507 104.137C210.816 103.12 211.467 102.242 212.351 101.652C213.235 101.062 214.296 100.796 215.353 100.901C216.41 101.005 217.399 101.473 218.15 102.224C218.578 102.65 218.917 103.157 219.148 103.715C219.379 104.273 219.497 104.871 219.495 105.475Z" fill="#61A672" stroke="black" stroke-width="0.915" stroke-miterlimit="10" stroke-linecap="round"/>
<path d="M105.606 77.8847L99.7527 79.2206L93.8998 80.5565L97.0931 85.6408L100.286 90.7252L95.1991 87.5318L90.1147 84.3385L88.7788 90.1914L87.4429 96.0444L86.107 90.1914L84.7711 84.3385L79.6867 87.5318L74.6024 90.7252L77.7958 85.6408L80.9891 80.5565L75.1362 79.2206L69.2832 77.8847L75.1362 76.5488L80.9891 75.2129L77.7958 70.1285L74.6024 65.0411L79.6867 68.2345L84.7711 71.4278L86.107 65.5749L87.4429 59.7219L88.7788 65.5749L90.1147 71.4278L95.1991 68.2345L100.286 65.0411L97.0931 70.1285L93.8998 75.2129L99.7527 76.5488L105.606 77.8847Z" fill="#C9CEFC" stroke="black" stroke-width="0.915" stroke-miterlimit="10" stroke-linecap="round"/>
<path d="M82.3167 116.51C81.36 116.508 80.4398 116.877 79.7486 117.538C79.4743 117.221 79.1366 116.966 78.7573 116.788C78.2043 116.532 77.5863 116.452 76.9865 116.559C76.3868 116.665 75.8339 116.952 75.4023 117.382C75.0613 117.722 74.8078 118.14 74.6637 118.6C74.5196 119.059 74.4892 119.547 74.5749 120.021C74.6607 120.494 74.8602 120.94 75.1562 121.32C75.4523 121.7 75.836 122.002 76.2746 122.201C76.0714 122.614 75.967 123.068 75.9696 123.528C75.9707 124.281 76.2569 125.006 76.7705 125.556C77.2842 126.107 77.9873 126.443 78.7385 126.496C79.4896 126.549 80.2331 126.316 80.8194 125.844C81.4057 125.371 81.7913 124.694 81.8988 123.949L82.1154 123.97H82.335C83.3251 123.97 84.2746 123.577 84.9747 122.877C85.6748 122.177 86.0682 121.227 86.0682 120.237C86.0682 119.247 85.6748 118.297 84.9747 117.597C84.2746 116.897 83.3251 116.504 82.335 116.504L82.3167 116.51Z" fill="#FFD70D" stroke="black" stroke-width="0.915" stroke-miterlimit="10" stroke-linecap="round"/>
<path d="M214.109 148.306C213.889 147.856 213.558 147.469 213.148 147.181C212.739 146.892 212.263 146.712 211.765 146.656C211.267 146.601 210.762 146.671 210.299 146.862C209.836 147.053 209.428 147.358 209.113 147.748C208.852 148.075 208.661 148.453 208.552 148.858C207.644 148.572 206.661 148.647 205.807 149.069C204.917 149.505 204.238 150.278 203.917 151.216C203.597 152.154 203.662 153.181 204.099 154.071C204.536 154.96 205.308 155.64 206.247 155.961C207.185 156.281 208.211 156.215 209.101 155.779L209.293 155.675L209.479 155.562C209.705 155.899 209.996 156.186 210.337 156.406C210.677 156.627 211.058 156.775 211.458 156.843C211.857 156.911 212.266 156.896 212.66 156.801C213.054 156.705 213.424 156.53 213.748 156.286C214.072 156.043 214.342 155.735 214.543 155.384C214.744 155.032 214.872 154.643 214.917 154.24C214.963 153.837 214.926 153.43 214.808 153.042C214.691 152.654 214.496 152.294 214.234 151.984C214.092 151.81 213.929 151.653 213.749 151.518C214.105 151.08 214.331 150.552 214.402 149.993C214.473 149.414 214.371 148.827 214.109 148.306Z" fill="#FFD70D" stroke="black" stroke-width="0.915" stroke-miterlimit="10" stroke-linecap="round"/>
<path d="M53.4712 150.649C59.2662 156.483 64.0822 161.845 67.4677 165.746C70.8532 169.647 72.7899 172.096 72.793 172.096C77.5693 165.411 81.943 159.405 85.8409 154.101C89.7388 148.797 93.1151 144.201 95.9059 140.327C97.1533 138.589 98.9101 136.112 101.375 133.73C104.112 131.016 107.426 128.954 111.07 127.697C111.68 127.493 112.232 127.334 112.73 127.206C113.227 127.078 113.66 126.984 114.014 126.901C113.259 136.924 112.508 146.945 111.76 156.965L109.494 187.044L99.3707 198.656L89.2477 210.264C87.6822 212.065 85.8515 213.617 83.8187 214.866C81.7903 216.118 79.5728 217.032 77.2521 217.575C76.5506 217.736 75.8216 217.88 75.0713 217.968C74.2983 218.068 73.5204 218.128 72.7411 218.145C62.85 218.374 55.838 212.878 50.2077 205.546C44.5774 198.213 40.3257 189.042 35.952 181.923L22.837 160.573L9.72201 139.223C9.34381 138.613 8.98086 137.97 8.60876 137.335C8.23666 136.701 7.85237 136.082 7.43147 135.505C6.57356 134.364 5.96279 133.056 5.63806 131.665C5.40322 130.476 5.54046 129.433 6.09556 128.701C6.20587 128.556 6.33167 128.424 6.47071 128.307C6.64388 128.163 6.83323 128.039 7.03496 127.938C5.93325 126.55 5.13148 124.949 4.68037 123.235C4.35707 121.811 4.50652 120.6 5.15617 119.828C5.30349 119.652 5.47616 119.497 5.66857 119.371C5.93069 119.201 6.21638 119.07 6.51647 118.984C5.67938 117.755 5.08703 116.377 4.77187 114.924C4.55532 113.722 4.71697 112.731 5.28427 112.118C5.47462 111.92 5.7028 111.762 5.95527 111.654C6.06572 111.604 6.18125 111.565 6.29991 111.539C6.40921 111.513 6.5204 111.497 6.63236 111.49C6.89883 111.469 7.16691 111.486 7.42842 111.542C7.87981 111.642 8.54471 112.115 9.32246 112.902C10.2734 113.897 11.1291 114.98 11.8784 116.135C12.1068 115.796 12.3785 115.488 12.6866 115.22C13.0362 114.918 13.4555 114.709 13.9066 114.61C14.8918 114.396 15.8647 114.82 16.9139 115.662C17.9631 116.504 19.0855 117.761 20.3726 119.212C21.8976 120.954 23.5019 122.659 25.0696 124.379C26.6373 126.099 28.1867 127.838 29.6446 129.646C30.4695 130.637 31.3515 131.579 32.2859 132.468C33.8109 133.91 35.7446 135.42 37.3794 135.682C37.6076 135.725 37.84 135.74 38.0718 135.728C38.4009 135.723 38.7205 135.617 38.9868 135.423C39.1831 135.259 39.336 135.05 39.4321 134.813C39.4956 134.66 39.5427 134.5 39.5724 134.337C39.7859 133.288 38.8648 131.775 37.721 129.921C36.5773 128.066 35.2078 125.874 34.5216 123.458C34.343 122.878 34.2405 122.277 34.2166 121.671C34.1861 121.097 34.3589 120.531 34.7046 120.072C34.8868 119.849 35.1145 119.667 35.3725 119.539C35.5419 119.452 35.7211 119.385 35.9063 119.34C36.5214 119.218 37.1602 119.321 37.7058 119.63C38.3506 119.988 38.8933 120.504 39.2826 121.131L42.7749 126.316L46.2671 131.501C47.7133 133.57 49.0078 135.741 50.1406 137.997C52.0225 141.77 53.825 146.556 53.4712 150.649Z" fill="#BC7F7F" stroke="black" stroke-width="0.915" stroke-miterlimit="10" stroke-linecap="round"/>
<path d="M7.03418 127.942L11.7678 134.767L16.4983 141.59" stroke="black" stroke-width="0.915" stroke-miterlimit="10" stroke-linecap="round"/>
<path d="M6.51562 118.986L12.9389 128.14L19.3653 137.29" stroke="black" stroke-width="0.915" stroke-miterlimit="10" stroke-linecap="round"/>
<path d="M136.065 209.562L144.968 227.835L153.871 246.092H142.427H130.983C131.831 240.005 132.678 233.917 133.524 227.829C134.37 221.741 135.217 215.652 136.065 209.562Z" fill="black" stroke="black" stroke-width="0.915" stroke-miterlimit="10" stroke-linecap="round"/>
<path d="M11.877 116.138L17.9221 124.971L23.9641 133.806" stroke="black" stroke-width="0.915" stroke-miterlimit="10" stroke-linecap="round"/>
<path d="M122.96 180.981C122.812 178.272 122.964 175.555 123.415 172.88C123.778 170.705 124.508 168.607 125.574 166.676C126.537 164.963 127.974 163.565 129.713 162.65C131.47 161.721 133.605 161.202 136.118 161.092C138.631 160.982 140.804 161.316 142.636 162.095C144.451 162.857 146.006 164.128 147.113 165.755C148.34 167.59 149.249 169.618 149.8 171.755C150.485 174.367 150.874 177.049 150.959 179.749C151.11 182.461 150.957 185.183 150.505 187.862C150.141 190.05 149.412 192.161 148.349 194.108C147.392 195.835 145.954 197.246 144.21 198.171C142.453 199.112 140.318 199.638 137.805 199.747C135.292 199.857 133.119 199.523 131.287 198.744C129.473 197.98 127.919 196.709 126.81 195.084C125.584 193.24 124.68 191.203 124.135 189.057C123.445 186.417 123.051 183.708 122.96 180.981ZM144.823 180.026C144.757 178.113 144.539 176.208 144.17 174.329C143.897 172.883 143.428 171.482 142.776 170.162C142.242 169.083 141.373 168.205 140.3 167.658C139.076 167.095 137.729 166.855 136.387 166.96C135.027 166.972 133.692 167.327 132.507 167.994C131.476 168.617 130.678 169.561 130.235 170.681C129.699 172.051 129.353 173.487 129.207 174.951C128.835 178.807 129.006 182.696 129.713 186.504C129.986 187.966 130.456 189.384 131.11 190.719C131.646 191.809 132.523 192.693 133.608 193.239C134.848 193.807 136.213 194.05 137.573 193.943C138.921 193.931 140.244 193.572 141.413 192.9C142.441 192.253 143.232 191.29 143.667 190.155C144.203 188.768 144.547 187.314 144.692 185.833C144.888 183.904 144.932 181.962 144.823 180.026Z" fill="#F8FAFC" stroke="black" stroke-width="0.915" stroke-miterlimit="10" stroke-linecap="round"/>
<path d="M178.203 159.283L167.159 159.768L156.111 160.25C155.635 160.272 155.186 160.481 154.864 160.833C154.541 161.184 154.371 161.649 154.391 162.126L154.467 163.84L154.541 165.554C154.56 165.952 154.735 166.326 155.029 166.594C155.323 166.863 155.711 167.004 156.108 166.988L163.712 166.655L171.319 166.323C171.511 166.314 171.702 166.354 171.875 166.438C172.048 166.522 172.197 166.648 172.309 166.804C172.422 166.96 172.493 167.142 172.518 167.332C172.543 167.523 172.519 167.717 172.45 167.896L166.616 183L160.784 198.113C160.715 198.292 160.692 198.486 160.716 198.677C160.741 198.868 160.813 199.049 160.925 199.205C161.037 199.361 161.186 199.487 161.359 199.571C161.532 199.655 161.723 199.695 161.916 199.687L164.642 199.568L167.366 199.449C167.594 199.44 167.813 199.364 167.997 199.229C168.182 199.095 168.323 198.909 168.403 198.695L174.698 181.728L180.99 164.761L181.015 164.694L181.039 164.627L180.978 163.193L180.917 161.757C180.886 161.067 180.583 160.418 180.074 159.952C179.565 159.486 178.892 159.241 178.203 159.271V159.283Z" fill="#F8FAFC" stroke="black" stroke-width="0.915" stroke-miterlimit="10" stroke-linecap="round"/>
<path d="M70.8124 246.284L104.994 246.135L139.172 245.995C139.087 236.726 138.544 228.491 137.781 221.579C137.019 214.668 136.043 209.074 135.085 205.109C134.19 201.413 133.004 197.794 131.538 194.285C130.205 191.116 128.808 188.514 127.591 186.843C127.506 186.727 127.329 186.486 127.085 186.141C126.841 185.797 126.527 185.348 126.17 184.821C125.56 183.891 124.81 182.686 124.035 181.268C123.148 179.655 122.354 177.993 121.656 176.29L121.628 176.226L121.604 176.165C120.411 173.249 119.371 170.272 118.49 167.247C117.66 164.398 117.023 161.69 116.532 159.161C117.208 158.938 117.831 158.578 118.362 158.103C119.323 157.273 120.375 155.846 120.735 153.452C120.86 152.608 120.875 151.752 120.781 150.905C120.686 150.057 120.496 149.222 120.213 148.416C119.058 145.152 117.153 142.204 114.653 139.809C111.448 136.759 106.644 134.014 99.4733 133.19C94.146 132.638 88.7689 133.546 83.9183 135.816C79.0535 138.177 75.2258 142.069 74.5944 147.638C74.5023 148.465 74.315 149.279 74.0363 150.063C73.4338 151.761 72.347 153.246 70.91 154.333C69.9687 155.038 68.9104 155.572 67.7838 155.91C67.5977 155.968 67.4117 156.017 67.2256 156.059C67.0396 156.102 66.8474 156.145 66.6583 156.184C65.7952 156.361 63.3186 157.008 61.5465 158.795C59.7745 160.582 58.7161 163.523 60.6895 168.284C60.9436 168.946 61.3156 169.557 61.7875 170.086C62.5378 170.895 63.6876 171.52 65.2858 170.776C65.5917 171.611 66.0614 172.376 66.6675 173.026C67.6557 174.07 69.2386 174.948 71.6176 174.295L72.4716 174.06C72.7583 173.984 73.045 173.911 73.3317 173.847L77.6017 172.883L81.8717 171.919C81.7314 175.558 81.6247 178.358 81.5515 180.249C81.4783 182.14 81.4447 183.116 81.4447 183.116C81.2648 183.274 81.0452 183.479 80.7981 183.726C80.5511 183.973 80.2827 184.269 80.0021 184.604C79.5251 185.213 79.0997 185.861 78.7302 186.541C77.8332 188.137 77.1882 189.863 76.8179 191.656C76.4275 193.596 75.5979 199.909 74.5395 209.407C73.4812 218.905 72.1514 231.593 70.8124 246.284Z" fill="#FFA170" stroke="black" stroke-width="0.915" stroke-miterlimit="10" stroke-linecap="round"/>
<path d="M65.2695 170.77C66.3954 170.481 67.4769 170.041 68.4842 169.461C70.6907 168.276 72.4526 166.406 73.5045 164.133" stroke="black" stroke-width="0.915" stroke-miterlimit="10" stroke-linecap="round"/>
<path d="M73.5046 164.133C73.3856 164.401 73.2453 164.694 73.0745 165.002C72.8877 165.335 72.6841 165.657 72.4645 165.969C71.9876 166.648 71.4339 167.269 70.8145 167.82C71.3937 168.271 72.0158 168.663 72.6719 168.992C73.154 169.232 73.6536 169.436 74.1664 169.602C74.6666 169.781 75.1822 169.913 75.7067 169.998C76.1615 170.073 76.6282 169.988 77.0273 169.757C77.2714 169.599 77.4793 169.391 77.6373 169.147C77.7904 168.926 77.8944 168.674 77.9423 168.409C78.0521 167.723 77.6617 166.942 76.884 166.189C75.8975 165.296 74.7508 164.599 73.5046 164.133Z" fill="#C71E07" stroke="black" stroke-width="0.915" stroke-miterlimit="10" stroke-linecap="round"/>
<path d="M82.6547 150.759C82.6541 151.123 82.527 151.477 82.2952 151.758C82.0633 152.04 81.741 152.232 81.3831 152.303C81.0252 152.374 80.6539 152.318 80.3325 152.145C80.011 151.973 79.7593 151.695 79.6202 151.357C79.481 151.02 79.4631 150.645 79.5695 150.296C79.6759 149.947 79.8999 149.646 80.2035 149.444C80.507 149.241 80.8713 149.151 81.2343 149.187C81.5973 149.223 81.9365 149.384 82.1941 149.642C82.4891 149.939 82.6547 150.34 82.6547 150.759Z" fill="#1C1917"/>
<path d="M100.302 146.802C101.489 149.557 103.018 152.152 104.852 154.525C107.722 158.13 111.779 161.235 116.531 159.164" stroke="black" stroke-width="0.915" stroke-miterlimit="10" stroke-linecap="round"/>
<path d="M103.633 184.909C107.481 184.088 111.177 182.672 114.589 180.713C117.042 179.305 119.335 177.635 121.427 175.732C120.898 174.418 120.41 173.123 119.963 171.846C119.518 170.571 119.109 169.315 118.743 168.086C117.068 169.927 115.194 171.578 113.156 173.008C106.246 177.883 97.7406 179.946 89.3655 178.779C86.7243 178.424 84.1342 177.759 81.649 176.796C81.5789 178.571 81.527 179.987 81.4874 181.024C81.4477 182.061 81.4233 182.719 81.4111 182.979C84.2195 184.098 87.1491 184.885 90.1402 185.324C94.6265 185.995 99.1968 185.854 103.633 184.909Z" fill="#FFD70D" stroke="black" stroke-width="0.915" stroke-miterlimit="10" stroke-linecap="round"/>
<path d="M135.084 205.134C134.291 202.12 133.345 199.369 132.601 197.369C131.857 195.368 131.308 194.12 131.308 194.12C130.621 192.559 129.938 191.156 129.301 189.936C128.663 188.716 128.081 187.676 127.59 186.837C127.59 186.837 126.659 185.55 125.455 183.586C124 181.256 122.73 178.817 121.654 176.29L121.627 176.226L121.603 176.165C121.572 176.092 121.542 176.019 121.514 175.945C121.487 175.872 121.456 175.802 121.426 175.729C119.334 177.633 117.041 179.304 114.588 180.712C107.195 184.96 98.5835 186.585 90.151 185.324C87.1639 184.884 84.2385 184.097 81.4341 182.979V183.11C81.2541 183.268 81.0345 183.473 80.7875 183.72C80.5404 183.967 80.272 184.263 79.9914 184.598C79.5144 185.207 79.089 185.855 78.7196 186.535C77.8226 188.131 77.1775 189.857 76.8072 191.65C76.4168 193.59 75.5872 199.903 74.5289 209.401C73.4705 218.898 72.1651 231.59 70.8262 246.281L86.9424 246.205L103.059 246.126L111.388 246.077C114.591 246.062 118.263 246.043 122.539 246.028L132.04 246.01C134.843 246.01 137.252 246.01 139.186 246.01C139.027 236.357 138.46 227.856 137.704 220.908C136.947 213.961 135.989 208.568 135.084 205.134Z" fill="#61A672" stroke="black" stroke-width="0.915" stroke-miterlimit="10" stroke-linecap="round"/>
<path d="M76.4512 216.699C76.4218 214.875 76.5586 213.051 76.8599 211.252C77.0916 209.82 77.5293 208.429 78.1592 207.122C78.6705 206.045 79.4817 205.139 80.4955 204.511C81.581 203.933 82.7898 203.626 84.0195 203.615C85.2492 203.604 86.4635 203.889 87.5593 204.447C88.5832 205.06 89.4074 205.956 89.9322 207.028C90.5761 208.325 91.0301 209.709 91.2803 211.136C91.6019 212.922 91.7601 214.735 91.753 216.55C91.7818 218.377 91.646 220.203 91.3474 222.006C91.1154 223.447 90.6778 224.847 90.0481 226.163C89.5401 227.251 88.7288 228.168 87.7118 228.805C86.6393 229.422 85.4201 229.738 84.1829 229.72C82.9506 229.766 81.7288 229.478 80.648 228.884C79.6227 228.273 78.798 227.376 78.2751 226.304C77.6285 225 77.1744 223.61 76.927 222.177C76.603 220.369 76.4437 218.536 76.4512 216.699ZM88.398 216.586C88.3991 215.297 88.3176 214.01 88.154 212.731C88.0347 211.761 87.8066 210.807 87.4739 209.888C87.2313 209.184 86.7749 208.573 86.1685 208.141C85.5319 207.737 84.7862 207.54 84.0335 207.577C83.2764 207.558 82.5317 207.771 81.8985 208.187C81.2957 208.623 80.8446 209.238 80.6083 209.943C80.2849 210.866 80.068 211.823 79.9617 212.795C79.8132 214.084 79.748 215.381 79.7665 216.678C79.7652 217.986 79.8467 219.293 80.0105 220.591C80.129 221.572 80.3572 222.537 80.6907 223.467C80.9344 224.177 81.394 224.792 82.0052 225.227C82.6424 225.63 83.3871 225.829 84.1402 225.797C84.8917 225.816 85.6307 225.603 86.2569 225.187C86.8604 224.741 87.3093 224.117 87.541 223.403C87.8632 222.469 88.0791 221.501 88.1845 220.518C88.3396 219.213 88.4109 217.9 88.398 216.586Z" fill="#F8FAFC" stroke="black" stroke-width="0.915" stroke-miterlimit="10" stroke-linecap="round"/>
<path d="M107.017 203.414L100.981 203.472L94.9422 203.529C94.8061 203.534 94.6728 203.569 94.552 203.632C94.4312 203.695 94.3259 203.784 94.2438 203.892C94.0557 204.139 93.9568 204.442 93.9632 204.753V205.908V207.067C93.9605 207.326 94.0466 207.578 94.2072 207.781C94.2741 207.873 94.3611 207.948 94.4616 208.001C94.562 208.054 94.6732 208.083 94.7867 208.086L98.9438 208.047L103.101 208.007C103.213 208.011 103.321 208.045 103.415 208.106C103.509 208.168 103.584 208.254 103.632 208.355C103.692 208.467 103.728 208.592 103.738 208.719C103.747 208.847 103.73 208.975 103.687 209.096L100.21 219.139L96.7295 229.186C96.6877 229.306 96.671 229.434 96.6804 229.561C96.6899 229.688 96.7253 229.811 96.7844 229.924C96.8321 230.026 96.9068 230.112 97.0004 230.174C97.0941 230.236 97.203 230.271 97.3151 230.275L98.8066 230.26H100.295C100.424 230.258 100.549 230.211 100.646 230.125C100.754 230.033 100.834 229.913 100.878 229.778L104.644 218.493L108.411 207.208V207.165L108.426 207.119V206.152V205.183C108.427 204.74 108.277 204.31 108.002 203.963C107.891 203.802 107.744 203.67 107.573 203.574C107.402 203.479 107.212 203.424 107.017 203.414Z" fill="#F8FAFC" stroke="black" stroke-width="0.915" stroke-miterlimit="10" stroke-linecap="round"/>
<path d="M89.8592 178.84L89.7768 182.049L89.6914 185.254" stroke="black" stroke-width="0.915" stroke-miterlimit="10" stroke-linecap="round"/>
<path d="M97.9355 178.855L98.1368 182.253L98.3412 185.651" stroke="black" stroke-width="0.915" stroke-miterlimit="10" stroke-linecap="round"/>
<path d="M105.2 177.37C105.385 178.468 105.57 179.564 105.755 180.658C105.94 181.752 106.125 182.848 106.31 183.946" stroke="black" stroke-width="0.915" stroke-miterlimit="10" stroke-linecap="round"/>
<path d="M112.087 173.978L112.935 177.568L113.783 181.17" stroke="black" stroke-width="0.915" stroke-miterlimit="10" stroke-linecap="round"/>
<path d="M49.3336 195.563C48.7297 195.564 48.1302 195.461 47.5615 195.258C46.9975 195.057 46.4791 194.746 46.0365 194.343C45.5056 193.855 45.0962 193.249 44.8409 192.574C44.5556 191.819 44.4139 191.017 44.4231 190.21C44.4231 188.151 45.3076 186.382 46.3995 184.992C47.3033 183.864 48.3643 182.872 49.5501 182.045C49.7484 181.908 49.9527 181.774 50.1601 181.652C50.3675 181.53 50.5871 181.411 50.8098 181.301C50.4722 180.937 50.1083 180.578 49.7179 180.225C49.3275 179.871 48.9076 179.518 48.4582 179.166C46.2318 177.441 43.6334 176.258 40.8698 175.714C38.2503 175.164 35.5322 175.313 32.9886 176.147C31.0042 176.814 29.2298 177.991 27.8433 179.56C26.417 181.209 25.4085 183.178 24.9031 185.3C24.8326 185.573 24.6568 185.808 24.414 185.953C24.1711 186.097 23.881 186.14 23.6068 186.071C23.471 186.038 23.3431 185.977 23.2306 185.894C23.118 185.81 23.0231 185.706 22.9511 185.586C22.8791 185.465 22.8316 185.332 22.8112 185.194C22.7908 185.055 22.7979 184.914 22.8321 184.778C23.4227 182.315 24.5987 180.031 26.2603 178.12C27.891 176.293 29.969 174.921 32.2902 174.14C35.1681 173.181 38.2469 172.992 41.2206 173.591C44.3435 174.207 47.2776 175.549 49.785 177.51C50.4112 177.998 50.9897 178.495 51.5204 179.001C52.0329 179.488 52.5176 180.004 52.9722 180.545C55.583 179.886 58.691 180.026 62.0307 180.926C65.3705 181.826 68.939 183.485 72.4739 185.855C72.5919 185.932 72.6934 186.031 72.7727 186.147C72.852 186.264 72.9074 186.394 72.9357 186.532C72.9641 186.67 72.9649 186.812 72.9379 186.95C72.911 187.089 72.857 187.22 72.7789 187.337C72.6222 187.573 72.3784 187.738 72.1007 187.795C71.8229 187.852 71.5339 187.797 71.2966 187.642C68.4942 185.714 65.4236 184.209 62.1832 183.174C59.2827 182.292 56.5956 182.033 54.3264 182.433C54.6612 182.991 54.9509 183.576 55.1926 184.18C55.4261 184.762 55.6068 185.363 55.7325 185.977C56.0574 187.585 55.9393 189.252 55.3909 190.799C54.8918 192.276 53.9558 193.568 52.7069 194.502C52.2115 194.857 51.6628 195.132 51.0812 195.316C50.5152 195.489 49.9255 195.572 49.3336 195.563ZM52.1823 183.034C51.9355 183.139 51.6942 183.257 51.4594 183.387C51.2265 183.517 51.0005 183.658 50.7823 183.811C49.862 184.458 49.0268 185.219 48.2966 186.074C47.3816 187.191 46.5611 188.618 46.5672 190.216C46.5626 190.726 46.6441 191.234 46.8082 191.717C46.9405 192.122 47.1723 192.486 47.4822 192.778C48.0055 193.221 48.6764 193.45 49.361 193.419C50.1088 193.412 50.8366 193.176 51.4472 192.745C52.3598 192.05 53.037 191.092 53.387 190C53.787 188.839 53.8712 187.593 53.631 186.389C53.5096 185.808 53.3287 185.242 53.0912 184.699C52.8399 184.117 52.5356 183.56 52.1823 183.034Z" fill="#C9CEFC" stroke="black" stroke-width="0.915" stroke-miterlimit="10" stroke-linecap="round"/>
<path d="M61.5372 164.282L63.6508 163.205L65.7645 162.129C66.0608 161.979 66.3062 161.745 66.4698 161.456C66.6333 161.167 66.7077 160.836 66.6836 160.504C66.6594 160.173 66.5379 159.856 66.3342 159.594C66.1305 159.332 65.8537 159.135 65.5388 159.03L64.0138 158.512L62.4888 157.993C61.5318 158.664 60.7666 159.573 60.2691 160.631C59.7716 161.689 59.559 162.858 59.6523 164.023C59.8995 164.247 60.2069 164.395 60.5368 164.447C60.8793 164.496 61.2287 164.439 61.5372 164.282Z" fill="black" stroke="black" stroke-width="0.915" stroke-miterlimit="10" stroke-linecap="round"/>
<path d="M123.076 246.019H104.953L106.548 235.866L108.146 225.7C108.476 223.38 109.546 221.227 111.196 219.563C112.709 218.041 114.763 217.177 116.909 217.16C119.694 217.16 122.137 218.642 123.759 220.924C125.485 223.427 126.172 226.503 125.675 229.503L124.376 237.763L123.076 246.019Z" fill="#FFA170" stroke="black" stroke-width="0.915" stroke-miterlimit="10" stroke-linecap="round"/>
<path d="M95.7997 156.465C95.6261 157.169 95.2138 157.791 94.6329 158.225C94.0521 158.66 93.3387 158.879 92.6142 158.846C91.8897 158.814 91.199 158.531 90.6596 158.046C90.1202 157.561 89.7656 156.905 89.6561 156.188C89.5466 155.471 89.689 154.738 90.059 154.114C90.429 153.491 91.0038 153.015 91.6855 152.767C92.3672 152.52 93.1136 152.516 93.7976 152.757C94.4816 152.998 95.0609 153.469 95.4368 154.089C95.6511 154.441 95.7934 154.833 95.8557 155.241C95.918 155.648 95.899 156.065 95.7997 156.465Z" fill="#C71E07" stroke="black" stroke-width="0.915" stroke-miterlimit="10" stroke-linecap="round"/>
<path d="M166.051 97.2003L157.185 96.6421L148.316 96.0748C148.309 98.4684 148.617 100.853 149.231 103.166C150.083 106.383 151.594 109.387 153.668 111.99C154.8 113.405 156.091 114.687 157.514 115.808C158.662 116.711 159.887 117.511 161.174 118.2C162.294 116.58 163.244 114.849 164.011 113.036C165.47 109.571 166.266 105.863 166.356 102.105C166.393 100.464 166.291 98.8236 166.051 97.2003Z" fill="black" stroke="black" stroke-width="0.915" stroke-miterlimit="10" stroke-linecap="round"/>
<path d="M154.941 113.46C154.495 112.984 154.157 112.579 153.897 112.24C153.638 111.901 153.461 111.648 153.339 111.462C153.251 111.325 153.168 111.2 153.101 111.084C153.034 110.968 152.97 110.867 152.921 110.779L153.138 110.867C153.217 110.895 153.306 110.928 153.397 110.956L153.626 111.026C153.76 111.066 153.931 111.115 154.129 111.151C155.755 111.366 157.402 110.954 158.736 109.998C160.069 109.043 160.988 107.615 161.307 106.006C161.625 104.397 161.319 102.727 160.45 101.335C159.582 99.944 158.216 98.9355 156.63 98.515C155.148 98.2332 153.614 98.4873 152.302 99.2317C150.951 99.9868 149.9 101.185 149.329 102.623C149.164 102.16 149.002 101.641 148.856 101.065C148.698 100.445 148.574 99.8164 148.484 99.1829C148.401 98.6004 148.353 98.0483 148.328 97.5329C148.304 97.0174 148.304 96.5355 148.328 96.0963L133.197 95.1447L118.063 94.1931C117.882 94.7482 117.717 95.3104 117.569 95.8798C117.419 96.4501 117.285 97.0266 117.169 97.6152C115.718 104.99 117.127 112.2 120.573 117.901C124.02 123.601 129.516 127.786 136.232 129.11C140.948 130.027 145.833 129.452 150.207 127.466C154.642 125.443 158.439 122.246 161.187 118.221C160.383 117.784 159.602 117.307 158.848 116.791C158.17 116.327 157.6 115.876 157.133 115.503C156.874 115.29 156.548 115.012 156.179 114.674C155.81 114.335 155.377 113.924 154.941 113.46Z" fill="#BC7F7F" stroke="black" stroke-width="0.915" stroke-miterlimit="10" stroke-linecap="round"/>
<path d="M149.627 111.371C149.473 112.156 149.051 112.864 148.434 113.373C147.817 113.882 147.042 114.162 146.241 114.163C145.441 114.165 144.665 113.89 144.045 113.383C143.425 112.877 143 112.172 142.842 111.387C142.685 110.602 142.804 109.787 143.179 109.081C143.555 108.374 144.164 107.82 144.903 107.512C145.642 107.204 146.465 107.162 147.231 107.393C147.997 107.624 148.66 108.114 149.106 108.778C149.36 109.154 149.536 109.577 149.626 110.022C149.715 110.467 149.716 110.926 149.627 111.371Z" fill="#C71E07" stroke="black" stroke-width="0.915" stroke-miterlimit="10" stroke-linecap="round"/>
<path d="M128.746 118.645C128.592 119.429 128.17 120.136 127.553 120.644C126.936 121.152 126.161 121.43 125.362 121.432C124.563 121.433 123.788 121.157 123.169 120.651C122.55 120.145 122.126 119.441 121.968 118.657C121.811 117.873 121.93 117.059 122.305 116.353C122.68 115.648 123.289 115.094 124.027 114.786C124.765 114.479 125.586 114.437 126.352 114.667C127.117 114.897 127.779 115.386 128.225 116.05C128.478 116.427 128.654 116.85 128.744 117.295C128.833 117.741 128.834 118.199 128.746 118.645Z" fill="#C71E07" stroke="black" stroke-width="0.915" stroke-miterlimit="10" stroke-linecap="round"/>
<path d="M125.715 109.324C125.643 109.687 125.43 110.006 125.123 110.212C124.816 110.417 124.44 110.493 124.077 110.422C123.807 110.369 123.558 110.237 123.363 110.042C123.168 109.847 123.035 109.599 122.98 109.329C122.926 109.058 122.953 108.778 123.058 108.523C123.164 108.268 123.342 108.05 123.571 107.897C123.8 107.746 124.068 107.666 124.342 107.667C124.616 107.668 124.884 107.75 125.112 107.902C125.34 108.055 125.518 108.271 125.623 108.524C125.729 108.777 125.758 109.055 125.706 109.324H125.715Z" fill="#1C1917"/>
<path d="M139.977 106.277C139.915 106.595 139.744 106.88 139.495 107.086C139.246 107.292 138.933 107.405 138.609 107.406C138.286 107.407 137.973 107.295 137.722 107.091C137.472 106.886 137.3 106.601 137.236 106.284C137.173 105.967 137.221 105.638 137.373 105.353C137.524 105.067 137.771 104.843 138.069 104.719C138.367 104.595 138.7 104.578 139.009 104.671C139.319 104.765 139.586 104.963 139.766 105.231C139.869 105.383 139.94 105.554 139.976 105.733C140.012 105.913 140.013 106.098 139.977 106.277Z" fill="#1C1917"/>
<path d="M124.577 101.187C125.792 100.643 127.043 100.187 128.323 99.8203C132.288 98.6877 136.458 98.4615 140.523 99.1585" stroke="black" stroke-width="0.915" stroke-miterlimit="10" stroke-linecap="round"/>
<path d="M128.526 100.199L129.551 106.726L130.573 113.253L131.482 113.033L132.391 112.816" stroke="black" stroke-width="0.915" stroke-miterlimit="10" stroke-linecap="round"/>
<path d="M146.735 75.6887C140.556 74.4687 134.416 75.893 129.304 79.2206C123.951 82.7719 119.978 88.0528 118.05 94.1808L142.05 95.6906L166.051 97.2003C165.325 92.0184 163.113 87.1578 159.682 83.2069C156.318 79.3366 151.764 76.6923 146.735 75.6887Z" fill="#FFA170" stroke="black" stroke-width="0.915" stroke-miterlimit="10" stroke-linecap="round"/>
<path d="M152.985 106.546L155.294 105.286L157.603 104.03" stroke="black" stroke-width="0.915" stroke-miterlimit="10" stroke-linecap="round"/>
<path d="M127.164 94.7543C127.134 97.3187 126.334 99.8149 124.867 101.919C123.48 103.928 121.472 105.428 119.151 106.189C118.283 106.465 117.381 106.626 116.471 106.668C113.561 106.789 110.717 105.775 108.541 103.84C107.433 102.853 106.558 101.631 105.98 100.263C105.403 98.8962 105.137 97.4175 105.201 95.9346C105.242 95.023 105.415 94.1222 105.713 93.2598C106.39 91.3841 107.572 89.7321 109.129 88.4865C110.709 87.233 112.646 86.4827 114.705 86.7145C115.937 86.866 117.112 87.3277 118.118 88.0565C118.78 88.5295 119.38 89.085 119.902 89.7096C119.682 90.1305 119.46 90.5758 119.243 91.0485C119.026 91.5213 118.816 92.0184 118.615 92.543C118.505 92.8267 118.404 93.1042 118.31 93.3787C118.215 93.6532 118.127 93.9216 118.041 94.187L122.616 94.4737L127.164 94.7543Z" fill="black" stroke="black" stroke-width="0.915" stroke-miterlimit="10" stroke-linecap="round"/>
<path d="M121.918 86.385L142.951 88.1723L163.984 89.9596" stroke="black" stroke-width="0.915" stroke-miterlimit="10" stroke-linecap="round"/>
<path d="M128.278 86.925L127.51 90.826L126.741 94.7269" stroke="black" stroke-width="0.915" stroke-miterlimit="10" stroke-linecap="round"/>
<path d="M136.579 87.6875L135.853 91.3749L135.127 95.0624" stroke="black" stroke-width="0.915" stroke-miterlimit="10" stroke-linecap="round"/>
<path d="M146.709 88.6484L145.995 92.2718L145.281 95.8952" stroke="black" stroke-width="0.915" stroke-miterlimit="10" stroke-linecap="round"/>
<path d="M157.047 89.5176L156.373 92.9427L155.699 96.3709" stroke="black" stroke-width="0.915" stroke-miterlimit="10" stroke-linecap="round"/>
<path d="M141.681 114.308C141.638 114.177 141.567 114.057 141.474 113.956C141.381 113.854 141.267 113.774 141.141 113.719C141.015 113.665 140.878 113.638 140.74 113.64C140.603 113.642 140.467 113.673 140.342 113.731L138.293 114.698L136.243 115.665C135.588 116.711 135.132 117.869 134.898 119.081C134.711 120.009 134.625 120.955 134.642 121.902C135.404 122.155 136.208 122.253 137.009 122.192C137.797 122.133 138.561 121.895 139.244 121.497C140.385 120.799 141.241 119.718 141.657 118.447C142.115 117.106 142.123 115.653 141.681 114.308Z" fill="#C71E07" stroke="black" stroke-width="0.915" stroke-miterlimit="10" stroke-linecap="round"/>
<path d="M131.659 117.827C131.533 117.887 131.421 117.972 131.331 118.077C131.24 118.182 131.172 118.305 131.131 118.437C131.091 118.571 131.08 118.711 131.098 118.849C131.117 118.986 131.164 119.119 131.238 119.237C131.637 119.877 132.149 120.44 132.748 120.899C133.318 121.337 133.958 121.675 134.642 121.899C134.625 120.952 134.711 120.006 134.898 119.078C135.132 117.866 135.588 116.708 136.243 115.662L133.949 116.742L131.659 117.827Z" fill="black" stroke="black" stroke-width="0.915" stroke-miterlimit="10" stroke-linecap="round"/>
<path d="M228.14 184.812L237.427 189.082L246.714 193.352C245.185 194.174 243.557 194.8 241.871 195.215C241.125 195.398 240.368 195.533 239.605 195.621C238.863 195.709 238.08 195.764 237.165 195.837C235.813 195.947 234.569 195.993 233.465 195.996C232.361 195.999 231.394 195.971 230.595 195.929C230.188 194.072 229.782 192.215 229.375 190.356C228.968 188.498 228.556 186.65 228.14 184.812Z" fill="black" stroke="black" stroke-width="0.915" stroke-miterlimit="10" stroke-linecap="round"/>
<path d="M226.92 184.336C226.962 184.177 226.999 184.031 227.033 183.857C227.066 183.683 227.091 183.528 227.112 183.36C227.231 182.388 227.138 181.401 226.84 180.469C226.541 179.536 226.044 178.679 225.382 177.957C224.721 177.234 223.911 176.664 223.008 176.285C222.105 175.905 221.131 175.726 220.152 175.759C219.81 175.771 219.47 175.808 219.133 175.869C218.817 174.669 218.155 173.588 217.23 172.761C216.412 172.035 215.417 171.536 214.346 171.313C213.275 171.09 212.165 171.152 211.125 171.491C210.085 171.83 209.152 172.435 208.418 173.247C207.684 174.058 207.175 175.047 206.942 176.116L206.704 176.07L206.466 176.034C205.649 175.933 204.819 175.994 204.024 176.213C203.23 176.433 202.487 176.807 201.837 177.314C201.187 177.821 200.644 178.451 200.238 179.168C199.831 179.885 199.571 180.675 199.47 181.493C199.446 181.685 199.433 181.877 199.43 182.07C199.43 182.259 199.43 182.448 199.43 182.634C198.158 182.969 196.998 183.636 196.069 184.568C195.14 185.5 194.476 186.662 194.144 187.935C193.034 187.952 191.948 188.264 190.997 188.84C190.047 189.415 189.267 190.232 188.736 191.208C188.205 192.184 187.944 193.283 187.978 194.393C188.011 195.504 188.34 196.585 188.929 197.527C189.518 198.468 190.347 199.236 191.331 199.752C192.315 200.268 193.418 200.514 194.527 200.463C195.637 200.413 196.713 200.068 197.646 199.465C198.579 198.862 199.335 198.021 199.836 197.03L200.122 197.082C200.22 197.1 200.315 197.112 200.427 197.125C201.952 197.311 203.497 197.018 204.847 196.286C205.588 197.507 206.592 198.549 207.784 199.336C209.7 200.598 212.004 201.132 214.28 200.841C216.556 200.55 218.652 199.453 220.188 197.75C221.072 198.663 222.161 199.351 223.365 199.757C224.569 200.162 225.853 200.274 227.109 200.082C228.365 199.889 229.556 199.399 230.584 198.652C231.611 197.905 232.445 196.922 233.015 195.786C233.584 194.651 233.874 193.395 233.859 192.125C233.844 190.855 233.525 189.606 232.928 188.484C232.332 187.363 231.475 186.4 230.431 185.677C229.386 184.954 228.183 184.492 226.923 184.33L226.92 184.336Z" fill="#FFD70D" stroke="black" stroke-width="0.915" stroke-miterlimit="10" stroke-linecap="round"/>
<path d="M228.281 246.284H211.137H193.996L192.117 223.062L190.241 199.836H210.914H231.587L229.934 223.062L228.281 246.284Z" fill="#C71E07" stroke="black" stroke-width="0.915" stroke-miterlimit="10" stroke-linecap="round"/>
<path d="M203.959 246.242L202.522 223.074L201.086 199.903L202.15 199.836L203.218 199.772L204.657 222.995L206.097 246.22L205.027 246.233L203.959 246.242Z" fill="#F8FAFC" stroke="black" stroke-width="0.915" stroke-miterlimit="10" stroke-linecap="round"/>
<path d="M217.769 246.245H216.701H215.631L216.506 223.022L217.382 199.796L218.449 199.836L219.514 199.879L218.641 223.062L217.769 246.245Z" fill="#F8FAFC" stroke="black" stroke-width="0.915" stroke-miterlimit="10" stroke-linecap="round"/>
<path d="M215.635 189.783C215.641 189.42 215.599 189.058 215.51 188.707C215.366 188.093 215.039 187.538 214.573 187.114C213.944 186.586 213.138 186.315 212.316 186.355C211.389 186.389 210.497 186.721 209.773 187.3C209.626 186.648 209.31 186.045 208.858 185.553C208.361 185.011 207.699 184.647 206.975 184.52C206.251 184.393 205.505 184.508 204.853 184.848C204.078 185.236 203.455 185.872 203.081 186.654" stroke="black" stroke-width="0.915" stroke-miterlimit="10" stroke-linecap="round"/>
<path d="M234.627 199.836H187.203C187.022 199.836 186.849 199.764 186.721 199.637C186.593 199.51 186.52 199.337 186.52 199.156V196.637C186.52 196.456 186.593 196.283 186.721 196.155C186.849 196.028 187.022 195.956 187.203 195.956H234.627C234.717 195.956 234.805 195.973 234.888 196.007C234.971 196.041 235.046 196.092 235.109 196.155C235.172 196.218 235.222 196.293 235.256 196.376C235.29 196.459 235.308 196.547 235.307 196.637V199.165C235.308 199.254 235.29 199.343 235.256 199.426C235.222 199.508 235.172 199.584 235.109 199.647C235.046 199.71 234.971 199.76 234.888 199.794C234.805 199.828 234.717 199.846 234.627 199.845V199.836Z" fill="#F8FAFC" stroke="black" stroke-width="0.915" stroke-miterlimit="10" stroke-linecap="round"/>
<path d="M237.305 149.334L235.53 151.926L233.752 154.516" fill="black"/>
<path d="M237.305 149.334L235.53 151.926L233.752 154.516" stroke="black" stroke-width="0.915" stroke-miterlimit="10" stroke-linecap="round"/>
</svg>
