<svg width="306" height="306" viewBox="0 0 306 306" fill="none" xmlns="http://www.w3.org/2000/svg">
<path d="M139.184 123.567C139.184 123.567 156.874 115.198 178.889 114.335C200.904 113.472 227.198 120.13 244.406 150.145L256.127 170.275L267.848 190.405C268.841 192.105 269.857 193.789 270.898 195.456C271.939 197.123 272.984 198.794 274.031 200.467C277.895 206.582 279.521 213.353 279.127 219.621C278.734 225.889 276.355 231.662 272.21 235.786C269.436 238.495 266.012 240.446 262.267 241.45C259.287 242.259 256.204 242.628 253.117 242.545C248.601 242.443 244.084 242.353 239.566 242.273C235.048 242.194 230.531 242.154 226.015 242.154H99.9215C94.0879 242.154 88.2542 242.182 82.4206 242.237C76.587 242.292 70.7544 242.369 64.9228 242.469C62.8452 242.513 60.7727 242.247 58.774 241.679C56.2185 240.956 53.8715 239.635 51.9267 237.827C49.0731 235.115 47.2028 231.531 46.6106 227.64C45.9647 223.541 46.5862 219.343 48.3918 215.607L51.3808 207.824L54.3667 200.043L60.8724 183.091L67.378 166.139C70.2465 159.004 74.8 152.669 80.6495 147.676C86.4989 142.684 93.4702 139.182 100.968 137.469L120.079 130.512L139.184 123.567Z" fill="#104FC1" stroke="black" stroke-width="0.915" stroke-miterlimit="10" stroke-linecap="round"/>
<path d="M164.12 138.61C164.303 134.81 164.485 131.012 164.666 127.215C164.847 123.419 165.028 119.62 165.209 115.817C166.264 115.622 167.344 115.436 168.494 115.268C169.644 115.101 170.8 114.963 172.01 114.823C172.94 114.721 173.855 114.638 174.755 114.573C175.656 114.508 176.525 114.455 177.363 114.414C175.157 118.447 172.953 122.48 170.751 126.514L164.12 138.61Z" fill="black" stroke="black" stroke-width="0.915" stroke-miterlimit="10" stroke-linecap="round"/>
<path d="M253.107 242.542C251.055 242.621 248.127 241.264 245.714 239.885C244.228 239.04 242.786 238.119 241.395 237.125L214.555 219.527L187.7 201.943L198.39 183.537L209.093 165.127L226.335 174.753L243.579 184.375" stroke="black" stroke-width="0.915" stroke-miterlimit="10" stroke-linecap="round"/>
<path d="M118.953 145.811L125.593 143.313L132.236 140.815L132.035 149.325L131.833 157.834C131.833 157.869 131.823 157.902 131.803 157.93C131.783 157.959 131.756 157.98 131.723 157.993C131.692 158.005 131.658 158.009 131.625 158.002C131.592 157.996 131.562 157.98 131.537 157.956L125.245 151.884L118.953 145.811Z" fill="#F8FAFC" stroke="black" stroke-width="0.915" stroke-miterlimit="10" stroke-linecap="round"/>
<path d="M131.29 158.475L133.73 200.315L136.17 242.151H181.481L157.017 200.122L132.553 158.093C132.477 157.961 132.358 157.858 132.216 157.802C132.074 157.745 131.917 157.738 131.77 157.783C131.624 157.827 131.497 157.919 131.41 158.045C131.323 158.171 131.281 158.322 131.29 158.475Z" fill="#F8FAFC" stroke="black" stroke-width="0.915" stroke-miterlimit="10" stroke-linecap="round"/>
<path d="M158.594 217.883L144.182 209.995L129.765 202.108C129.723 202.085 129.686 202.055 129.656 202.017C129.626 201.98 129.604 201.937 129.591 201.891C129.577 201.846 129.573 201.798 129.578 201.751C129.584 201.704 129.598 201.658 129.622 201.617L161.708 142.993L193.788 84.3689L208.516 92.43L223.248 100.485L191.168 159.112L159.088 217.736C159.065 217.778 159.034 217.815 158.997 217.845C158.96 217.875 158.917 217.897 158.871 217.91C158.779 217.938 158.679 217.928 158.594 217.883Z" fill="#FFA170" stroke="black" stroke-width="0.915" stroke-miterlimit="10" stroke-linecap="round"/>
<path d="M140.508 209.013C140.426 209.014 140.345 209.003 140.267 208.983C140.186 208.964 140.108 208.936 140.035 208.897C139.793 208.771 139.611 208.554 139.529 208.294C139.446 208.034 139.47 207.752 139.596 207.51L166.597 155.544L193.602 103.578C193.728 103.335 193.945 103.152 194.205 103.07C194.466 102.987 194.749 103.011 194.991 103.137C195.234 103.263 195.417 103.48 195.499 103.74C195.582 104.001 195.558 104.284 195.432 104.526L168.424 156.492L141.42 208.455C141.332 208.625 141.199 208.766 141.035 208.864C140.876 208.96 140.694 209.012 140.508 209.013Z" fill="#61A672" stroke="black" stroke-width="0.915" stroke-miterlimit="10" stroke-linecap="round"/>
<path d="M150.609 214.555C150.53 214.555 150.451 214.545 150.374 214.527C150.294 214.506 150.217 214.478 150.142 214.442C150.022 214.379 149.914 214.293 149.827 214.188C149.74 214.083 149.674 213.962 149.633 213.832C149.591 213.704 149.575 213.569 149.585 213.434C149.596 213.3 149.633 213.168 149.694 213.048L176.125 161.281L202.554 109.513C202.679 109.272 202.894 109.091 203.153 109.009C203.411 108.927 203.692 108.95 203.933 109.073C204.175 109.197 204.357 109.411 204.442 109.668C204.526 109.926 204.505 110.207 204.384 110.449L177.955 162.214L151.527 213.982C151.44 214.149 151.308 214.29 151.147 214.389C150.986 214.488 150.801 214.541 150.612 214.543L150.609 214.555Z" fill="#61A672" stroke="black" stroke-width="0.915" stroke-miterlimit="10" stroke-linecap="round"/>
<path d="M100.964 137.479L106.762 159.466L112.56 181.453L122.192 169.845L131.824 158.234L119.792 146.619L107.759 135.005L104.362 136.24L100.964 137.479Z" fill="#104FC1" stroke="black" stroke-width="0.915" stroke-miterlimit="10" stroke-linecap="round"/>
<path d="M132.583 125.968L132.204 142.102L131.823 158.234L146.793 158.865L161.759 159.496L152.167 140.815L142.574 122.134L137.579 124.052L132.583 125.968Z" fill="#104FC1" stroke="black" stroke-width="0.915" stroke-miterlimit="10" stroke-linecap="round"/>
<path d="M165.002 136.972L156.831 138.229L148.675 139.485C147.551 139.98 146.535 140.693 145.686 141.581C144.304 143.036 143.152 145.314 144.06 148.596C143.572 148.763 143.11 148.999 142.688 149.297C141.864 149.865 141.224 150.66 140.845 151.586C140.466 152.511 140.364 153.527 140.553 154.51C140.646 155.032 140.813 155.538 141.05 156.013C140.437 156.166 139.856 156.425 139.333 156.779C139.01 156.998 138.718 157.258 138.464 157.554C137.639 158.588 137.232 159.894 137.323 161.214C137.409 162.784 137.915 164.303 138.787 165.612C138.614 165.777 138.455 165.958 138.314 166.152C138.186 166.326 138.073 166.51 137.976 166.704C136.933 168.793 137.994 171.48 139.363 173.691C140.294 175.169 141.371 176.549 142.578 177.812L146.76 170.714C148.15 168.348 149.543 165.981 150.938 163.614L155.223 174.127L159.493 184.641C159.886 185.449 160.473 186.148 161.201 186.675C162.031 187.306 163.065 187.767 164.117 187.694C164.745 187.638 165.345 187.413 165.856 187.044C166.179 186.816 166.474 186.552 166.737 186.257C167.896 184.982 168.158 183.045 167.478 179.367C166.798 175.689 165.179 170.266 162.577 162.028C162.577 162.028 162.272 161.082 161.613 158.996C160.954 156.91 159.908 153.671 158.435 149.102L161.714 143.039L165.002 136.972Z" fill="#BC7F7F" stroke="black" stroke-width="0.915" stroke-miterlimit="10" stroke-linecap="round"/>
<path d="M127.594 239.23L132.581 235.856L137.57 232.483L132.895 229.549L128.222 226.612L127.908 232.919L127.594 239.23Z" fill="#C9CEFC" stroke="black" stroke-width="0.915" stroke-miterlimit="10" stroke-linecap="round"/>
<path d="M129.442 202.151L128.832 214.381L128.222 226.612L132.894 229.549L137.57 232.483L148.15 225.331L158.74 218.178C158.759 218.166 158.775 218.149 158.786 218.128C158.796 218.108 158.802 218.085 158.801 218.063C158.8 218.039 158.792 218.017 158.78 217.997C158.768 217.978 158.751 217.961 158.731 217.95L144.179 209.98L129.643 202.05C129.623 202.039 129.6 202.034 129.577 202.034C129.554 202.034 129.532 202.04 129.512 202.052C129.492 202.063 129.475 202.079 129.462 202.098C129.45 202.118 129.443 202.14 129.442 202.163V202.151Z" fill="#FFD70D" stroke="black" stroke-width="0.915" stroke-miterlimit="10" stroke-linecap="round"/>
<path d="M67.8048 79.2356C69.034 83.8376 68.6295 88.7234 66.6602 93.0605C64.6908 97.3976 61.2785 100.918 57.0046 103.021C52.7307 105.124 47.8598 105.68 43.2219 104.594C38.584 103.508 34.4661 100.848 31.5699 97.0664C28.6737 93.2848 27.1784 88.6158 27.3388 83.8552C27.4993 79.0946 29.3056 74.5369 32.4498 70.9589C35.5941 67.3808 39.8818 65.0037 44.5823 64.2327C49.2828 63.4617 54.1052 64.3445 58.2278 66.7306C60.5688 68.0818 62.62 69.882 64.2634 72.0279C65.9069 74.1739 67.1104 76.6233 67.8048 79.2356Z" fill="#FFD70D" stroke="black" stroke-width="0.915" stroke-miterlimit="10" stroke-linecap="round"/>
<path d="M43.0635 167.301H105.076C105.877 178.247 107.313 189.136 109.377 199.915C112.686 216.769 118.316 234.752 127.594 239.23H206.049V242.551L134.591 242.511L63.1355 242.472C61.1683 239.818 59.5426 237.335 58.2159 235.152C56.8891 232.968 55.8582 231.056 55.0896 229.558C50.3408 220.307 47.6476 211.2 46.0281 202.639C44.4085 194.077 43.8656 186.062 43.4264 178.995C43.2678 176.445 43.1763 174.139 43.1214 172.163C43.0665 170.187 43.0635 168.531 43.0635 167.301Z" fill="#F8FAFC" stroke="black" stroke-width="0.915" stroke-miterlimit="10" stroke-linecap="round"/>
<path d="M33.2539 194.154H93.8879C97.2566 202.146 101.307 209.834 105.993 217.132C113.548 228.789 124.12 240.791 136.167 242.142L99.6494 242.31L63.1348 242.469C63.1348 242.469 57.535 238.681 50.9988 230.747C44.4627 222.814 36.9963 210.736 33.2539 194.154Z" fill="#C9CEFC" stroke="black" stroke-width="0.915" stroke-miterlimit="10" stroke-linecap="round"/>
<path d="M30.1338 204.926H83.9968C86.946 210.779 90.2197 216.463 93.8025 221.951C99.564 230.729 107.046 240.038 113.933 242.151L88.5291 242.31L63.1348 242.469C63.1348 242.469 58.5232 242.905 52.0968 238.43C45.6705 233.956 37.4172 224.574 30.1338 204.926Z" fill="#FFA170" stroke="black" stroke-width="0.915" stroke-miterlimit="10" stroke-linecap="round"/>
<path d="M144.049 148.593L147.483 156.099L150.914 163.605" stroke="black" stroke-width="0.915" stroke-miterlimit="10" stroke-linecap="round"/>
<path d="M139.043 105.515L130.637 108.391L122.229 111.264C123.141 113.479 124.342 115.564 125.8 117.464C128.924 121.587 133.308 124.577 138.287 125.98C139.689 126.377 141.124 126.65 142.575 126.794C142.989 124.869 143.206 122.907 143.222 120.938C143.236 118.89 143.04 116.846 142.636 114.838C142.302 113.174 141.826 111.541 141.212 109.958C140.617 108.418 139.891 106.931 139.043 105.515Z" fill="black" stroke="black" stroke-width="0.915" stroke-miterlimit="10" stroke-linecap="round"/>
<path d="M134.999 124.79C134.389 124.522 133.938 124.278 133.572 124.068C133.206 123.857 132.943 123.689 132.76 123.564C132.626 123.473 132.501 123.387 132.394 123.308L132.114 123.098H132.348L132.623 123.082C132.623 123.082 132.718 123.082 132.858 123.058C132.998 123.034 133.187 123.015 133.373 122.979C134.398 122.786 135.36 122.347 136.179 121.701C136.997 121.055 137.646 120.22 138.071 119.268C138.497 118.316 138.685 117.276 138.62 116.235C138.555 115.195 138.239 114.185 137.699 113.293C137.159 112.402 136.411 111.654 135.519 111.114C134.627 110.575 133.617 110.259 132.576 110.195C131.536 110.131 130.495 110.32 129.544 110.745C128.592 111.171 127.757 111.821 127.112 112.639C126.15 113.853 125.637 115.361 125.657 116.909C125.33 116.543 124.98 116.122 124.626 115.647C124.243 115.134 123.889 114.602 123.564 114.051C123.259 113.545 123.009 113.054 122.79 112.584C122.57 112.115 122.384 111.669 122.229 111.264L107.894 116.168L93.5586 121.073C93.6054 121.652 93.6674 122.234 93.7446 122.817C93.8219 123.401 93.9236 123.986 94.0496 124.574C95.5258 131.946 99.5823 138.07 104.95 142.02C110.318 145.97 116.955 147.736 123.665 146.394C128.376 145.438 132.671 143.037 135.954 139.525C139.281 135.965 141.571 131.563 142.575 126.794C141.664 126.701 140.759 126.558 139.864 126.367C139.062 126.197 138.369 126.01 137.79 125.834C137.485 125.736 137.061 125.605 136.588 125.434C136.115 125.263 135.56 125.05 134.999 124.79Z" fill="#BC7F7F" stroke="black" stroke-width="0.915" stroke-miterlimit="10" stroke-linecap="round"/>
<path d="M129.283 124.885C129.439 125.669 129.319 126.483 128.943 127.188C128.567 127.894 127.958 128.447 127.22 128.753C126.482 129.06 125.66 129.101 124.895 128.87C124.129 128.639 123.468 128.15 123.023 127.486C122.578 126.821 122.377 126.024 122.455 125.228C122.532 124.432 122.883 123.688 123.447 123.122C124.012 122.556 124.755 122.203 125.55 122.124C126.346 122.044 127.144 122.243 127.81 122.686C128.188 122.937 128.514 123.26 128.767 123.638C129.019 124.015 129.195 124.439 129.283 124.885Z" fill="#C71E07" stroke="black" stroke-width="0.915" stroke-miterlimit="10" stroke-linecap="round"/>
<path d="M112.761 139.58C112.918 140.364 112.798 141.178 112.422 141.883C112.046 142.589 111.437 143.142 110.698 143.448C109.96 143.755 109.138 143.796 108.373 143.565C107.608 143.334 106.947 142.845 106.502 142.18C106.057 141.516 105.856 140.718 105.933 139.923C106.011 139.127 106.361 138.383 106.926 137.817C107.49 137.251 108.234 136.898 109.029 136.819C109.824 136.739 110.623 136.938 111.288 137.381C111.667 137.632 111.992 137.956 112.245 138.333C112.498 138.711 112.673 139.134 112.761 139.58Z" fill="#C71E07" stroke="black" stroke-width="0.915" stroke-miterlimit="10" stroke-linecap="round"/>
<path d="M106.402 132.135C106.475 132.498 106.401 132.875 106.198 133.184C105.992 133.491 105.673 133.704 105.311 133.776C104.948 133.849 104.572 133.775 104.264 133.572C103.956 133.366 103.742 133.047 103.669 132.684C103.633 132.505 103.632 132.32 103.668 132.14C103.704 131.96 103.775 131.79 103.877 131.638C103.978 131.485 104.109 131.354 104.261 131.252C104.413 131.15 104.584 131.079 104.763 131.043C104.943 131.007 105.128 131.007 105.307 131.043C105.487 131.078 105.658 131.149 105.81 131.25C105.962 131.352 106.093 131.482 106.195 131.634C106.296 131.785 106.367 131.956 106.402 132.135Z" fill="#1C1917"/>
<path d="M118.419 123.869C118.482 124.186 118.434 124.515 118.282 124.801C118.13 125.086 117.884 125.31 117.586 125.434C117.287 125.558 116.955 125.575 116.646 125.481C116.336 125.388 116.069 125.19 115.889 124.922C115.709 124.653 115.628 124.331 115.659 124.009C115.69 123.687 115.832 123.386 116.06 123.158C116.289 122.929 116.589 122.786 116.911 122.754C117.232 122.722 117.555 122.803 117.824 122.982C118.132 123.187 118.346 123.507 118.419 123.869Z" fill="#1C1917"/>
<path d="M102.242 125.053C105.255 121.856 108.988 119.426 113.131 117.965C114.139 117.611 115.166 117.316 116.208 117.08" stroke="black" stroke-width="0.915" stroke-miterlimit="10" stroke-linecap="round"/>
<path d="M105.515 122.628L108.955 128.267L112.395 133.907L113.152 133.361L113.908 132.812" stroke="black" stroke-width="0.915" stroke-miterlimit="10" stroke-linecap="round"/>
<path d="M112.972 93.0186C106.795 94.2569 101.665 97.9169 98.2158 102.943C94.6255 108.272 92.9729 114.672 93.534 121.073L116.29 113.295L139.043 105.518C136.392 101.007 132.49 97.361 127.81 95.0225C123.222 92.7302 118.003 92.0254 112.972 93.0186Z" fill="#FFA170" stroke="black" stroke-width="0.915" stroke-miterlimit="10" stroke-linecap="round"/>
<path d="M130.543 119.145L132.196 117.101L133.846 115.055" stroke="black" stroke-width="0.915" stroke-miterlimit="10" stroke-linecap="round"/>
<path d="M102.172 118.117C103.125 120.499 103.337 123.113 102.782 125.617C102.263 128.003 100.977 130.154 99.122 131.741C98.4237 132.328 97.6516 132.822 96.8254 133.209C94.1841 134.434 91.1694 134.584 88.4196 133.626C87.0191 133.137 85.7452 132.342 84.6901 131.299C83.635 130.256 82.8253 128.991 82.3196 127.597C82.0087 126.739 81.8237 125.841 81.7706 124.931C81.6774 122.938 82.1377 120.959 83.1004 119.212C84.0825 117.452 85.5861 116.019 87.5778 115.445C88.7727 115.114 90.032 115.092 91.2378 115.381C92.0308 115.564 92.7973 115.847 93.5192 116.223C93.4765 116.699 93.4429 117.196 93.4246 117.715C93.4063 118.233 93.4002 118.773 93.4246 119.334C93.4246 119.639 93.4429 119.944 93.4582 120.225C93.4734 120.505 93.4948 120.798 93.5192 121.073L97.8441 119.596L102.172 118.117Z" fill="black" stroke="black" stroke-width="0.915" stroke-miterlimit="10" stroke-linecap="round"/>
<path d="M94.126 112.389L114.247 106.003L134.365 99.6158" stroke="black" stroke-width="0.915" stroke-miterlimit="10" stroke-linecap="round"/>
<path d="M100.214 110.458L100.995 114.356L101.775 118.254" stroke="black" stroke-width="0.915" stroke-miterlimit="10" stroke-linecap="round"/>
<path d="M108.175 107.991L108.913 111.675L109.651 115.36" stroke="black" stroke-width="0.915" stroke-miterlimit="10" stroke-linecap="round"/>
<path d="M117.9 105.005L118.626 108.625L119.352 112.246" stroke="black" stroke-width="0.915" stroke-miterlimit="10" stroke-linecap="round"/>
<path d="M127.788 101.858L128.474 105.28L129.161 108.705" stroke="black" stroke-width="0.915" stroke-miterlimit="10" stroke-linecap="round"/>
<path d="M115.656 137.695C116.552 137.785 117.457 137.648 118.285 137.296C119.627 136.707 121.03 135.344 121.235 132.242" stroke="black" stroke-width="0.915" stroke-miterlimit="10" stroke-linecap="round"/>
<path d="M225.038 93.4854C225.033 97.4367 223.659 101.264 221.149 104.316C218.639 107.368 215.149 109.454 211.272 110.221C207.396 110.988 203.374 110.387 199.891 108.521C196.408 106.655 193.68 103.639 192.172 99.9867C190.663 96.3347 190.467 92.2727 191.618 88.4926C192.769 84.7125 195.194 81.4482 198.481 79.2559C201.769 77.0636 205.715 76.0789 209.647 76.4696C213.578 76.8602 217.253 78.602 220.045 81.3983C221.632 82.9849 222.891 84.8694 223.747 86.9437C224.604 89.018 225.043 91.2411 225.038 93.4854Z" fill="#FFD70D" stroke="black" stroke-width="0.915" stroke-miterlimit="10" stroke-linecap="round"/>
<path d="M216.996 93.4853C216.993 95.5771 216.265 97.6032 214.936 99.2187C213.607 100.834 211.76 101.939 209.708 102.345C207.656 102.751 205.526 102.433 203.682 101.445C201.838 100.458 200.394 98.8611 199.595 96.928C198.796 94.9948 198.692 92.8445 199.3 90.8431C199.909 88.8418 201.192 87.1133 202.932 85.952C204.672 84.7907 206.76 84.2684 208.842 84.4742C210.924 84.6799 212.869 85.6009 214.348 87.0803C215.191 87.9203 215.858 88.9188 216.312 90.0181C216.767 91.1174 216.999 92.2958 216.996 93.4853Z" fill="#C9CEFC" stroke="black" stroke-width="0.915" stroke-miterlimit="10" stroke-linecap="round"/>
<path d="M141.096 155.995L144.426 162.232L147.76 168.466" fill="#104FC1"/>
<path d="M141.096 155.995L144.426 162.232L147.76 168.466" stroke="black" stroke-width="0.915" stroke-miterlimit="10" stroke-linecap="round"/>
<path d="M138.723 165.648L141.696 169.918L144.667 174.188" fill="#BC7F7F"/>
<path d="M138.723 165.648L141.696 169.918L144.667 174.188" stroke="black" stroke-width="0.915" stroke-miterlimit="10" stroke-linecap="round"/>
<path d="M209.095 165.127C206.96 163.181 203.12 160.375 199.268 157.569C195.416 154.763 191.558 151.957 189.438 150.011C188.526 149.076 187.383 148.398 186.125 148.046C184.867 147.695 183.538 147.681 182.273 148.007L171.705 150.725L161.14 153.445C160.698 153.558 160.252 153.662 159.81 153.766C159.368 153.869 158.92 153.967 158.477 154.071C157.281 154.325 156.151 154.828 155.162 155.547C154.369 156.1 153.811 156.928 153.597 157.871C153.541 158.182 153.534 158.5 153.576 158.813C153.597 158.978 153.633 159.141 153.686 159.298C153.963 160.134 154.653 160.823 155.635 161.314C156.793 161.853 158.054 162.136 159.331 162.144L160.011 162.162L160.692 162.181H160.997L161.64 162.205C165.254 162.364 168.045 162.486 170.229 162.87C172.413 163.254 173.971 163.898 175.109 165.102C175.463 165.453 175.72 165.889 175.856 166.368C176.176 167.265 176.585 168.127 177.076 168.942C178.323 171.119 179.848 173.124 181.615 174.905L176.43 185.236L171.245 195.563C171.934 195.987 172.678 196.408 173.474 196.819C174.27 197.231 175.124 197.631 176.03 198.009C178.22 198.92 180.497 199.605 182.825 200.052C184.682 200.407 186.564 200.617 188.453 200.681L198.786 182.902L209.095 165.127Z" fill="#BC7F7F" stroke="black" stroke-width="0.915" stroke-miterlimit="10" stroke-linecap="round"/>
<path d="M175.756 166.527C176.887 168.942 178.331 171.198 180.05 173.237C182.876 176.644 186.562 179.234 190.725 180.737C192.222 181.259 193.768 181.628 195.34 181.838C196.635 182.011 197.941 182.084 199.247 182.054" stroke="black" stroke-width="0.915" stroke-miterlimit="10" stroke-linecap="round"/>
<path d="M55.7576 109.507L48.4376 99.2559L41.1176 89.0079C40.9096 88.7193 40.7385 88.4058 40.6082 88.0746C40.4776 87.7458 40.3964 87.3994 40.3673 87.0468C40.3001 86.2094 40.4991 85.3721 40.936 84.6546C41.3729 83.937 42.0254 83.3759 42.8002 83.0512C43.5751 82.7265 44.4327 82.6549 45.2506 82.8466C46.0685 83.0384 46.805 83.4836 47.3548 84.1188L49.7399 86.2843L52.1281 88.4498C52.3982 88.6963 52.6068 89.0026 52.7371 89.3442C52.8674 89.6859 52.9158 90.0533 52.8784 90.417C52.8456 90.7782 52.7233 91.1254 52.5225 91.4274C52.3218 91.7293 52.0489 91.9765 51.7285 92.1464C51.3985 92.3212 51.0299 92.4107 50.6565 92.4067C50.283 92.4027 49.9164 92.3053 49.5902 92.1234C49.264 91.9415 48.9885 91.6809 48.7888 91.3653C48.589 91.0497 48.4715 90.6891 48.4467 90.3164L48.221 86.9248L47.9984 83.5332C47.9451 82.6532 48.1217 81.7745 48.5108 80.9834C48.8764 80.2347 49.4574 79.6124 50.1791 79.1961C50.8061 78.847 51.5143 78.6702 52.2318 78.6837C52.5859 78.6846 52.9385 78.7307 53.281 78.8209C53.5197 78.8895 53.7507 78.9825 53.9703 79.0985C54.1685 79.2006 54.3573 79.32 54.5345 79.4553C54.8764 79.7177 55.1723 80.0352 55.4099 80.3948C55.6496 80.7588 55.8336 81.1567 55.9558 81.5751C57.1392 85.6011 58.3236 89.6251 59.5091 93.647L63.0623 105.719" stroke="black" stroke-width="0.915" stroke-miterlimit="10" stroke-linecap="round"/>
<path d="M69.6896 111.746L63.1504 115.15L56.6142 118.553L53.2104 112.017L49.8066 105.481L56.3428 102.077L62.882 98.6735L66.2858 105.21L69.6896 111.746Z" fill="#FFA170" stroke="black" stroke-width="0.915" stroke-miterlimit="10" stroke-linecap="round"/>
<path d="M52.0449 109.779L58.639 106.485L65.2331 103.194" stroke="black" stroke-width="0.915" stroke-miterlimit="10" stroke-linecap="round"/>
<path d="M54.3867 114.274L60.9808 110.98L67.5749 107.689" stroke="black" stroke-width="0.915" stroke-miterlimit="10" stroke-linecap="round"/>
<path d="M210.248 216.714L214.381 219.481C216.836 221.128 220.075 223.296 223.198 225.383C236.829 234.493 240.028 236.573 240.297 236.692C240.565 236.811 237.896 234.978 239.79 236.265C240.312 236.619 241.202 237.223 242.416 237.976C243.63 238.729 245.161 239.629 246.958 240.569C247.803 241.008 248.577 241.389 249.255 241.709C249.932 242.029 250.514 242.295 250.969 242.493L237.125 242.27L223.281 242.048C221.109 237.827 218.936 233.604 216.763 229.381L210.248 216.714Z" fill="black" stroke="black" stroke-width="0.915" stroke-miterlimit="10" stroke-linecap="round"/>
<path d="M122.525 210.797C122.525 211.211 122.382 211.612 122.12 211.932C121.858 212.252 121.494 212.471 121.088 212.552C120.683 212.633 120.262 212.571 119.897 212.377C119.532 212.182 119.246 211.867 119.087 211.485C118.928 211.103 118.907 210.678 119.027 210.283C119.146 209.887 119.399 209.545 119.743 209.315C120.087 209.084 120.499 208.981 120.911 209.021C121.323 209.061 121.708 209.243 122 209.535C122.167 209.7 122.299 209.897 122.389 210.114C122.479 210.33 122.525 210.563 122.525 210.797Z" fill="black" stroke="black" stroke-width="0.915" stroke-miterlimit="10" stroke-linecap="round"/>
</svg>
