<svg width="305" height="305" viewBox="0 0 305 305" fill="none" xmlns="http://www.w3.org/2000/svg">
<path d="M289.311 253.986H191.918H94.5254V231.223V208.461H191.918H289.311V231.223V253.986Z" fill="#61A672" stroke="black" stroke-width="0.915" stroke-miterlimit="10" stroke-linecap="round"/>
<path d="M155.031 94.1473C155.031 94.1473 146.832 94.7329 137.859 99.7349C128.886 104.737 119.071 114.161 115.899 131.833L111.459 157.029L107.015 182.228L100.305 188.057L93.5947 193.885L98.8743 216.946L104.151 240.004L122.42 224.233L140.69 208.461H275.881L271.144 202.081L266.414 195.7L274.194 179.401L281.969 163.099C281.969 163.099 283.826 159.417 283.909 153.723C283.991 148.029 282.292 140.324 275.189 132.275L261.897 116.72L248.608 101.165C248.608 101.165 248.446 100.985 248.135 100.668C247.824 100.351 247.357 99.8905 246.754 99.3293C241.411 94.3628 235.019 90.6631 228.051 88.5048C221.08 86.342 213.715 85.7586 206.49 86.7968L180.761 90.4568L155.031 94.1473Z" fill="#104FC1" stroke="black" stroke-width="0.915" stroke-miterlimit="10" stroke-linecap="round"/>
<path d="M275.882 208.461L271.145 202.081L266.415 195.7L260.845 202.191L255.285 208.681L265.585 208.571L275.882 208.461Z" fill="black" stroke="black" stroke-width="0.915" stroke-miterlimit="10" stroke-linecap="round"/>
<path d="M173.163 95.3979L176.643 101.245L180.123 107.089L182.093 99.5825L184.067 92.0795L178.613 93.7387L173.163 95.3979Z" fill="#F8FAFC" stroke="black" stroke-width="0.915" stroke-miterlimit="10" stroke-linecap="round"/>
<path d="M159.869 93.4703L159.796 109.346L159.723 125.221L169.937 115.995L180.152 106.771L175.531 99.3446L170.91 91.9209L165.39 92.6956L159.869 93.4703Z" fill="#104FC1" stroke="black" stroke-width="0.915" stroke-miterlimit="10" stroke-linecap="round"/>
<path d="M184.437 89.981L182.28 98.5363L180.124 107.088L192.949 114.219L205.771 121.353L201.175 104.798L196.576 88.2426L190.506 89.1118L184.437 89.981Z" fill="#104FC1" stroke="black" stroke-width="0.915" stroke-miterlimit="10" stroke-linecap="round"/>
<path d="M196.777 68.2162L188.847 67.9265L180.917 67.6215C180.96 69.8261 181.293 72.0155 181.908 74.1332C182.76 77.0788 184.214 79.8155 186.178 82.17C187.195 83.4056 188.327 84.5422 189.558 85.5646C190.535 86.3733 191.598 87.0728 192.727 87.6508C193.724 86.1352 194.563 84.5215 195.231 82.8349C196.505 79.6149 197.163 76.1841 197.17 72.7211C197.166 71.2111 197.034 69.7042 196.777 68.2162Z" fill="black" stroke="black" stroke-width="0.915" stroke-miterlimit="10" stroke-linecap="round"/>
<path d="M187.386 83.4907L187.151 83.2558L187.017 83.1155C185.889 81.8114 184.939 80.3632 184.193 78.8089C183.455 77.2561 182.852 75.6428 182.39 73.9869C182.326 73.7612 181.924 72.1569 181.555 70.6319C181.186 69.1069 180.847 67.6246 180.905 67.6276L166.945 67.0573L152.985 66.49C152.833 67.0044 152.693 67.526 152.567 68.0546C152.441 68.5833 152.331 69.1191 152.235 69.662C151.048 76.4848 152.363 83.082 155.529 88.2365C158.695 93.391 163.709 97.115 169.922 98.1978C174.285 98.9471 178.774 98.317 182.762 96.3952C186.805 94.4426 190.236 91.4207 192.684 87.657C192.528 87.8918 191.513 87.1507 190.384 86.1991C189.256 85.2475 188.005 84.0946 187.386 83.4907Z" fill="#BC7F7F" stroke="black" stroke-width="0.915" stroke-miterlimit="10" stroke-linecap="round"/>
<path d="M180.301 82.1944C180.174 82.9192 179.799 83.5774 179.241 84.0571C178.683 84.5367 177.976 84.8081 177.24 84.825C176.505 84.8418 175.786 84.6031 175.207 84.1495C174.627 83.6959 174.223 83.0555 174.063 82.3373C173.902 81.6191 173.996 80.8675 174.328 80.2107C174.66 79.5538 175.209 79.0323 175.882 78.7349C176.555 78.4375 177.31 78.3826 178.019 78.5796C178.728 78.7767 179.347 79.2134 179.77 79.8154C180.011 80.1573 180.182 80.5435 180.273 80.9518C180.364 81.3601 180.374 81.7824 180.301 82.1944Z" fill="#C71E07" stroke="black" stroke-width="0.61" stroke-miterlimit="10" stroke-linecap="round"/>
<path d="M163.98 87.6814C163.854 88.408 163.48 89.0684 162.921 89.5501C162.363 90.0317 161.655 90.3048 160.918 90.3229C160.18 90.3409 159.46 90.1028 158.878 89.649C158.297 89.1952 157.891 88.5539 157.73 87.8343C157.568 87.1148 157.661 86.3615 157.993 85.7029C158.325 85.0442 158.875 84.521 159.549 84.2224C160.223 83.9237 160.98 83.8682 161.691 84.0651C162.401 84.262 163.022 84.6993 163.446 85.3024C163.688 85.6438 163.86 86.03 163.952 86.4384C164.043 86.8467 164.053 87.2693 163.98 87.6814Z" fill="#C71E07" stroke="black" stroke-width="0.61" stroke-miterlimit="10" stroke-linecap="round"/>
<path d="M165.456 88.6024C166.256 88.9777 167.139 89.1435 168.021 89.0843C169.455 88.9775 171.19 88.1693 172.395 85.3633" stroke="black" stroke-width="0.915" stroke-miterlimit="10" stroke-linecap="round"/>
<path d="M160.357 80.2942C160.306 80.5868 160.155 80.8527 159.931 81.0468C159.706 81.2408 159.421 81.3508 159.124 81.3582C158.827 81.3656 158.537 81.2699 158.302 81.0873C158.068 80.9047 157.904 80.6466 157.839 80.3569C157.774 80.0672 157.811 79.7638 157.944 79.4984C158.077 79.233 158.299 79.022 158.57 78.9013C158.841 78.7806 159.146 78.7578 159.432 78.8365C159.719 78.9153 159.969 79.0909 160.14 79.3334C160.337 79.6123 160.415 79.9579 160.357 80.2942Z" fill="#1C1917"/>
<path d="M173.432 77.1924C173.382 77.4869 173.232 77.755 173.006 77.9509C172.781 78.1467 172.494 78.2582 172.195 78.2664C171.897 78.2745 171.605 78.1787 171.369 77.9954C171.133 77.8121 170.968 77.5526 170.902 77.2612C170.836 76.9698 170.873 76.6646 171.007 76.3976C171.141 76.1307 171.364 75.9185 171.637 75.7974C171.91 75.6762 172.217 75.6536 172.505 75.7334C172.793 75.8131 173.044 75.9903 173.216 76.2347C173.412 76.5128 173.489 76.8571 173.432 77.1924Z" fill="#1C1917"/>
<path d="M159.243 72.8949L166.331 71.3333L173.42 69.7687" stroke="black" stroke-width="0.915" stroke-miterlimit="10" stroke-linecap="round"/>
<path d="M162.863 72.0958L163.94 78.0891L165.017 84.0793L165.849 83.8597L166.682 83.6431" stroke="black" stroke-width="0.915" stroke-miterlimit="10" stroke-linecap="round"/>
<path d="M178.778 48.8365C173.124 47.8514 167.557 49.2971 162.964 52.4752C158.139 55.8812 154.619 60.8299 152.984 66.5052L174.88 67.3622L196.773 68.2223C196.022 63.4784 193.916 59.0524 190.71 55.4764C187.587 51.9916 183.386 49.6539 178.778 48.8365Z" fill="#FFA170" stroke="black" stroke-width="0.915" stroke-miterlimit="10" stroke-linecap="round"/>
<path d="M185.419 77.1771L187.52 75.9693L189.622 74.7615" stroke="black" stroke-width="0.915" stroke-miterlimit="10" stroke-linecap="round"/>
<path d="M161.39 66.8406C161.42 69.2094 160.734 71.5321 159.423 73.5048C158.182 75.3829 156.361 76.8034 154.238 77.5491C153.443 77.8225 152.615 77.9887 151.776 78.0432C151.026 78.0938 150.272 78.06 149.529 77.9426C147.64 77.656 145.869 76.8455 144.417 75.6032C143.376 74.7152 142.546 73.6072 141.986 72.3593C141.426 71.1113 141.15 69.7546 141.178 68.3869C141.198 67.5467 141.339 66.7137 141.596 65.9134C142.181 64.1716 143.237 62.6253 144.646 61.4451C146.073 60.2617 147.845 59.5297 149.745 59.7005C150.884 59.8145 151.974 60.2166 152.914 60.8687C153.534 61.2903 154.099 61.7883 154.595 62.351C154.399 62.7444 154.204 63.1592 154.015 63.5984C153.826 64.0376 153.64 64.5134 153.466 64.9892C153.373 65.2515 153.284 65.5108 153.201 65.767C153.115 66.0201 153.039 66.2702 152.969 66.5142L157.175 66.685L161.39 66.8406Z" fill="black" stroke="black" stroke-width="0.915" stroke-miterlimit="10" stroke-linecap="round"/>
<path d="M156.449 59.1151L175.606 60.3961L194.763 61.6741" stroke="black" stroke-width="0.915" stroke-miterlimit="10" stroke-linecap="round"/>
<path d="M162.26 59.6091L161.631 63.2173L161.003 66.8254" stroke="black" stroke-width="0.915" stroke-miterlimit="10" stroke-linecap="round"/>
<path d="M169.922 60.1428L169.327 63.5527L168.735 66.9626" stroke="black" stroke-width="0.915" stroke-miterlimit="10" stroke-linecap="round"/>
<path d="M179.273 60.8199L178.69 64.1719L178.104 67.5208" stroke="black" stroke-width="0.915" stroke-miterlimit="10" stroke-linecap="round"/>
<path d="M188.816 61.4055L188.264 64.5775L187.712 67.7465" stroke="black" stroke-width="0.915" stroke-miterlimit="10" stroke-linecap="round"/>
<path d="M176.595 48.7999C177.065 48.8241 177.523 48.9533 177.937 49.1781C178.37 49.3916 178.788 49.6509 179.181 49.8491C182.306 51.4766 184.91 53.9497 186.696 56.9861C188.504 60.0108 189.587 63.413 189.859 66.9261L193.138 66.9566L196.42 66.9901C196.337 66.5784 196.225 66.0751 196.072 65.5109C195.92 64.9466 195.727 64.2909 195.483 63.6199C194.591 61.1366 193.343 58.7962 191.778 56.672C190.235 54.5184 188.29 52.6841 186.05 51.2704C185.153 50.7359 184.203 50.2954 183.216 49.9559C182.232 49.6111 181.222 49.3429 180.197 49.1537C179.601 49.0399 179.002 48.9545 178.4 48.8975C177.815 48.8396 177.205 48.7999 176.595 48.7999Z" fill="#C9CEFC" stroke="black" stroke-width="0.915" stroke-miterlimit="10" stroke-linecap="round"/>
<path d="M197.741 90.6581H187.734C186.687 90.6581 185.683 90.2423 184.943 89.5022C184.203 88.762 183.787 87.7582 183.787 86.7114V71.1778C183.788 70.1316 184.204 69.1285 184.944 68.389C185.684 67.6495 186.688 67.2341 187.734 67.2341H197.741C198.787 67.2341 199.79 67.6495 200.531 68.389C201.271 69.1285 201.687 70.1316 201.688 71.1778V86.7114C201.688 87.7582 201.272 88.762 200.532 89.5022C199.791 90.2423 198.788 90.6581 197.741 90.6581Z" fill="#C9CEFC" stroke="black" stroke-width="0.915" stroke-miterlimit="10" stroke-linecap="round"/>
<path d="M229.339 246.775H218.822V240.438C218.823 239.156 219.333 237.927 220.239 237.02C221.145 236.114 222.375 235.604 223.657 235.603H224.504C225.139 235.603 225.768 235.728 226.355 235.97C226.942 236.213 227.475 236.569 227.924 237.018C228.373 237.467 228.729 238 228.972 238.587C229.214 239.174 229.339 239.803 229.339 240.438V246.775Z" fill="#FFA170" stroke="black" stroke-width="0.915" stroke-miterlimit="10" stroke-linecap="round"/>
<path d="M194.669 85.4151H190.805C190.044 85.4143 189.314 85.1117 188.776 84.5736C188.238 84.0356 187.935 83.306 187.935 82.5451V75.3349C187.935 74.5734 188.237 73.8431 188.775 73.3044C189.313 72.7657 190.043 72.4626 190.805 72.4618H194.669C195.43 72.4626 196.16 72.7657 196.699 73.3044C197.237 73.8431 197.539 74.5734 197.539 75.3349V82.5329C197.538 83.2938 197.236 84.0234 196.698 84.5614C196.159 85.0995 195.43 85.4021 194.669 85.4029V85.4151Z" fill="#C9CEFC" stroke="black" stroke-width="0.915" stroke-miterlimit="10" stroke-linecap="round"/>
<path d="M142.697 161.186C142.364 169.063 142.033 176.943 141.706 184.824L140.718 208.461" stroke="black" stroke-width="0.915" stroke-miterlimit="10" stroke-linecap="round"/>
<path d="M175.805 208.461L177.976 157.615L180.151 106.771C180.153 106.741 180.166 106.713 180.187 106.692C180.209 106.67 180.237 106.657 180.267 106.655C180.297 106.652 180.327 106.659 180.352 106.677C180.377 106.694 180.394 106.72 180.401 106.75L196.029 157.606L211.67 208.461H175.805Z" fill="#F8FAFC" stroke="black" stroke-width="0.915" stroke-miterlimit="10" stroke-linecap="round"/>
<path d="M262.666 203.331L245.391 194.91L228.115 186.492L221.604 195.584L215.092 204.679C214.339 205.64 213.567 206.589 212.792 207.534C212.018 208.48 211.237 209.416 210.456 210.355C209.392 211.609 208.587 213.06 208.086 214.625C207.424 216.772 207.575 219.088 208.51 221.131L210.84 227.56L213.167 233.987C213.444 234.777 213.803 235.535 214.238 236.25C214.897 237.311 215.848 238.364 217.062 238.461C217.207 238.475 217.353 238.475 217.498 238.461C217.724 238.44 217.943 238.377 218.145 238.275C218.436 238.105 218.69 237.876 218.889 237.604C219.088 237.332 219.23 237.021 219.304 236.692C219.532 235.809 219.567 234.888 219.408 233.99L219.011 229.604L218.612 225.218C218.571 224.762 218.639 224.303 218.81 223.879C218.981 223.455 219.251 223.077 219.597 222.778L223.171 219.691L226.746 216.602C226.909 216.461 227.101 216.357 227.308 216.297C227.515 216.238 227.733 216.224 227.946 216.257C228.159 216.29 228.362 216.369 228.542 216.489C228.721 216.608 228.872 216.766 228.985 216.949L231.87 221.659L234.752 226.368C234.964 226.711 235.093 227.098 235.13 227.499C235.168 227.901 235.113 228.305 234.972 228.683L230.915 239.391L226.859 250.106C226.579 250.838 226.386 251.601 226.285 252.378C226.174 253.153 226.217 253.941 226.411 254.699C226.51 255.072 226.699 255.414 226.962 255.696C227.225 255.977 227.553 256.19 227.917 256.316C228.282 256.439 228.669 256.484 229.053 256.448C229.437 256.411 229.808 256.295 230.144 256.105C230.964 255.61 231.662 254.936 232.187 254.135C232.752 253.342 233.24 252.479 233.764 251.729L235.274 249.444L236.781 247.163C237.31 247.684 237.905 248.134 238.553 248.499C239.632 249.123 240.866 249.432 242.112 249.389C242.536 249.372 242.957 249.31 243.369 249.203C243.709 249.121 244.042 249.013 244.366 248.88C244.613 249.19 244.9 249.464 245.22 249.697C245.792 250.122 246.465 250.39 247.172 250.475C247.74 250.539 248.315 250.459 248.844 250.243C249.374 250.027 249.84 249.681 250.201 249.237L256.346 241.648L262.492 234.063C263.685 232.6 264.271 230.736 264.13 228.854L263.865 225.27C263.773 224.074 263.684 222.88 263.596 221.686L263.136 212.509L262.666 203.331Z" fill="#BC7F7F" stroke="black" stroke-width="0.915" stroke-miterlimit="10" stroke-linecap="round"/>
<path d="M236.78 247.172L240.016 241.386L243.252 235.603" stroke="black" stroke-width="0.915" stroke-miterlimit="10" stroke-linecap="round"/>
<path d="M244.366 248.874L248.758 241.517L253.15 234.161" stroke="black" stroke-width="0.915" stroke-miterlimit="10" stroke-linecap="round"/>
<path d="M277.281 246.775H266.765V240.438C266.765 239.156 267.275 237.927 268.181 237.02C269.088 236.114 270.317 235.604 271.599 235.603H272.447C273.082 235.603 273.711 235.728 274.297 235.97C274.884 236.213 275.417 236.569 275.866 237.018C276.315 237.467 276.671 238 276.914 238.587C277.157 239.174 277.281 239.803 277.281 240.438V246.775Z" fill="#FFA170" stroke="black" stroke-width="0.915" stroke-miterlimit="10" stroke-linecap="round"/>
<path d="M274.997 228.091C274.997 228.78 274.759 229.448 274.323 229.981C273.887 230.514 273.279 230.879 272.604 231.014C271.928 231.149 271.227 231.046 270.619 230.722C270.011 230.397 269.535 229.873 269.27 229.236C269.006 228.6 268.971 227.892 269.171 227.233C269.37 226.573 269.792 226.004 270.365 225.621C270.937 225.238 271.625 225.065 272.311 225.133C272.996 225.2 273.637 225.503 274.124 225.99C274.401 226.265 274.621 226.592 274.771 226.953C274.92 227.314 274.997 227.701 274.997 228.091Z" fill="#FFD70D" stroke="black" stroke-width="0.915" stroke-miterlimit="10" stroke-linecap="round"/>
<path d="M274.997 215.772C274.997 216.461 274.759 217.129 274.323 217.662C273.887 218.195 273.279 218.56 272.604 218.695C271.928 218.83 271.227 218.727 270.619 218.403C270.011 218.078 269.535 217.553 269.27 216.917C269.006 216.281 268.971 215.573 269.171 214.914C269.37 214.254 269.792 213.685 270.365 213.302C270.937 212.919 271.625 212.746 272.311 212.813C272.996 212.881 273.637 213.184 274.124 213.671C274.401 213.946 274.621 214.273 274.771 214.634C274.92 214.995 274.997 215.382 274.997 215.772Z" fill="#FFD70D" stroke="black" stroke-width="0.915" stroke-miterlimit="10" stroke-linecap="round"/>
<path d="M229.338 228.091C229.339 228.78 229.101 229.448 228.665 229.981C228.228 230.514 227.621 230.879 226.945 231.014C226.27 231.149 225.568 231.046 224.961 230.722C224.353 230.397 223.876 229.873 223.612 229.236C223.348 228.6 223.313 227.892 223.512 227.233C223.712 226.573 224.134 226.004 224.707 225.621C225.279 225.238 225.967 225.065 226.652 225.133C227.338 225.2 227.979 225.503 228.466 225.99C228.743 226.265 228.963 226.592 229.113 226.953C229.262 227.314 229.339 227.701 229.338 228.091Z" fill="#FFD70D" stroke="black" stroke-width="0.915" stroke-miterlimit="10" stroke-linecap="round"/>
<path d="M186.297 225.77C186.296 226.281 186.119 226.775 185.794 227.17C185.47 227.564 185.018 227.834 184.517 227.933C184.016 228.032 183.496 227.954 183.046 227.713C182.596 227.472 182.243 227.082 182.048 226.61C181.853 226.138 181.828 225.613 181.976 225.124C182.125 224.636 182.438 224.214 182.863 223.93C183.288 223.646 183.798 223.519 184.306 223.569C184.814 223.619 185.29 223.844 185.651 224.205C185.856 224.411 186.019 224.655 186.13 224.923C186.241 225.192 186.298 225.479 186.297 225.77Z" fill="#FFA170" stroke="black" stroke-width="0.915" stroke-miterlimit="10" stroke-linecap="round"/>
<path d="M200.937 227.567H191.54C191.055 227.567 190.589 227.374 190.246 227.031C189.903 226.687 189.71 226.222 189.71 225.737V225.395C189.71 224.91 189.903 224.444 190.246 224.101C190.589 223.758 191.055 223.565 191.54 223.565H200.925C201.41 223.565 201.876 223.758 202.219 224.101C202.562 224.444 202.755 224.91 202.755 225.395V225.718C202.755 226.204 202.562 226.669 202.219 227.012C201.876 227.355 201.41 227.548 200.925 227.548L200.937 227.567Z" fill="#C71E07" stroke="black" stroke-width="0.915" stroke-miterlimit="10" stroke-linecap="round"/>
<path d="M186.297 237.766C186.296 238.277 186.119 238.771 185.794 239.166C185.47 239.56 185.018 239.83 184.517 239.929C184.016 240.028 183.496 239.95 183.046 239.709C182.596 239.468 182.243 239.078 182.048 238.606C181.853 238.134 181.828 237.609 181.976 237.12C182.125 236.631 182.438 236.209 182.863 235.926C183.288 235.642 183.798 235.515 184.306 235.565C184.814 235.615 185.29 235.84 185.651 236.201C185.856 236.406 186.019 236.65 186.13 236.919C186.241 237.187 186.298 237.475 186.297 237.766Z" fill="#FFA170" stroke="black" stroke-width="0.915" stroke-miterlimit="10" stroke-linecap="round"/>
<path d="M200.937 239.562H191.54C191.055 239.562 190.589 239.369 190.246 239.026C189.903 238.683 189.71 238.218 189.71 237.732V237.409C189.71 236.924 189.903 236.458 190.246 236.115C190.589 235.772 191.055 235.579 191.54 235.579H200.925C201.41 235.579 201.876 235.772 202.219 236.115C202.562 236.458 202.755 236.924 202.755 237.409V237.732C202.755 238.218 202.562 238.683 202.219 239.026C201.876 239.369 201.41 239.562 200.925 239.562H200.937Z" fill="#C71E07" stroke="black" stroke-width="0.915" stroke-miterlimit="10" stroke-linecap="round"/>
<path d="M172.26 247.007H150.511C150.234 247.007 149.96 246.953 149.704 246.847C149.448 246.74 149.215 246.585 149.02 246.389C148.824 246.193 148.669 245.96 148.563 245.704C148.457 245.448 148.403 245.174 148.403 244.897V216.401C148.403 216.124 148.457 215.849 148.563 215.594C148.669 215.338 148.824 215.105 149.02 214.909C149.215 214.714 149.448 214.558 149.704 214.453C149.96 214.347 150.234 214.293 150.511 214.293H172.26C172.819 214.293 173.355 214.515 173.751 214.91C174.146 215.306 174.368 215.842 174.368 216.401V244.897C174.367 245.456 174.145 245.992 173.75 246.387C173.355 246.783 172.819 247.006 172.26 247.007Z" fill="#104FC1" stroke="black" stroke-width="0.915" stroke-miterlimit="10" stroke-linecap="round"/>
<path d="M169.885 243.957H152.9C152.66 243.958 152.423 243.911 152.201 243.819C151.98 243.727 151.779 243.592 151.61 243.421C151.441 243.251 151.308 243.049 151.218 242.827C151.128 242.605 151.083 242.367 151.085 242.127V219.155C151.085 218.916 151.131 218.68 151.222 218.46C151.313 218.239 151.447 218.039 151.616 217.871C151.784 217.702 151.984 217.568 152.205 217.477C152.425 217.386 152.661 217.34 152.9 217.34H169.885C170.124 217.34 170.36 217.386 170.58 217.477C170.801 217.568 171.001 217.702 171.169 217.871C171.338 218.039 171.472 218.239 171.563 218.46C171.654 218.68 171.7 218.916 171.7 219.155V242.143C171.702 242.382 171.657 242.62 171.567 242.842C171.477 243.064 171.344 243.266 171.175 243.437C171.006 243.607 170.805 243.742 170.584 243.834C170.362 243.926 170.125 243.973 169.885 243.973V243.957Z" fill="#F8FAFC" stroke="black" stroke-width="0.915" stroke-miterlimit="10" stroke-linecap="round"/>
<path d="M84.0094 128.618C84.3327 129.259 84.2016 130.055 83.7258 130.827C83.1225 131.694 82.3142 132.398 81.3728 132.877C80.4315 133.356 79.3863 133.594 78.3303 133.572C77.4153 133.508 76.7047 133.145 76.3783 132.507C76.052 131.87 76.1831 131.071 76.6589 130.299C77.2622 129.432 78.0705 128.728 79.0119 128.249C79.9533 127.77 80.9984 127.531 82.0544 127.554C82.9602 127.621 83.6831 127.981 84.0094 128.618Z" fill="black" stroke="black" stroke-width="0.915" stroke-miterlimit="10" stroke-linecap="round"/>
<path d="M83.7954 128.832L81.1999 117.041L78.6074 105.249C78.5987 105.204 78.6047 105.157 78.6247 105.116C78.6447 105.075 78.6776 105.041 78.7184 105.019C78.7592 104.998 78.8057 104.991 78.8511 104.998C78.8965 105.005 78.9383 105.027 78.9704 105.06L83.9296 108.415L88.8889 111.77" stroke="black" stroke-width="1.525" stroke-miterlimit="10" stroke-linecap="round"/>
<path d="M267.271 88.5079C267.503 89.0752 267.332 89.7431 266.868 90.3653C266.292 91.0606 265.554 91.6024 264.718 91.9425C263.881 92.2826 262.974 92.4103 262.077 92.3143C261.311 92.1923 260.722 91.8324 260.491 91.2651C260.259 90.6978 260.43 90.0268 260.893 89.4046C261.469 88.7091 262.209 88.1671 263.045 87.827C263.882 87.4869 264.79 87.3593 265.688 87.4556C266.45 87.5776 267.039 87.9375 267.271 88.5079Z" fill="black" stroke="black" stroke-width="0.915" stroke-miterlimit="10" stroke-linecap="round"/>
<path d="M283.555 83.5699C283.787 84.1372 283.616 84.8082 283.152 85.4273C282.576 86.1215 281.837 86.6627 281.001 87.0032C280.165 87.3436 279.258 87.4728 278.361 87.3793C277.595 87.2543 277.007 86.8944 276.775 86.3271C276.543 85.7598 276.714 85.0918 277.177 84.4696C277.753 83.7741 278.493 83.2321 279.329 82.8921C280.166 82.552 281.074 82.4244 281.972 82.5207C282.734 82.6305 283.323 82.9904 283.555 83.5699Z" fill="black" stroke="black" stroke-width="0.915" stroke-miterlimit="10" stroke-linecap="round"/>
<path d="M267.098 88.5079L267.14 78.5985L267.186 68.689C267.186 68.3087 267.307 67.9382 267.531 67.6307C267.745 67.3325 268.055 67.1171 268.409 67.0207L274.918 65.27L281.43 63.5223C281.669 63.4562 281.92 63.4494 282.163 63.5026C282.405 63.5557 282.631 63.6672 282.82 63.8273C283.016 63.9968 283.173 64.2073 283.278 64.444C283.384 64.6807 283.436 64.9377 283.43 65.1968L283.388 74.3742L283.345 83.57" stroke="black" stroke-width="1.525" stroke-miterlimit="10" stroke-linecap="round"/>
<path d="M98.9481 170.437C99.1799 171.007 99.009 171.675 98.5485 172.297C97.9712 172.991 97.2316 173.532 96.3953 173.872C95.559 174.212 94.6517 174.341 93.7539 174.246C92.9884 174.124 92.3997 173.765 92.171 173.194C91.9422 172.624 92.11 171.959 92.5705 171.337C93.1478 170.643 93.8874 170.102 94.7237 169.762C95.56 169.422 96.4673 169.293 97.3651 169.388C98.1307 169.51 98.7193 169.885 98.9481 170.437Z" fill="black" stroke="black" stroke-width="0.915" stroke-miterlimit="10" stroke-linecap="round"/>
<path d="M115.232 165.49C115.464 166.057 115.293 166.728 114.833 167.347C114.256 168.042 113.516 168.583 112.68 168.924C111.844 169.264 110.936 169.393 110.038 169.299C109.273 169.174 108.684 168.814 108.455 168.247C108.226 167.68 108.394 167.027 108.855 166.39C109.432 165.696 110.172 165.155 111.008 164.815C111.844 164.475 112.751 164.346 113.649 164.441C114.415 164.563 115.003 164.923 115.232 165.49Z" fill="black" stroke="black" stroke-width="0.915" stroke-miterlimit="10" stroke-linecap="round"/>
<path d="M98.7744 170.437L98.8202 160.531L98.8629 150.621C98.8651 150.241 98.9855 149.871 99.2075 149.563C99.4216 149.265 99.7317 149.049 100.086 148.953L106.598 147.202L113.106 145.451C113.346 145.385 113.597 145.378 113.84 145.432C114.082 145.485 114.308 145.596 114.497 145.756C114.693 145.926 114.85 146.136 114.955 146.373C115.06 146.61 115.112 146.867 115.107 147.126L115.064 156.303L115.025 165.478" stroke="black" stroke-width="1.525" stroke-miterlimit="10" stroke-linecap="round"/>
<path d="M247.01 132.446C247.266 133.075 247.077 133.816 246.564 134.505C245.927 135.276 245.108 135.877 244.181 136.255C243.255 136.632 242.249 136.774 241.254 136.667C240.406 136.533 239.754 136.134 239.497 135.502C239.241 134.871 239.43 134.133 239.943 133.444C240.582 132.673 241.402 132.073 242.33 131.695C243.257 131.318 244.263 131.176 245.259 131.281C246.104 131.418 246.744 131.818 247.01 132.446Z" fill="black" stroke="black" stroke-width="0.915" stroke-miterlimit="10" stroke-linecap="round"/>
<path d="M246.784 132.446V123.083V113.719" stroke="black" stroke-width="1.525" stroke-miterlimit="10" stroke-linecap="round"/>
<path d="M168.08 157.685C168.079 158.133 167.923 158.567 167.638 158.913C167.354 159.259 166.958 159.495 166.518 159.582C166.079 159.669 165.623 159.601 165.228 159.389C164.833 159.178 164.524 158.836 164.353 158.422C164.182 158.008 164.159 157.547 164.29 157.119C164.42 156.69 164.695 156.32 165.067 156.071C165.44 155.823 165.887 155.711 166.333 155.755C166.779 155.799 167.195 155.996 167.512 156.312C167.693 156.493 167.836 156.707 167.933 156.942C168.03 157.178 168.08 157.43 168.08 157.685Z" fill="black" stroke="black" stroke-width="0.915" stroke-miterlimit="10" stroke-linecap="round"/>
<path d="M166.725 185.339C166.726 185.79 166.57 186.226 166.285 186.575C166 186.924 165.603 187.163 165.162 187.251C164.72 187.34 164.261 187.272 163.864 187.06C163.466 186.849 163.155 186.506 162.982 186.09C162.809 185.674 162.786 185.211 162.916 184.78C163.047 184.349 163.322 183.976 163.697 183.726C164.071 183.475 164.52 183.363 164.969 183.406C165.417 183.45 165.836 183.648 166.154 183.967C166.336 184.146 166.479 184.36 166.577 184.596C166.675 184.831 166.725 185.084 166.725 185.339Z" fill="black" stroke="black" stroke-width="0.915" stroke-miterlimit="10" stroke-linecap="round"/>
<path d="M105.594 246.196H67.6432H29.689L22.6892 214.796L15.6895 183.396H53.6437H91.5979L98.5976 214.796L105.594 246.196Z" fill="#C9CEFC" stroke="black" stroke-width="0.915" stroke-miterlimit="10" stroke-linecap="round"/>
<path d="M137.997 253.986H83.8412H29.6885V250.091V246.196H83.8412H137.997V250.091V253.986Z" fill="#C9CEFC" stroke="black" stroke-width="0.915" stroke-miterlimit="10" stroke-linecap="round"/>
<path d="M266.42 195.7L264.542 199.516L262.666 203.331L245.391 194.91L228.115 186.492C230.702 181.38 232.919 176.732 235.13 172.081C237.342 167.43 239.565 162.785 242.145 157.673L232.764 147.483L223.382 137.293" fill="#104FC1"/>
<path d="M266.42 195.7L264.542 199.516L262.666 203.331L245.391 194.91L228.115 186.492C230.702 181.38 232.919 176.732 235.13 172.081C237.342 167.43 239.565 162.785 242.145 157.673L232.764 147.483L223.382 137.293" stroke="black" stroke-width="0.915" stroke-miterlimit="10" stroke-linecap="round"/>
<path d="M57.7608 207.845C57.6401 207.127 57.6165 206.395 57.6906 205.671C57.8126 204.451 58.2457 202.996 59.4962 201.992" stroke="black" stroke-width="0.915" stroke-miterlimit="10" stroke-linecap="round"/>
<path d="M57.8062 207.516C57.8062 207.516 58.0899 207.189 58.4711 206.784C58.8612 206.36 59.2768 205.961 59.7155 205.588C60.4396 205.024 61.2892 204.643 62.1921 204.478C62.6787 204.379 63.175 204.336 63.6714 204.35C65.0101 204.427 66.2874 204.937 67.31 205.805C67.8826 206.262 68.3895 206.796 68.8167 207.391C69.8995 208.943 70.238 210.746 70.1557 212.576C70.0222 214.452 69.6238 216.301 68.9723 218.066C68.6673 218.926 68.3409 219.774 67.9841 220.613C67.6272 221.451 67.246 222.284 66.8586 223.104C66.5947 223.703 66.2826 224.279 65.9253 224.828C65.57 225.376 65.0903 225.832 64.5254 226.16C63.9043 226.493 63.2137 226.675 62.5093 226.691C61.4691 226.737 60.4524 226.373 59.6789 225.676C59.3907 225.427 59.1364 225.142 58.9225 224.828C58.6802 225.143 58.4018 225.428 58.0929 225.679C57.6488 226.041 57.1349 226.308 56.5832 226.462C55.6378 226.707 54.6377 226.626 53.7436 226.234C53.1692 225.991 52.6297 225.673 52.1393 225.288C51.6811 224.927 51.3039 224.474 51.0322 223.958C50.3006 222.629 49.6882 221.238 49.2022 219.801C48.5722 218.189 48.0445 216.539 47.6223 214.86C47.3227 213.635 47.304 212.358 47.5674 211.124C47.6849 210.547 47.8586 209.983 48.0859 209.44C48.4287 208.633 48.9236 207.899 49.5438 207.278C49.8703 206.941 50.2266 206.635 50.6082 206.363C51.1065 206.008 51.6773 205.767 52.2796 205.658C53.585 205.433 54.9636 205.896 56.0159 206.418C56.6468 206.725 57.2463 207.093 57.8062 207.516Z" fill="#C71E07" stroke="black" stroke-width="0.915" stroke-miterlimit="10" stroke-linecap="round"/>
<path d="M62.4518 212.024C62.5341 212.17 62.6196 212.307 62.6989 212.438L62.9337 212.801C63.4786 213.625 63.9086 214.518 64.2117 215.458C64.5055 216.405 64.6475 217.392 64.6326 218.383C64.6321 218.409 64.6401 218.435 64.6554 218.457C64.6707 218.479 64.6924 218.495 64.7176 218.503C64.7427 218.512 64.7698 218.512 64.7951 218.504C64.8204 218.496 64.8425 218.481 64.8582 218.459C65.5392 217.569 66.0556 216.564 66.3832 215.492C66.7215 214.415 66.8316 213.279 66.7066 212.158C66.5986 211.347 66.3389 210.564 65.941 209.849C65.5732 209.119 64.9675 208.536 64.2239 208.196C63.832 208.05 63.4025 208.039 63.0039 208.165C62.5994 208.285 62.2444 208.532 61.9913 208.87C61.8351 209.103 61.7332 209.368 61.6931 209.646C61.653 209.923 61.6757 210.207 61.7595 210.474C61.9177 211.02 62.1507 211.542 62.4518 212.024Z" fill="#F8FAFC" stroke="black" stroke-width="0.915" stroke-miterlimit="10" stroke-linecap="round"/>
<path d="M98.5693 213.839L107.881 221.305L117.193 228.768L110.684 234.386L104.178 240.004C103.243 235.643 102.308 231.282 101.372 226.923C100.437 222.564 99.5026 218.202 98.5693 213.839Z" fill="black" stroke="black" stroke-width="0.915" stroke-miterlimit="10" stroke-linecap="round"/>
</svg>
