<svg xmlns="http://www.w3.org/2000/svg" xmlns:xlink="http://www.w3.org/1999/xlink" width="2560" height="1287" viewBox="0 0 2560 1287">
  <defs>
    <linearGradient id="linear-gradient" x1="0.5" y1="1" x2="0.5" gradientUnits="objectBoundingBox">
      <stop offset="0" stop-color="#042f2e"/>
      <stop offset="1" stop-color="#141414"/>
    </linearGradient>
    <clipPath id="clip-path">
      <path id="Rectangle_655" data-name="Rectangle 655" d="M0,0H2560a0,0,0,0,1,0,0V1167a120,120,0,0,1-120,120H120A120,120,0,0,1,0,1167V0A0,0,0,0,1,0,0Z" transform="translate(0 851)" fill="url(#linear-gradient)"/>
    </clipPath>
  </defs>
  <g id="Mask_Group_239" data-name="Mask Group 239" transform="translate(0 -851)" clip-path="url(#clip-path)">
    <g id="Group_894" data-name="Group 894" transform="translate(2560 2219.487) rotate(180)">
      <path id="Path_206148" data-name="Path 206148" d="M195.038,269.861c2.815,5.981,8.189,12.883,14.842,11.043,5.886-1.841,6.653-8.972,6.4-14.493-2.815-42.79-5.374-85.809-8.189-128.6-2.3-34.968-5.374-72.006-28.148-100.3-19.192-23.7-51.692-37.958-84.19-37.5-32.5.69-64.23,16.1-82.4,40.489C.811,57.293-5.074,80.069,5.417,98.243c9.724,16.794,30.2,25.306,48.876,34.278a391.517,391.517,0,0,1,67.045,40.949c17.913,13.573,42.479,31.057,52.459,50.611C181.475,239.034,188.129,254.677,195.038,269.861Z" transform="translate(1145.097 772.962)" fill="none" stroke="#0e766e" stroke-width="1"/>
      <path id="Path_206149" data-name="Path 206149" d="M0,53.422c84.19,1.15,193.2,16.1,252.315-34.968C284.046-8.922,340.6,10.633,362.863,44.68c22.007,34.048,20.728,75.917,23.287,115.256s12.283,82.588,47.341,106.284c49.644,33.357,123.343,8.512,165.822-31.977s67.3-93.861,109.268-134.81C754.9,54.112,819.64,26.276,886.173,12.7,952.963-.87,1022.055-1.33,1090.38,1.2c146.118,5.061,293,23.235,429.652,69.706s263.319,122.847,349.3,229.361c85.726,106.514,172.986,256.047,95.706,367.392-20.729,29.677-26.869,66.025-24.567,100.993s12.54,69.015,22.519,102.833c17.913,60.044,39.92,125.378,97.242,160.116,21.5,13.113,48.62,22.545,59.112,43.94,9.724,19.324,1.28,43.48-15.866,57.973s-41.456,20.934-65,21.855-47.085-2.99-70.371-5.981a1133.607,1133.607,0,0,0-313.219,2.071c-34.291,5.061-68.581,11.5-103.382,12.423-34.8.69-70.884-5.061-99.545-22.545-39.92-24.385-60.392-68.556-64.487-111.805s6.4-89.03,12.795-132.049c9.98-64.875,19.961-132.28-1.535-194.854-21.24-62.574-83.167-119.4-155.841-117.326-43.759,1.15-83.167,22.315-119.505,44.17-36.593,21.855-76.257,52.682-71.651,92.02,3.839,33.818,39.409,56.823,72.676,72.926,41.967,20.244,85.725,37.5,124.878,61.884,38.9,24.385,73.7,57.743,86.237,98.922,12.539,40.489,2.815,83.509-10.492,123.768s-30.2,80.058-32.243,121.927,14.075,87.42,53.227,109.965c42.735,24.616,100.056,15.183,144.838-6.441s81.887-53.832,125.646-77.067c44.27-23.466,94.938-37.269,146.373-39.8,63.975-2.991,127.437,11.042,191.156,18.864,63.462,7.822,131.531,8.742,188.34-18.4,56.553-27.146,96.217-89.95,73.443-144.012-28.405-67.865-129.74-84.429-177.849-142.4-38.9-46.931-36.083-111.575-23.288-168.858,13.05-57.283,34.29-114.8,26.613-173-26.613-198.3-186.8-363.711-385.893-452.281-15.61-6.9-31.732-13.573-43.759-24.615s-19.193-28.066-12.795-42.56c8.7-19.324,35.569-24.846,58.344-27.836,66.789-8.512,137.673-16.564,199.344,7.592,39.408,15.413,71.139,42.79,102.1,69.706Q2086.462,200.2,2214.026,310.85c40.175,34.738,82.144,70.626,134.859,87.42,67.3,21.625,146.885,10.122,209.323,38.649" transform="translate(0.256 143.272)" fill="none" stroke="#0e766e" stroke-width="1"/>
      <path id="Path_206150" data-name="Path 206150" d="M149.452,26.582c8.956-.92,18.169-2.3,27.125-.69s17.657,7.132,19.192,15.183c2.3,12.193-11.515,21.165-23.8,26.916C151.244,77.653,130,87.316,107.229,92.147s-47.6,4.831-68.837-4.371C17.153,78.8.52,59.709.008,38.545c-.256-11.963,5.63-24.616,15.61-32.667C30.46-5.855,37.881,2.426,52.723,9.558,81.9,23.592,116.186,29.573,149.452,26.582Z" transform="translate(1336.289 1320.599)" fill="none" stroke="#0e766e" stroke-width="1"/>
      <path id="Path_206151" data-name="Path 206151" d="M353.76,486.473c-20.727-42.79-41.2-85.579-61.927-128.369-20.472-42.559-41.455-85.579-73.7-121.7s-78.3-64.875-129.484-68.786c-16.122-1.15-32.5,0-48.365-2.76S8.3,154.279,2.412,140.705C-7.312,118.391,14.184,95.616,34.4,79.972,58.2,61.8,83.02,44.544,108.61,28.21c30.2-19.094,68.836-37.268,102.359-23.235,16.121,6.9,27.637,20.015,38.641,32.667Q348.258,152.9,446.651,268.384c11.259,13.113,22.775,26.916,26.358,43.25s-3.583,35.888-20.728,42.1c-21.5,7.822-48.365-7.592-67.813,3.681-19.448,11.043-14.074,37.959-4.35,56.823A312.272,312.272,0,0,0,431.3,486.243" transform="translate(272.933 1814.271)" fill="none" stroke="#0e766e" stroke-width="1"/>
      <path id="Path_206152" data-name="Path 206152" d="M0,113.883c34.034-5.521,67.045-18.634,98.265-32.667,46.829-20.935,90.844-44.17,143.047-46.93,36.337,7.132,64.486,34.508,80.864,64.644s23.286,63.494,32.755,95.931c9.724,32.437,23.031,65.335,49.132,89.26C446.285,322.77,516.4,329.9,572.7,310.347s100.056-61.884,130-108.814c22.519-35.2,38.9-73.847,65.766-106.514,23.8-28.987,55.786-52.682,92.123-68.325C947.333-10.575,1049.18.928,1144.374,13.35c116.945,15.183,233.122,7.132,343.671,44.63,193.97,66.025,398.689,207.966,434.515,391.548,16.121,82.358-7.677,166.327-15.1,249.606-8.443,95.011,4.862,191.633,38.641,282.043a440.893,440.893,0,0,0,19.96,46.24c10.491,20.245-8.7,42.559-33.011,39.109-41.712-5.981-82.911-14.263-124.622-20.475-62.439-9.2-127.693-13.113-188.085,3.451-41.711,11.5-86.494,32.207-125.9,15.643-31.219-13.113-46.062-45.55-52.714-76.147-13.051-59.584-5.886-121.007-.768-181.511s7.676-122.848-13.562-180.36c-21.5-57.513-71.14-132.74-136.65-118.707a2290.654,2290.654,0,0,0-286.605,80.748c-28.4,10.122-58.856,22.545-72.163,47.391-17.913,33.818,4.606,75-5.886,111.115-6.142,20.475-22.007,37.038-34.291,55.212s-20.984,40.949-11.259,60.044c13.307,26.226,51.435,31.287,83.167,32.667q88.668,4.141,176.825,8.282c32.243,1.38,67.3,3.911,91.867,22.775,26.87,20.474,34.035,55.9,27.637,86.96s-24.055,59.123-40.688,86.959c-18.681,31.747-36.593,65.335-34.29,101.683,2.047,29.216,21.495,54.982,50.156,69.016,39.409,19.094,61.16,56.823,99.545,78.217,39.919,22.315,87,36.808,133.578,32.437,76.513-7.362,135.37-61.884,204.206-92.941,142.535-64.184,316.8-23.005,470.085-62.574,47.851-12.193,92.378-41.41,117.712-80.058,25.333-38.418,31.731-86.729,16.633-129.519-11.771-33.358-35.57-63.264-41.711-97.772-10.747-57.973,29.94-114.8,28.4-173.459-2.045-80.058-80.606-144.932-88.539-224.99-20.472-201.525-260.759-322.3-437.84-446.99-19.193-13.343-40.944-32.9-32.5-53.372C1709.908,7.369,1726.03.237,1741.383.007c15.1-.23,29.685,5.061,43.759,10.582C1898.5,55.68,2002.91,118.714,2092.474,195.781c46.83,40.259,89.563,84.659,138.7,122.617,49.132,38.189,106.2,70.4,169.916,81.208,24.053,4.141,48.876,5.061,72.161,12.193,23.287,6.9,45.552,21.625,51.948,43.02,8.444,28.066-12.794,55.442-25.845,82.128a164.011,164.011,0,0,0-5.886,133.43c12.794,31.747,35.826,60.043,65.255,80.748" transform="translate(0.256 180.353)" fill="none" stroke="#0e766e" stroke-width="1"/>
      <path id="Path_206153" data-name="Path 206153" d="M211.419,53.585c10.748-3.681,21.5-8.282,28.66-16.1S249.8,17.237,243.15,8.955c-8.956-11.042-27.381-9.662-42.223-7.362C167.66,7.115,134.65,12.636,101.383,18.157c-17.145,2.761-34.29,5.751-51.435,8.512-11.515,1.84-37.105,1.84-46.062,9.892C-9.932,49.214,16.681,54.275,27.94,57.266,53.53,63.937,80.4,68.308,107.013,69,142.838,70.149,178.408,65.087,211.419,53.585Z" transform="translate(894.827 432.514)" fill="none" stroke="#0e766e" stroke-width="1"/>
      <path id="Path_206154" data-name="Path 206154" d="M58.021,54.906c-14.33,3.451-29.172,7.132-40.944,15.414S-2.882,92.4.956,105.288c4.606,15.643,23.8,23.465,41.2,28.526a596.387,596.387,0,0,0,186.038,22.545c32.5-1.15,65.766-5.521,94.426-19.094,28.661-13.8,52.459-38.649,56.042-67.635C382.5,38.342,353.071-2.837,314.687.154c-53.994,4.141-110.8,21.625-163.263,33.127C120.461,40.183,89.241,47.315,58.021,54.906Z" transform="translate(816.893 383.342)" fill="none" stroke="#0e766e" stroke-width="1"/>
      <path id="Path_206155" data-name="Path 206155" d="M374.662,323.038c-15.1-1.84-28.4-8.742-41.456-15.643C227.52,250.112,131.559,179.486,38.924,106.1c-11-8.742-22.263-17.944-30.2-29.216-7.677-11.5-11.515-25.766-6.4-38.189C6.937,27.422,17.94,18.91,29.967,14.079s25.59-6.9,38.641-8.512c55.274-7.132,115.41-11.733,163.007,14.263,36.849,20.244,59.624,55.672,80.864,89.49,26.1,41.639,51.947,83.049,78.049,124.688C407.928,261.384,444.009,331.09,374.662,323.038Z" transform="translate(1288.672 309.373)" fill="none" stroke="#0e766e" stroke-width="1"/>
      <path id="Path_206156" data-name="Path 206156" d="M0,92.023c39.92-8.052,76-28.756,113.107-44.86,42.479-18.634,93.147-31.977,136.138-14.723,28.661,11.5,49.388,35.2,61.927,61.194,12.539,25.766,17.657,54.062,22.775,81.9,3.583,20.245,7.165,40.029,10.492,60.043,5.118,29.217,29.172,52.682,61.415,59.353.256,0,.256,0,.512.23,19.7,4.141,40.688,9.662,52.971,23.925,11.515,13.573,13.051,31.977,22.519,46.7,12.539,19.324,37.617,29.676,62.183,31.977,24.822,2.3,49.389-2.3,73.7-7.131,30.452-5.751,61.416-11.963,88.8-25.306,27.381-13.573,51.179-35.658,57.321-63.264,7.421-33.127-11.26-68.1-2.559-100.993C770,167.94,805.054,144.7,841.647,135.5c36.594-9.432,75.234-7.822,113.107-9.2,90.076-3.221,179.129-23.925,259.736-60.274,71.907-32.437,146.886-78.677,225.189-62.8,46.318,9.432,83.935,39.339,117.2,69.935,72.675,66.945,135.882,142.172,187.573,223.38,12.283,19.324,24.31,39.569,27.125,61.654,3.071,22.085-4.862,46.7-25.078,59.353-24.566,15.183-57.833,9.432-85.981.92-64.743-19.554-125.9-49-179.9-86.729-48.876-34.278-96.729-77.3-158.656-82.358-61.415-5.061-116.945,29.217-175.034,47.161-53.483,16.564-110.8,19.785-166.59,28.526S867.237,349.22,827.061,385.108C729.052,471.838,578.84,481.73,450.892,527.28c-31.987,11.5-65.766,23.925-86.237,48.771-17.657,21.625-23.031,49.691-22.007,76.377,1.279,26.686,8.188,53.142,12.795,79.6a430.457,430.457,0,0,1,.512,143.782c-12.283,74.077-46.318,148.614-111.06,195.774C177.337,1121.043,87.261,1134.156,0,1142.9" transform="translate(0.256 249.834)" fill="none" stroke="#0e766e" stroke-width="1"/>
      <path id="Path_206157" data-name="Path 206157" d="M0,56.016c35.57-1.84,69.092-19.324,101.335-34.048C137.929,5.4,181.176-8.4,218.792,6.095c46.573,17.944,62.183,70.166,62.951,115.486,1.024,45.55-6.4,93.631,16.377,134.12,18.425,32.9,56.554,61.424,50.668,97.772-3.071,19.554-18.68,35.428-30.452,51.992-41.2,57.513-41.711,130.9-32.755,198.994,8.956,67.865,25.846,136.421,14.586,204.056-11.259,67.175-51.435,130.209-110.292,173-53.483,38.879-121.551,60.5-189.876,61.194" transform="translate(0.256 322.649)" fill="none" stroke="#0e766e" stroke-width="1"/>
      <path id="Path_206158" data-name="Path 206158" d="M62.853,7.387c16.633,8.052,29.94,21.855,36.082,38.189,7.421,19.324,4.862,40.259,1.28,60.273-1.791,10.352-4.35,20.935-11.259,29.217s-19.7,13.8-30.452,9.662c-9.212-3.451-14.074-12.653-15.61-21.395-1.28-8.742.256-17.714.256-26.686,0-21.855-9.468-43.71-26.1-59.353-5.118-4.831-11.259-9.432-14.33-15.644C-13.661-10.327,48.778.716,62.853,7.387Z" transform="translate(341.466 576.253)" fill="none" stroke="#0e766e" stroke-width="1"/>
      <path id="Path_206159" data-name="Path 206159" d="M113.948,13.07c25.078,12.883,43.759,33.818,60.392,54.982a733.229,733.229,0,0,1,60.9,90.87c7.677,13.8-9.724,27.606-24.054,19.324-9.468-5.521-18.681-11.733-27.381-17.944C140.817,130.4,97.826,100.26,55.091,70.353,41.272,60.691,3.656,43.667.329,27.1-3.51,8.239,27.2,3.178,41.785,1.107,63.536-1.653,95.011.187,113.948,13.07Z" transform="translate(1370.257 361.453)" fill="none" stroke="#0e766e" stroke-width="1"/>
      <path id="Path_206160" data-name="Path 206160" d="M0,35.6C29.94,22.024,64.486,9.6,89.052,3.85,126.413-4.892,170.428.629,196.018,26.855c24.054,24.615,26.1,60.5,24.566,93.4s-5.374,67.175,10.492,96.852c18.169,33.818,60.9,59.583,59.112,97.082-1.535,28.066-27.893,49-46.573,71.546-44.782,54.522-46.573,128.139-38.9,195.544s23.031,136.19,6.141,202.445c-14.586,56.363-52.971,107.434-105.686,140.561C73.954,943.84,37.617,956.953,0,962.934" transform="translate(0.256 375.275)" fill="none" stroke="#0e766e" stroke-width="1"/>
      <path id="Path_206161" data-name="Path 206161" d="M0,18.023C32.755-4.292,81.12-6.132,115.666,13.882c39.92,23.005,56.553,67.175,70.628,107.894,13.818,40.489,27.637,83.969,13.818,124.458-8.956,26.226-28.916,48.311-42.735,72.7-25.59,44.86-30.2,97.312-27.125,147.693s13.307,100.3,16.122,150.684S143.559,719.91,117.2,764.54C93.4,804.8,49.644,837.7,0,843.908" transform="translate(0.256 446.681)" fill="none" stroke="#0e766e" stroke-width="1"/>
      <path id="Path_206162" data-name="Path 206162" d="M0,.418A94.536,94.536,0,0,1,42.223,6.169C62.951,13.761,80.1,27.794,93.914,43.437c34.29,39.109,48.365,92.021,37.617,141.022-7.421,33.357-25.334,63.954-36.849,96.161-40.688,112.725-2.047,235.572-15.61,353.129-2.559,21.625-7.165,43.94-20.728,61.884C45.294,712.657,22.519,724.849,0,721.859" transform="translate(0.256 497.183)" fill="none" stroke="#0e766e" stroke-width="1"/>
      <path id="Path_206163" data-name="Path 206163" d="M0,0C28.916,5.981,55.018,24.385,67.045,48.771c14.586,29.447,9.724,63.724-1.535,94.551-11.259,30.6-28.4,59.353-38.641,90.18C8.7,288.024,13.307,346.457,14.33,403.28,15.1,444.459,13.307,487.249,0,526.357" transform="translate(0.256 550.973)" fill="none" stroke="#0e766e" stroke-width="1"/>
      <path id="Path_206164" data-name="Path 206164" d="M0,0C14.074,8.282,26.357,19.094,32.243,33.128c7.933,19.554,1.024,42.1-12.283,59.123A129.7,129.7,0,0,1,0,112.5" transform="translate(0.256 601.814)" fill="none" stroke="#0e766e" stroke-width="1"/>
      <path id="Path_206165" data-name="Path 206165" d="M0,899.742c112.595-25.766,237.985,2.531,350.836-27.606,54.762-14.493,104.15-42.329,155.33-65.105S613.9,765.622,670.964,771.6c73.442,7.591,135.369,55.672,172.987,112.955,37.617,57.053,55.018,123.078,71.651,187.722,6.91,26.686,19.96,51.532,30.964,76.837,13.05,29.447,47.852,46.471,82.143,39.569,4.094-.921,8.445-1.841,12.54-2.761,26.1-6.212,51.691-14.263,78.3-16.564,26.869-2.3,55.53,1.61,76,17.254,17.4,13.343,26.613,33.127,39.919,49.691,13.307,16.794,37.617,36.578,56.81,25.536,31.987-18.634,63.719-37.038,95.706-55.673,13.563-7.822,28.4-16.1,44.526-15.643,18.68.46,34.546,12.653,45.55,26.456,11,13.573,18.68,29.217,30.452,42.33,29.94,32.667,85.214,42.789,128.461,26.456,43.5-16.334,73.442-56.363,78.3-98.462,2.047-19.324-.511-39.339-11.515-56.133-13.051-19.784-36.082-32.9-60.392-40.259s-49.9-9.662-75.234-12.883a1103.145,1103.145,0,0,1-175.8-36.348c-52.459-15.414-110.035-52.222-163.518-39.339-46.829,11.272-98.52-11.042-126.413-46.47-28.148-35.428-35.57-81.668-30.708-124.918,4.862-43.48,20.984-84.889,36.338-126.3,8.188-21.625,15.609-46.7,2.815-66.485-11-16.793-33.267-23.925-53.739-29.906-31.476-9.2-67.045-23.7-99.8-27.376-88.8-9.892-183.734-60.273-267.924-33.128-51.947,16.794-104.15,33.358-156.1,50.151-13.818,4.371-31.731,7.822-39.408-5.521a18.813,18.813,0,0,1-.768-16.564c18.169-44.17,62.951-72.466,105.686-98.692,52.459-32.207,99.544-74.307,153.794-103.753,36.594-20.015,43.759-64.415,44.271-102.833.768-38.418.768-81.668,31.22-108.814,16.377-14.493,38.64-21.625,60.392-28.3,117.457-36.578,229.8-71.776,346.23-107.894a152.146,152.146,0,0,1,95.961,1.84c74.978,26.916,138.953,79.138,174.522,144.472,18.681,34.278,29.685,71.546,49.9,105.133,19.96,33.588,51.691,64.645,93.4,72.006,28.916,5.061,58.344-1.84,87.517-5.521s61.416-3.451,84.446,13.113c30.707,22.085,32.754,63.724,36.337,97.312a88.207,88.207,0,0,1-2.815,32.667c-4.094,14.033-11.26,30.827-27.381,30.137-58.089-3.221-117.2,11.043-166.077,39.339-26.87,15.644-52.2,36.118-83.934,40.719-28.4,4.141-59.112-6.671-76.769-27.146-17.913-20.474-27.638-53.6-16.89-77.527,57.322-126.3,30.964-280.2-66.276-385.106-17.658-19.094-37.874-36.808-62.439-48.541C1329.9,46.942,1297.4,38.89,1271.3,47.172q-152.771,47.966-305.03,95.7c-32.243,10.122-67.557,22.315-83.678,49.461-13.818,22.775-10.492,50.381-10.236,76.147.256,21.165-3.071,46.01-16.889,62.8-7.933,9.662-14.074,20.245-19.448,31.287-14.842,31.977-41.2,59.583-74.21,77.3-16.633,8.972-37.873,19.094-36.594,37.269.512,8.052,5.63,15.183,13.051,19.784,14.586,9.2,31.987,8.972,48.876,8.972,120.784-.23,236.705,34.508,356.721,44.4,24.31,2.07,48.62,21.395,53.226,43.02,4.35,20.7-2.3,42.1-12.027,61.193-9.724,19.325-22.775,37.268-31.731,56.823-24.311,53.372-16.122,116.406,15.865,166.327s85.47,87.189,145.35,107.894c58.345,20.244,122.063,25.306,184.246,20.474,72.164-5.521,141.512-30.367,197.3-71.776,51.692-38.419,119.5-54.522,186.038-61.194,67.3-6.9,135.626-5.521,202.67-14.493s135.114-29.906,181.944-74.077c57.32-53.6,91.612-153.674,46.317-216.018-25.332-34.968-25.332-80.058-18.68-121.467s18.68-82.819,14.074-124.228c-5.118-46.01-30.2-87.65-48.365-130.9-19.192-45.55-30.451-98.462-2.558-141.252,18.425-28.526,51.692-47.391,88.54-50.151,37.874-2.991,78.051,8.282,104.406,32.9,12.028,11.273,20.216,26.456,19.192,41.869-2.3,29.216-34.546,48.771-48.109,75.457-13.818,26.916-7.676,59.123,6.91,85.579s36.849,49,56.3,72.7c19.706,23.7,37.361,50.381,40.432,79.828,4.863,43.25-22.006,83.969-29.427,126.758-9.725,55.213,16.376,113.875,63.717,149.763" transform="translate(0.256 602.953)" fill="none" stroke="#0e766e" stroke-width="1"/>
      <path id="Path_206166" data-name="Path 206166" d="M845.123,170.511c61.671-19.324,129.74-12.193,184.5,19.554,29.94,17.484,59.88,34.968,89.564,52.682,57.833,34.738,116.433,70.4,182.455,89.49,33.778,9.662,73.954,14.033,101.591-5.751,23.031-16.334,30.709-45.55,27.382-71.776-4.351-32.9-23.031-62.574-41.456-91.33-27.637-43.02-55.274-85.809-82.91-128.829-11.516-5.981-10.748-23.465,0-30.367s26.1-4.6,37.1,2.07,18.424,16.794,25.334,26.686c13.817,19.324,27.636,38.649,41.711,57.743,34.291,47.851,69.092,96.162,89.308,150.224,20.217,53.832,24.822,114.8-.767,166.787-17.145,34.738-25.846,77.067-58.089,101.683-20.471,15.644-46.573,24.156-72.93,28.757-32.243,5.751-66.534,5.751-96.474-6.211s-52.971-34.968-69.093-60.5-25.845-53.832-35.569-81.9c-22.776-66.025-89.82-117.1-158.913-147.463-68.836-30.367-155.841-32.207-220.327,4.831-78.561,45.32-181.687,47.851-268.948,77.527-45.294,15.413-94.17,35.2-115.154,74.537-12.795,23.925-13.051,51.531-18.424,77.757-15.866,79.6-82.911,149.3-168.125,175.069C132.7,677.315,69.5,744.26,46.466,821.327c4.094,8.742-12.539,19.784-23.031,19.554S4.243,832.369,1.428,823.4.4,804.533,2.964,795.561c18.936-64.184,78.3-111.8,137.929-150.914S265.514,568.96,305.946,513.518c16.889-23.005,5.374-48.541,9.212-75.917,4.35-30.827,26.613-57.743,53.739-76.837s59.368-31.287,91.355-42.789,64.486-22.775,92.891-40.259c83.167-51.071,183.479-71.776,278.161-102.6C836.166,173.272,840.772,171.892,845.123,170.511Z" transform="translate(370.647 379.081)" fill="none" stroke="#0e766e" stroke-width="1"/>
      <path id="Path_206167" data-name="Path 206167" d="M43.4,299.07C15.761,290.328,2.2,261.8.407,235.575c-1.536-19.784,1.535-39.569,4.862-59.123C13.2,126.3,21.39,76.15,29.323,26.228,31.37,13.576,39.559-2.988,53.122.463c7.165,1.84,11,8.512,13.819,14.723,15.866,32.667,31.987,65.335,47.853,98.232,12.283,25.306,32.754,54.522,34.29,82.818C151.386,240.637,103.022,317.934,43.4,299.07Z" transform="translate(2061.872 720.058)" fill="none" stroke="#0e766e" stroke-width="1"/>
      <path id="Path_206168" data-name="Path 206168" d="M0,229.4c121.551-11.272,246.173-24.845,352.115-78.678,49.644-25.306,93.659-58.663,142.535-84.889C642.3-13.534,834.226-21.816,989.556,44.669c23.542,9.892,50.923,22.545,57.065,45.32s0,46.471-7.677,68.785-17.145,44.63-17.657,67.865c-1.536,61.194,4.35,124,26.1,182.2,5.885,15.643,13.307,31.977,28.916,40.719,17.913,10.352,41.2,7.362,61.927,2.991s42.735-9.892,62.951-3.911c32.755,9.892,66.533,21.165,93.658,40.489,18.169,12.883,34.29,28.526,43.5,47.39s10.747,41.639.511,60.043-33.778,31.517-56.553,28.066c-22.776-3.221-41.2-24.846-35.571-45.09,3.328-12.653-16.633-25.766-29.428-31.747-12.795-6.211-27.637-7.591-41.967-8.512a438.714,438.714,0,0,0-156.61,20.245c-14.586,4.6-31.731,2.07-41.455-8.972s-12.539-25.536-15.354-39.339c-23.8-111.8-71.651-219.239-140.232-314.941C775.114,131.4,663.8,138.761,579.864,155.094s-161.215,52.222-242.079,78.218C229.54,268.739,114.642,285.763,0,284.153" transform="translate(0.256 1192.547)" fill="none" stroke="#0e766e" stroke-width="1"/>
      <path id="Path_206169" data-name="Path 206169" d="M10.929,57.863C82.325,32.787,155.768,10.7,232.025,2.88c78.561-8.052,160.959,0,230.564,34.048,17.657,8.742,35.314,19.784,43.5,36.578,11.515,23.465,1.535,50.381-8.445,74.307-12.539,29.907,2.047,66.255,2.559,98,.256,9.432.256,18.864-3.838,27.606-6.909,14.723-26.357,23.925-43.759,20.245-17.4-3.451-30.452-19.325-29.684-35.2,2.559-41.87-30.2-83.279-61.671-114.105-1.28-1.38-2.559-2.531-4.094-3.911C318.007,104.333,263.5,85.239,207.715,86.159c-62.951.92-127.437.23-189.62,2.07h-.256C-1.61,88.459-6.983,64.3,10.929,57.863Z" transform="translate(490.885 1233.416)" fill="none" stroke="#0e766e" stroke-width="1"/>
      <path id="Path_206170" data-name="Path 206170" d="M0,145.868c134.6,7.592,272.787,12.423,399.456-28.526,50.156-16.334,97.5-39.339,147.653-55.9S652.539,35.674,704.23,48.1C763.854,62.59,811.963,105.609,837.809,155.99c26.1,50.381,31.987,107.664,28.148,163.106-3.327,46.7-13.307,93.4-6.141,139.871,3.839,24.616,38.385,39.569,66.022,39.339s53.226-12.193,76-26c22.775-14.033,43.5-30.367,67.813-42.33,35.826-17.484,83.679-7.132,115.922,15.413s51.435,57.053,64.23,92.02c10.748,29.217,70.628,21.855,96.217,1.381,12.027-9.432,19.96-22.315,29.428-33.818s21.752-22.545,37.361-25.075c14.842-2.531,30.452,2.99,42.224,11.5s20.472,20.014,28.916,31.287c24.055,31.747,76,33.357,118.481,29.446,42.478-4.141,82.91-23.7,109.78-53.6,26.1-28.987,38.9-66.025,46.061-103.063,7.165-36.808,9.212-74.307,16.889-111.115,17.913-85.349,122.32-137.571,217.513-152.064,47.085-7.362,95.706-4.371,143.047-11.042a354.088,354.088,0,0,0,145.605-54.292c10.749-6.9,22.008-14.493,31.219-23.235,7.421-7.132,11.26-16.1,18.937-23.465,15.865-15.644,41.2-23.7,64.487-18.864,18.169,3.681,33.779,14.033,50.155,22.085,34.291,16.794,74.211,23.465,112.852,19.554" transform="translate(0.256 1390.415)" fill="none" stroke="#0e766e" stroke-width="1"/>
      <path id="Path_206171" data-name="Path 206171" d="M287.7,695.322c-39.409-17.484-72.419-46.471-92.379-81.668C172.8,573.624,153.1,521.4,174.849,481.144c22.007-41.179,44.782-84.889,40.944-130.439-2.559-30.137-16.633-58.663-35.57-83.509s-44.526-45.09-62.951-70.166c-14.586-19.784-10.492-46.471-1.28-68.786S139.279,85,143.374,61.3c4.094-23.465-5.63-52.912-31.22-58.893C72.234-7.025,26.428,12.069,9.027,45.656-5.56,73.723-.7,107.31,11.074,136.3c12.027,29.216,30.452,55.673,43.759,84.429,25.334,55.212,55.53,130.439,14.842,177.83-19.96,23.465-20.216,56.363-12.283,84.889C65.069,512.2,79.655,539.116,86.564,568.1c7.677,33.127,5.118,67.865,15.354,100.533,11.771,37.038,40.944,69.015,78.817,86.959,32.5,15.184,71.139,19.784,106.965,13.113" transform="translate(2271.531 634.606)" fill="none" stroke="#0e766e" stroke-width="1"/>
      <path id="Path_206172" data-name="Path 206172" d="M0,0C34.035,35.428,83.679,56.823,132.811,73.846c142.535,49.691,306.309,114.566,451.148,70.4,155.329-47.391,337.784-14.033,460.359,84.2,57.321,46.01,101.079,103.753,151.491,155.975,50.156,52.222,110.548,100.763,184.758,118.707,64.231,15.413,135.626,6.9,197.553,25.536" transform="translate(981.111 0.23)" fill="none" stroke="#0e766e" stroke-width="1"/>
      <path id="Path_206173" data-name="Path 206173" d="M726.749,0C742.1,27.376,772.811,45.78,805.31,55.442c33.267,9.892,68.836,11.733,103.639,14.263,35.058,2.531,70.372,5.751,102.615,18.4,5.886,2.3,12.54,6.671,11,12.193-1.28,5.061-8.7,6.672-14.587,7.132-59.88,4.831-119.5,9.432-179.384,14.263-85.214,6.672-150.724,79.368-194.738,145.393-13.563,20.475-24.822,42.329-40.432,61.884-15.354,19.554-35.826,37.038-61.416,43.71s-56.553.46-71.4-19.324c-20.983-27.606-4.606-67.405-22.263-96.622-19.96-32.437-16.122-74.077-37.873-105.594S341.623,94.321,300.424,93.4c-37.361-.92-70.884,17.024-104.918,30.827A481.951,481.951,0,0,1,0,159.2" transform="translate(0.256 0.23)" fill="none" stroke="#0e766e" stroke-width="1"/>
      <path id="Path_206174" data-name="Path 206174" d="M0,0C3.327,16.334,13.818,31.747,26.358,44.17,42.479,60.5,62.439,73.616,79.584,89.26c29.172,26.686,50.156,60.734,59.368,97.312,4.606,17.714,6.4,36.118,15.1,52.452s26.613,30.6,46.573,29.447c21.751-1.38,37.105-19.784,45.806-37.958,8.7-17.944,14.074-38.189,29.684-51.992,16.377-14.723,41.967-20.245,54.762-37.728,10.748-14.723,9.212-34.508,2.815-51.071-6.654-16.564-17.4-31.517-25.078-47.851C302.471,28.756,298.633,13.8,301.447,0" transform="translate(357.489 0.23)" fill="none" stroke="#0e766e" stroke-width="1"/>
      <path id="Path_206175" data-name="Path 206175" d="M164.03,0c4.094,3.451,8.956,6.441,13.051,9.662,9.98,7.362,18.936,19.554,12.795,29.677C184.246,49,169.4,49.461,157.377,49c-29.94-1.61-60.136-3.221-88.8-10.812C42.479,31.287,17.145,18.864,0,0" transform="translate(774.09 0.23)" fill="none" stroke="#0e766e" stroke-width="1"/>
      <path id="Path_206176" data-name="Path 206176" d="M302.215,0c.512.23.768.46,1.28.69,11,5.061,21.5,12.193,26.869,22.085s4.862,23.235-4.094,31.057c-6.909,6.211-17.145,8.052-26.869,9.662A2171.618,2171.618,0,0,0,0,136.881" transform="translate(0.256 0.23)" fill="none" stroke="#0e766e" stroke-width="1"/>
      <path id="Path_206177" data-name="Path 206177" d="M242.079,0c3.582,4.6,9.724,8.052,15.354,11.042,8.189,4.371,17.4,10.352,17.4,19.094,0,5.751-4.606,10.582-9.98,13.573-5.374,2.761-11.771,3.911-17.913,4.831-47.341,7.592-94.17,15.413-141.256,23.235C70.372,77.527,35.314,83.509,0,89.26" transform="translate(0.256 0.23)" fill="none" stroke="#0e766e" stroke-width="1"/>
      <path id="Path_206178" data-name="Path 206178" d="M204.462,0a19.637,19.637,0,0,1-.512,11.5c-3.071,8.512-11,15.183-19.96,19.324-8.956,3.911-18.936,5.751-28.916,7.132A895.574,895.574,0,0,1,0,47.621" transform="translate(0 0.23)" fill="none" stroke="#0e766e" stroke-width="1"/>
      <path id="Path_206179" data-name="Path 206179" d="M0,0C38.129,28.3,70.627,63.724,114.9,83.509c34.29,15.183,72.931,20.014,110.8,24.385,20.216,2.531,42.991,4.141,58.6-7.822,8.956-6.9,13.563-16.794,19.448-25.766a56.514,56.514,0,0,1,6.909-8.282" transform="translate(2248.318 0.23)" fill="none" stroke="#0e766e" stroke-width="1"/>
      <path id="Path_206180" data-name="Path 206180" d="M0,0C30.2,23.7,61.671,46.24,98.265,60.273a243.309,243.309,0,0,0,72.419,15.874c13.307.92,27.125.46,38.9-4.831,14.33-6.672,23.542-19.554,32.755-31.517,6.142-7.822,13.307-15.413,21.751-20.7" transform="translate(2295.145 0.23)" fill="none" stroke="#0e766e" stroke-width="1"/>
      <path id="Path_206181" data-name="Path 206181" d="M0,0C17.145,16.564,36.081,31.287,58.6,40.949c31.22,13.573,70.884,15.413,99.544-2.3C175.034,28.3,186.805,12.193,201.647,0" transform="translate(2342.486 0.23)" fill="none" stroke="#0e766e" stroke-width="1"/>
      <path id="Path_206182" data-name="Path 206182" d="M0,0A84.35,84.35,0,0,0,48.109,15.183,85.963,85.963,0,0,0,96.73,0" transform="translate(2403.642 0.23)" fill="none" stroke="#0e766e" stroke-width="1"/>
      <path id="Path_206183" data-name="Path 206183" d="M0,0C25.59,20.014,49.132,42.329,74.466,62.8,112.339,93.861,155.841,122.387,206,131.359c22.775,4.141,46.062,3.911,68.837,7.362s46.062,11.042,60.9,26.916c12.795,13.573,17.913,31.517,25.334,48.081,3.839,8.282,8.7,16.564,14.842,23.235" transform="translate(2183.061 0.23)" fill="none" stroke="#0e766e" stroke-width="1"/>
      <path id="Path_206184" data-name="Path 206184" d="M0,0C36.849,27.376,69.348,59.583,104.406,89.03c38.129,31.977,80.352,61.654,130,76.147,43.5,12.883,93.4,14.263,128.717,40.719,29.684,22.085,44.526,58.893,71.651,82.358" transform="translate(2124.976 0.23)" fill="none" stroke="#0e766e" stroke-width="1"/>
      <path id="Path_206185" data-name="Path 206185" d="M0,0C36.593,23.7,83.678,30.367,128.972,32.437c47.085,2.07,94.938-.46,140.744,9.432,57.321,12.423,107.477,43.25,163.007,60.734,65,20.245,137.161,21.395,202.671,2.991,79.584-22.315,169.916-18.4,248.477,6.441,72.93,23.005,131.019,74.307,173.754,132.049,36.594,49.691,93.658,85.809,143.814,124.688,27.125,20.935,57.833,42.559,93.915,43.02,17.913.23,35.569-4.831,53.226-2.531,20.984,2.761,38.385,15.643,56.042,26.456,38.384,23.7,82.911,39.109,128.972,45.55" transform="translate(1025.638 0.23)" fill="none" stroke="#0e766e" stroke-width="1"/>
      <path id="Path_206186" data-name="Path 206186" d="M0,0C115.921,41.179,242.079,58.893,366.445,51.3c68.837-4.141,137.673-15.874,206.509-11.733C715.49,48.311,849.835,131.129,909.716,248c24.054,46.47,78.561,81.438,135.369,84.429,16.378.92,33.011-.46,49.133,2.531,23.8,4.6,44.782,19.554,55.274,39.109,24.566,46.47,86.493,66.025,148.932,71.546" transform="translate(1260.806 0.23)" fill="none" stroke="#0e766e" stroke-width="1"/>
      <path id="Path_206187" data-name="Path 206187" d="M0,0C82.655,23.925,174.01,23.925,256.665,0" transform="translate(1460.15 0.23)" fill="none" stroke="#0e766e" stroke-width="1"/>
      <path id="Path_206188" data-name="Path 206188" d="M0,0C113.618,36.808,212.4,110.195,273.043,204.056c19.96,31.057,38.385,66.255,73.443,83.279,37.361,18.174,84.19,10.812,124.366,23.465,41.455,13.113,70.883,45.32,102.871,72.236,19.192,16.1,42.479,31.057,67.3,38.419" transform="translate(1918.211 0.23)" fill="none" stroke="#0e766e" stroke-width="1"/>
      <path id="Path_206189" data-name="Path 206189" d="M380.935,195.955c-38.385-25.306-65-66.485-106.2-89.72C236.609,84.61,189.78,80.469,147.3,66.666c-31.22-10.352-60.136-26-84.446-46.01C53.9,13.294,44.942,5.013,33.426,1.562,21.911-2.119,6.813.642,1.7,10.534-4.191,22.036,6.3,35.149,17.049,43.2c11,8.052,24.31,16.334,26.1,28.986,3.583,24.846,21.239,48.771,44.526,62.574,23.543,13.573,51.18,19.554,78.561,25.076,27.381,5.291,55.274,10.352,79.584,22.545,29.428,14.493,51.691,38.189,75.49,59.583,17.4,15.873,37.105,31.057,59.368,40.029" transform="translate(2178.297 118.295)" fill="none" stroke="#0e766e" stroke-width="1"/>
      <path id="Path_206190" data-name="Path 206190" d="M95.706.23c11.259,11.042,22.519,22.085,33.522,33.127,4.35,4.141,8.956,9.2,8.445,14.723-.512,6.671-7.933,11.5-15.354,11.963s-14.586-2.07-21.24-4.831A486.759,486.759,0,0,1,0,0" transform="translate(1984.482)" fill="none" stroke="#0e766e" stroke-width="1"/>
      <path id="Path_206191" data-name="Path 206191" d="M53.614,102.147A108.972,108.972,0,0,0,17.276,50.155c-5.118-4.141-10.748-7.822-14.33-13.113S-1.4,24.39,3.2,19.789C26.745-3.907,70.247-1.376,105.049,2.534s68.325,17.714,94.426,38.879c22.775,18.4,40.688,42.56,63.462,60.5" transform="translate(705.378 2198.597)" fill="none" stroke="#0e766e" stroke-width="1"/>
      <path id="Path_206192" data-name="Path 206192" d="M32.741,67.9C23.016,52.259,13.548,36.615,3.824,20.742,1.265,16.371-1.55,11.31,1.009,6.939c2.047-3.221,6.4-4.6,10.492-5.521C41.953-4.564,73.172,9.239,97.739,26.723c17.913,12.883,34.034,28.066,52.2,40.949" transform="translate(763.612 2232.842)" fill="none" stroke="#0e766e" stroke-width="1"/>
      <path id="Path_206193" data-name="Path 206193" d="M6.832,19.394a33.941,33.941,0,0,1-2.3-2.99C1.714,13.182-1.1,9.042.434,5.131,1.714,1.45,6.576-.391,10.926.069S18.859,2.6,22.441,4.9A142.961,142.961,0,0,1,41.634,19.394" transform="translate(817.414 2281.35)" fill="none" stroke="#0e766e" stroke-width="1"/>
      <path id="Path_206194" data-name="Path 206194" d="M359.164,587.123c24.566-17.024,42.223-42.559,45.806-70.166,4.862-36.808-12.027-73.616-35.826-103.753C313.1,341.658,216.629,297.028,119.388,297.488c-25.334.23-50.924,3.221-75.746-1.61a91.883,91.883,0,0,1-15.61-4.371C-3.187,279.774-9.84,242.045,15.749,222.261c14.074-11.042,30.964-19.324,47.853-24.845,30.452-10.122,63.207-15.644,91.611-29.907,62.695-31.517,93.659-99.612,155.074-132.97,34.8-18.864,76-24.845,115.922-30.6C453.59.032,483.018-3.649,508.352,6.933c19.7,8.282,34.035,28.756,31.731,46.7-3.071,23.235-3.326,46.93,1.535,69.936,19.448,91.1,69.349,176.679,144.326,240.864,31.475,26.916,61.671,54.752,101.847,68.785,40.432,14.263,83.423,26,115.666,52.221,32.755,26.456,50.156,64.185,64.742,101.913" transform="translate(87.377 1713.621)" fill="none" stroke="#0e766e" stroke-width="1"/>
      <path id="Path_206195" data-name="Path 206195" d="M0,111.345C176.058,137.8,361.328,114.105,522.031,43.71c41.455-18.174,83.423-39.8,129.484-41.179,69.6-2.07,132.811,44.86,159.936,102.6,26.869,57.743,23.287,123.538,8.189,184.5-7.421,29.447-17.4,59.583-12.283,89.49,8.189,48.081,59.624,86.96,113.874,85.809,70.116-1.611,136.138,36.578,186.805,80.058,61.415,52.682,73.7,135.96,114.642,202.675,11.515,18.864,42.479,16.564,50.667-3.68,0-.23.256-.23.256-.461,8.7-21.395,17.4-42.789,25.846-64.184,8.444-20.935,14.841-44.4,25.845-64.185,16.889-30.137,67.3-37.728,100.568-40.259,36.337-2.76,74.722-1.84,107.476-16.333,19.449-8.512,35.826-21.855,52.971-33.818s36.082-23,57.577-26c52.2-7.132,87.005-47.161,109.012-90.41s30.453-90.641,43.5-136.651,31.987-92.711,69.86-125.838S1956.593,96.621,2008.8,88.8c52.2-7.592,105.174-7.822,157.633-14.263,77.281-9.662,151.492-33.358,226.981-51.3C2447.66,10.122,2503.7,0,2559.743,0" transform="translate(0.256 1467.958)" fill="none" stroke="#0e766e" stroke-width="1"/>
      <path id="Path_206196" data-name="Path 206196" d="M0,324.947c51.947-23.926,94.426-64.185,117.457-112.265,11.771-24.616,19.7-52.222,42.479-69.476,17.913-13.573,41.967-17.944,65-21.855,75.746-12.883,166.077-3.681,227.749-45.32C481.6,56.477,510.772,36.923,543.015,22.2S611.339-1.956,647.421.345c34.546,2.07,68.069,15.183,93.147,36.348,64.742,54.062,58.857,142.4,42.735,213.718-6.142,26.686-14.842,52.912-18.425,79.828s-1.535,55.442,13.051,79.367,45.294,45.32,75.49,43.02c74.21,12.423,144.326,44.63,198.832,91.79a357.073,357.073,0,0,1,83.167,104.214c18.425,35.2,25.59,73.156,55.019,103.063,11.515,11.733,27.636,20.475,45.037,21.625,24.567,1.61,47.853-12.423,62.183-30.367s21.752-39.569,29.173-60.734,15.353-42.79,30.964-59.814c20.471-22.545,54.25-39.8,86.749-36.578,89.308,8.972,176.569-33.588,240.543-90.411,88.8-78.907,144.582-189.332,161.471-300.677,5.63-36.348,38.641-65.1,76-79.6s78.817-17.484,119.247-20.934a3199.454,3199.454,0,0,0,516.657-87.42" transform="translate(0.256 1504.881)" fill="none" stroke="#0e766e" stroke-width="1"/>
      <path id="Path_206197" data-name="Path 206197" d="M0,0C16.633,1.61,33.011,4.371,47.853,10.813c20.984,9.2,38.385,27.376,38.129,48.311C85.726,76.147,74.21,91.1,61.927,104.213A340.778,340.778,0,0,1,0,155.055" transform="translate(0.256 1619.792)" fill="none" stroke="#0e766e" stroke-width="1"/>
      <path id="Path_206198" data-name="Path 206198" d="M0,340.7c57.833-23.926,115.666-51.3,152.515-97.312,25.334-31.747,39.664-70.626,70.628-98,38.129-33.587,94.426-43.249,147.4-49.921S479.552,82.126,521.263,52.22c23.8-17.024,49.9-33.818,78.3-43.71,28.4-10.122,61.415-12.423,88.54-.23,31.475,14.263,49.644,45.78,53.483,77.067,4.094,31.287-3.839,63.034-13.051,93.4s-19.96,60.964-21.239,92.711c-1.791,43.48,14.586,87.19,45.294,120.777,30.708,33.357,75.49,56.362,123.343,62.8C963.2,467,1046.11,518.3,1085.773,589.39c28.916,51.762,35.826,112.955,65.766,163.336" transform="translate(0.256 1548.018)" fill="none" stroke="#0e766e" stroke-width="1"/>
      <path id="Path_206199" data-name="Path 206199" d="M0,533.169c20.984,13.113,41.455,26.916,62.183,40.259,30.2,19.554,61.671,38.188,96.473,50.611,34.546,12.423,72.931,18.634,109.524,12.653s71.651-25.306,89.564-54.752c18.169-29.446,25.59-77.757-4.094-98-42.735-28.987-98.265-37.268-151.235-45.09s-108.5-17.254-149.7-48.081c-15.61-11.732-29.172-26.456-35.058-43.939s-3.838-37.729,8.7-52.222c9.724-11.5,24.566-18.174,39.152-24.615,41.2-18.4,91.1-28.066,124.366-56.593,43.5-37.038,72.931-86.729,119.5-120.777,54.25-39.569,131.531-43.71,193.2-73.156C530.732,6.122,562.463-2.85,593.938.831c31.476,3.451,62.183,21.395,72.163,48.541,7.933,21.395,2.3,44.63-.511,66.945-9.98,73.387,3.326,152.984,53.738,211.417,46.573,53.832,107.989,97.312,177.593,124.918,27.381,11.042,56.809,19.785,79.584,37.269,20.215,15.413,33.778,36.348,47.341,56.822C1050.2,587,1076.3,627.49,1102.663,667.749" transform="translate(0.256 1632.765)" fill="none" stroke="#0e766e" stroke-width="1"/>
      <path id="Path_206200" data-name="Path 206200" d="M0,0C65.766,36.578,141,58.893,218.025,65.1c19.192,1.61,38.641,2.071,57.065,7.132s36.338,15.184,44.526,30.827c9.468,17.944,4.35,40.029-9.212,55.673s-34.034,25.075-55.53,29.907c-5.374,1.15-10.748,2.07-16.122,2.991a137.087,137.087,0,0,1-81.887-14.263C104.918,150.454,51.691,125.378,0,98.232" transform="translate(0.256 2043.776)" fill="none" stroke="#0e766e" stroke-width="1"/>
      <path id="Path_206201" data-name="Path 206201" d="M136.657,10.348c12.795,4.831,25.846,12.883,28.916,25.076,2.047,8.512-1.535,17.484-7.421,23.926-6.142,6.671-14.586,11.273-23.287,14.723C94.689,89.946,44.278,81.434,13.314,53.6,6.149,47.157-.248,39.1.007,30.133,1.031,5.517,35.321,5.517,54.514,2.066A160.794,160.794,0,0,1,136.657,10.348Z" transform="translate(123.335 2129.59)" fill="none" stroke="#0e766e" stroke-width="1"/>
      <path id="Path_206202" data-name="Path 206202" d="M0,0A1001.724,1001.724,0,0,1,130.764,91.791" transform="translate(0.256 2208.953)" fill="none" stroke="#0e766e" stroke-width="1"/>
      <path id="Path_206203" data-name="Path 206203" d="M0,0A195.1,195.1,0,0,1,55.018,41.409" transform="translate(0.256 2259.335)" fill="none" stroke="#0e766e" stroke-width="1"/>
      <path id="Path_206204" data-name="Path 206204" d="M0,754.339c8.956-24.615,8.445-52.222,10.748-78.448C13.562,644.6,23.543,610.1,53.226,593.3,71.139,582.95,93.4,580.88,114.642,579.269c20.472-1.61,40.688-3.221,61.16-5.061,63.974-5.061,123.6-31.057,167.868-72.927,26.357-25.075,52.971-50.151,79.328-74.306,28.661-26,59.368-54.752,70.884-90.64,13.05-40.489,12.539-83.278,27.125-123.768,12.795-34.507,33.778-67.635,66.022-89.95C635.905,88.57,702.183,84.2,764.11,81.438c56.042-2.53,112.339,13.113,153.027,47.851,13.818,11.962,39.152,7.362,55.53-1.15,15.354-8.052,26.869-20.7,39.153-32.667C1065.3,44.17,1138.488,10.352,1215.769,0" transform="translate(1343.719 1546.405)" fill="none" stroke="#0e766e" stroke-width="1"/>
      <path id="Path_206205" data-name="Path 206205" d="M.174,706.028C-1.873,666,14.248,625.05,44.956,595.833c35.825-34.047,89.82-51.3,141.511-45.32,31.987,3.681,64.742-9.2,90.844-26.226s46.318-40.029,66.278-62.574c22.263-25.305,45.806-54.062,76.513-71.086,32.243-17.944,57.322-44.17,68.581-77.3,9.468-28.526,8.189-59.123,13.818-88.34,12.8-67.175,65-127.218,134.091-154.825,35.57-14.263,80.352-7.592,117.2,4.141,71.4,23.005,118.225,83.049,176.825,126.528,15.1,11.042,39.92-1.38,48.365-17.024,8.444-15.874,7.421-34.048,11-51.3,8.7-42.33,44.271-76.837,85.982-98.232C1108.21,17.714,1143.78,8.052,1180.117,0" transform="translate(1379.882 1594.716)" fill="none" stroke="#0e766e" stroke-width="1"/>
      <path id="Path_206206" data-name="Path 206206" d="M0,597.894c7.165-44.63,39.92-86.039,85.981-104.444,34.29-13.8,73.187-15.183,109.524-23.7,47.085-11.042,90.332-34.507,123.855-66.255,17.145-16.1,29.684-32.667,38.64-52.912,9.724-21.625,31.475-36.808,52.715-48.54,24.566-13.343,51.18-24.616,70.372-43.71,26.87-26.686,34.547-64.184,39.664-99.842s9.213-72.926,30.708-103.063C581.4,13.794,641.279-5.53,695.785,1.371S798.912,38.18,834.226,76.138c19.192,20.7,39.408,38.649,49.644,63.954,4.862,11.733,8.189,24.386,17.657,33.587,12.283,11.733,31.22,14.723,48.621,18.634a303.563,303.563,0,0,1,91.868,36.118c9.468,5.751,23.8,6.9,33.778,1.84s15.354-16.334,13.05-26.456c-2.047-8.052-8.444-15.643-6.653-23.7,1.792-6.9,9.213-11.5,16.122-15.184l52.971-28.3" transform="translate(1407.437 1702.85)" fill="none" stroke="#0e766e" stroke-width="1"/>
      <path id="Path_206207" data-name="Path 206207" d="M205.77,0C137.445,14.263,77.309,58.663,49.928,116.866c-9.724,20.7-15.866,43.25-31.731,60.5C10.776,185.652.54,193.473.028,204.056c-.768,13.573,14.33,23.235,27.381,29.907C47.369,244.315,69.888,254.9,91.9,249.606c18.681-4.371,31.476-18.864,45.294-31.057A220.9,220.9,0,0,1,205.77,177.37" transform="translate(2353.46 1624.623)" fill="none" stroke="#0e766e" stroke-width="1"/>
      <path id="Path_206208" data-name="Path 206208" d="M141.572,0C87.066,24.155,40.748,62.8,10.3,110.195,5.69,117.326,1.34,124.918.316,132.97c-1.279,8.052,1.28,17.254,8.445,22.315,8.189,5.981,20.471,5.521,30.2,1.38S56.1,145.393,64.035,138.951A321.423,321.423,0,0,1,141.828,91.1" transform="translate(2417.657 1666.262)" fill="none" stroke="#0e766e" stroke-width="1"/>
      <path id="Path_206209" data-name="Path 206209" d="M0,532.75a133.053,133.053,0,0,1,58.857-58.663c29.94-14.954,64.486-19.554,96.985-28.527,88.285-24.615,146.374-97.311,207.789-159.425,32.243-32.667,92.123-37.268,117.712-74.536,20.217-29.217,10.748-66.945,15.61-101.223,6.653-47.851,44.015-93.861,95.961-105.824C635.905-5.34,682.99,1.1,720.864,21.806s51.435,60.5,73.7,95.011c28.149,43.71,83.678,66.255,135.37,85.809,31.732,12.193,64.742,24.385,99.032,23.465,23.8-.69,48.62-9.662,64.486-25.076" transform="translate(1465.782 1767.994)" fill="none" stroke="#0e766e" stroke-width="1"/>
      <path id="Path_206210" data-name="Path 206210" d="M0,436.52C8.956,414.2,28.4,395.11,52.971,386.368c22.519-8.282,47.341-8.282,70.628-14.493,29.684-7.822,55.274-25.306,77.281-45.09,21.751-19.785,40.688-42.1,61.927-62.574,41.455-40.259,91.867-72.926,146.885-95.931,41.967-17.484,71.907-52.452,79.84-93.4a.792.792,0,0,1,.256-.69c5.118-26.456,16.121-55.443,42.479-68.1,25.846-12.423,59.369-4.6,81.887,12.193,22.775,16.564,37.106,40.259,51.18,63.494a72.473,72.473,0,0,0,38.641,30.827c16.889,5.981,34.8,8.512,52.459,11.733a882.089,882.089,0,0,1,257.433,88.34" transform="translate(1545.62 1864.224)" fill="none" stroke="#0e766e" stroke-width="1"/>
      <path id="Path_206211" data-name="Path 206211" d="M0,367.8c9.212-10.353,24.31-17.944,39.152-21.165,24.055-5.061,49.388-3.45,72.675-10.582,25.846-8.052,45.806-26.226,64.742-43.71,36.849-34.048,73.955-68.325,110.8-102.373,27.126-25.075,67.3-37.728,102.1-53.832,34.546-16.1,68.836-36.809,86.493-68.1,7.421-13.113,11.515-27.606,19.192-40.489S515.122,2.71,531.243.409c22.519-3.22,42.479,13.113,55.529,29.907s24.054,36.348,44.271,45.78c29.172,13.8,58.344,37.038,90.844,42.789,32.243,5.981,65.509,7.362,98.009,12.193A475.036,475.036,0,0,1,977.017,183.07" transform="translate(1582.213 1932.943)" fill="none" stroke="#0e766e" stroke-width="1"/>
      <path id="Path_206212" data-name="Path 206212" d="M0,240.431c22.775-10.353,44.526-23.005,65.254-36.578,46.829-30.6,89.564-66.025,137.161-95.471,18.681-11.5,44.526-17.714,58.6-33.587C310.148,18.432,395.362-10.095,473.411,3.248c53.738,9.2,101.847,36.348,155.33,46.47,38.9,7.362,79.328,5.521,118.736,10.122,32.243,3.911,65.766,13.343,89.308,32.667" transform="translate(1722.703 2060.313)" fill="none" stroke="#0e766e" stroke-width="1"/>
      <path id="Path_206213" data-name="Path 206213" d="M0,181.741C20.984,147,41.711,112.035,62.695,77.3,73.443,59.123,84.7,40.719,100.568,26,116.433,11.043,137.929,0,160.7,0c20.472,0,39.152,8.972,58.345,15.184,48.365,15.643,101.08,14.953,152,19.784,44.014,4.14,89.82,14.033,123.6,38.649" transform="translate(2064.327 2119.004)" fill="none" stroke="#0e766e" stroke-width="1"/>
      <path id="Path_206214" data-name="Path 206214" d="M0,171.743A1177.227,1177.227,0,0,0,212.651,46.6c25.59-18.864,51.691-39.569,84.19-45.55,17.4-3.221,39.92.69,45.55,16.1,5.118,14.493-7.933,28.527-19.448,39.569A534.61,534.61,0,0,0,232.1,171.743" transform="translate(1768.251 2129)" fill="none" stroke="#0e766e" stroke-width="1"/>
      <path id="Path_206215" data-name="Path 206215" d="M0,79.374A477.221,477.221,0,0,0,113.874,14.96c6.4-5.061,13.05-10.123,20.728-13.113,7.933-2.76,17.657-2.76,24.054,2.3,6.4,4.831,7.677,13.573,5.886,20.7-2.047,7.361-6.653,13.8-11.515,19.784-8.7,11.5-17.657,23.005-26.358,34.508" transform="translate(1834.784 2221.369)" fill="none" stroke="#0e766e" stroke-width="1"/>
      <path id="Path_206216" data-name="Path 206216" d="M0,139.518C12.283,119.5,22.263,98.108,34.29,77.633,50.156,50.488,71.4,24.262,102.1,10.919,136.649-4.035,177.081-.584,215.21,3.557c45.55,4.831,91.1,9.432,135.114,20.7C384.614,33,417.88,45.886,446.8,64.291" transform="translate(2112.175 2161.227)" fill="none" stroke="#0e766e" stroke-width="1"/>
      <path id="Path_206217" data-name="Path 206217" d="M0,101.444C14.33,77.058,30.452,53.363,52.459,34.269,81.631,9.193,123.6-6.681,162.5,2.751c19.448,4.831,36.849,15.413,56.809,18.864,21.5,3.681,43.5-1.611,65.254-3.451,45.55-3.45,92.123,10.582,127.437,36.579" transform="translate(2147.236 2199.3)" fill="none" stroke="#0e766e" stroke-width="1"/>
      <path id="Path_206218" data-name="Path 206218" d="M0,40.588C15.866,23.334,39.664,11.6,63.974,5.851c31.731-7.362,64.742-6.211,97.5-4.832C199.856,2.63,238.5,4.24,275.6,13.442c23.287,5.751,45.806,14.493,65.254,27.146" transform="translate(2202.763 2260.156)" fill="none" stroke="#0e766e" stroke-width="1"/>
    </g>
  </g>
</svg>
